<svg xmlns="http://www.w3.org/2000/svg" viewBox="0 0 1417.3 1417.3"><style>.st12{stroke-width:6;stroke-miterlimit:10}.st6{fill:none;stroke:#4d4d4d}.st6,.st7,.st8,.st9{stroke-width:6;stroke-miterlimit:10}.st7{fill:#d4145a;stroke:#d4145a}.st8,.st9{fill:none;stroke:#f7931e}.st9{stroke:#fff}.st12{fill:#0ff;stroke:#29abe2}</style><g id="Layer_2"><path d="M1232.6 1068.3H195.9c-11.6 0-21-9.4-21-21V370c0-11.6 9.4-21 21-21h1036.7c11.6 0 21 9.4 21 21v677.3c0 11.6-9.4 21-21 21z" fill="#665c5c" stroke="#4d4d4d" stroke-width="2" stroke-miterlimit="10"/><path d="M1235.1 349H193.4c-10.2 0-18.5 8.3-18.5 18.5v76.1h1078.7v-76.1c0-10.2-8.3-18.5-18.5-18.5z" fill="#5b5b5b" stroke="#4d4d4d" stroke-width="2" stroke-miterlimit="10"/><path fill="#ed1c24" stroke="#4d4d4d" stroke-width="2" stroke-miterlimit="10" d="M203.6 371h42.1v36.2h-42.1z"/><path fill="#f7931e" stroke="#4d4d4d" stroke-width="2" stroke-miterlimit="10" d="M272.1 371h42.1v36.2h-42.1z"/><path fill="#0f0" stroke="#4d4d4d" stroke-width="2" stroke-miterlimit="10" d="M343.2 371h42.1v36.2h-42.1z"/><path class="st6" d="M257.7 475.7v543.6"/><path class="st7" d="M304.9 495.9H359"/><path class="st8" d="M350.5 517.9h54.1"/><path class="st9" d="M382.6 539.8h54"/><path class="st6" d="M458.6 539.8h119.9"/><path class="st8" d="M600.4 539.8h54.1"/><path class="st9" d="M667.1 539.8h54"/><path fill="#4d4d4d" d="M388.5 561.8h190"/><path class="st9" d="M593.7 561.8h54"/><path fill="#fffffe" d="M673 561.8h134.3"/><path class="st12" d="M386.8 583.7h54.1"/><path class="st6" d="M458.6 583.7h292.1m15.2 0h195m-605.3 27h54m22 0h227.9"/><path class="st9" d="M671.3 610.7h54.1"/><path class="st7" d="M301.6 635.2h54"/><path class="st8" d="M350.1 676.6h54"/><path class="st6" d="M382.2 698.5h54"/><path class="st7" d="M458.2 698.5h119.9"/><path class="st6" d="M600 698.5h54m12.7 0h54m-332.6 22h190m15.1 0h54.1"/><path class="st9" d="M672.6 720.5h134.2"/><path class="st6" d="M395.7 740.7h54m22 0h119.9m21.9 0h54m12.7 0h54"/><path class="st9" d="M401.6 762.7h190"/><path class="st6" d="M606.8 762.7h54m25.3 0h134.2m-420.4 21.9h54m17.8 0h292.1"/><path class="st9" d="M779 784.6h195"/><path class="st6" d="M368.7 811.7h54"/><path class="st7" d="M444.7 811.7h227.9"/><path class="st6" d="M684.4 811.7h54.1m-373.6 27h54m22 0h119.8m22 0h54m12.7 0h54"/><path class="st12" d="M370.8 860.6h189.9"/><path class="st6" d="M575.9 860.6H630"/><path class="st9" d="M655.3 860.6h134.2"/><path class="st6" d="M369.1 882.6h54m17.8 0H733m15.2 0h195"/><path class="st8" d="M337.9 909.6h54"/><path class="st6" d="M413.8 909.6h228"/><path class="st9" d="M653.6 909.6h54"/><path class="st6" d="M296.5 929.9h54"/></g></svg>