<svg xmlns="http://www.w3.org/2000/svg" viewBox="0 0 850.4 850.4"><path d="M23.9 472.4v23.2h13.6v-46.4H23.9v23.2m125.7-18.9c0 3.6-.1 4.3-.5 4.3-.3 0-.5-.2-.5-.5 0-.4-.7-.5-4.3-.5-3.6 0-4.3.1-4.3.5s-.4.5-1.1.5c-.7 0-1.1.2-1.1.5s-.2.5-.5.5-.5.2-.5.5-.2.6-.5.7c-.5.2-.5 2.3-.5 16.1s.1 15.9.5 16.1c.3.1.5.4.5.7 0 .3.2.5.5.5s.5.2.5.5.2.5.5.5.6.2.7.5c.2.4 1.1.5 4.9.5 3.9 0 4.7-.1 4.7-.5 0-.3.2-.5.5-.5s.5.2.5.5c0 .5 1 .5 6.8.5h6.8V449h-13.6v4.5m90.7 27.1v15h12.8v-30h-12.8v15m140.7-8.2v23.2h10.9c9.4 0 10.9-.1 11.1-.5.1-.3.7-.5 1.2-.5.7 0 1-.2 1-.5s.4-.6 1-.6c.8-.1 1-.3 1.1-1.1.1-.6.3-1 .6-1 .4 0 .5-.5.5-2.1 0-1.7.1-2.1.5-2.1.5 0 .5-1.8.5-14.1 0-12.3-.1-14.1-.5-14.1s-.5-.5-.5-2.1c0-1.7-.1-2.1-.5-2.1s-.5-.4-.5-1.1c0-.7-.2-1.1-.5-1.1s-.5-.2-.5-.5-.2-.5-.5-.5-.6-.2-.7-.5c-.1-.4-.7-.5-1.6-.5-1 0-1.4-.1-1.4-.5 0-.5-1.4-.5-10.5-.5H381v22.8m136.4 0v23.2H531v-46.4h-13.6v23.2m26.4 0v23.2h20v-10.4h-7.5v-36h-12.5v23.2m33.8-7c.1.5.5.6 1.6.6h1.4v13.2c0 11.5.1 13.2.5 13.2.3 0 .5.2.5.5s.2.5.5.5.5.2.5.5c0 .4.4.5 1.1.5s1.1.2 1.1.5c0 .5.9.5 5.9.5h5.9l-.1-3.7c-.1-3.5-.1-3.7-.9-3.8-2.2-.3-2.2-.5-2.2-11.8v-10.3l1.6-.1 1.6-.1v10.6c0 9.2.1 10.6.5 10.6s.5.4.5 1.6c0 1.2.1 1.6.5 1.6s.5.4.5 1.1c0 .7.2 1.1.5 1.1s.6.2.7.5c.1.3.6.5 1.1.5.6 0 .9.2.9.5s.3.5.9.5c.5 0 .9.2 1.1.5.2.4 1.3.5 6.8.5 5.6 0 6.7-.1 6.8-.5.1-.3.6-.5 1.1-.5.5 0 .9-.2.9-.5s.2-.5.4-.5c.7 0 2.8-2.3 3-3.4.1-.5.4-.9.6-.9s.3-2.3.3-5.2v-5.2h-12.4v4.1c0 3.4-.1 4.1-.5 4.1-.3 0-.5-.2-.5-.4s-.2-.4-.5-.4c-.4 0-.5-.7-.5-4.3v-4.3h14.6v-6.4c0-4-.1-6.4-.4-6.4-.2 0-.4-.6-.4-1.3 0-.8-.2-1.3-.5-1.5-.3-.1-.5-.4-.5-.7 0-.3-.2-.5-.5-.5s-.5-.2-.5-.5-.2-.5-.5-.5-.5-.2-.5-.5-.2-.5-.5-.5-.6-.2-.7-.5c-.1-.4-.7-.5-1.6-.5-1 0-1.4-.1-1.4-.5 0-.5-.9-.5-5.7-.5s-5.7.1-5.7.5-.4.5-1.1.5c-.7 0-1.1.2-1.1.5 0 .4-.4.5-1.1.5s-1.1.2-1.1.5-.2.5-.5.5c-.4 0-.5.4-.5 1.1 0 .7-.2 1.1-.5 1.1-.4 0-.5.4-.5 1.4 0 .9-.2 1.5-.5 1.6-.4.2-.5-.4-.6-3.4l-.1-3.6-1.5-.1-1.5-.1v-5.4h-13.3v5.4h-1.4c-.8 0-1.5.2-1.6.4-.1.2-.2-1.7-.2-4.3v-4.7H565v23.2m-.1.3v23.2h12.4v-15.4c0-8.5.1-15.2.2-14.8M70.3 455.1v2.7l-1.5.1c-1.4.1-1.5.2-1.6 1.3-.1 1.1-1.1 1.4-1.1.3 0-.3-.2-.5-.5-.5s-.5-.2-.5-.5-.2-.5-.5-.5-.6-.2-.7-.5c-.2-.4-1-.5-4.7-.5s-4.5.1-4.5.5c0 .3-.2.5-.5.5s-.6.3-.7.6c-.1.3-.2.1-.2-.5v-1.2l-6.7.1-6.7.1v38.6l6.7.1 6.7.1v-15.4c0-15.1 0-15.4.7-15.4s.7.2.7 15.4v15.4h12.4v-29.8l1.6.1 1.6.1v13.2c0 11.5.1 13.2.5 13.2.3 0 .5.2.5.5s.2.5.5.5.5.2.5.5c0 .4.4.5 1.1.5.7 0 1.1.2 1.1.5 0 .5.9.5 5.7.5H86v-7.4h-.9c-2.2 0-2.3-.4-2.3-11.8V466H86v-8.2h-3.2v-5.4H70.4v2.7m153.1 0v2.7l-1.5.1-1.5.1-.1 2.1c-.1 1.9-1.1 3.2-1.1 1.5 0-.3-.2-.5-.5-.5s-.5-.2-.5-.5-.2-.5-.5-.5-.5-.2-.5-.5-.2-.5-.5-.5-.5-.2-.5-.5c0-.4-.4-.5-1.6-.5-1.2 0-1.6-.1-1.6-.5s-.8-.5-5.2-.5-5.2.1-5.2.5-.4.5-1.4.5c-.9 0-1.5.2-1.6.5-.1.3-.4.5-.7.5s-.5.2-.5.5-.2.5-.5.5-.5.2-.5.5-.2.5-.5.5-.5.2-.5.5-.2.5-.5.5c-.4 0-.5.5-.5 2.1 0 1.5-.1 2.2-.5 2.3-.5.2-.5 1.5-.5 9.3 0 7.9.1 9.1.5 9.1s.5.5.5 2.5c0 1.9.1 2.6.5 2.7.3.1.5.4.5.7 0 .3.2.5.5.5s.6.4.6 1c.1.8.3 1 1.1 1.1.6.1 1 .3 1 .6s.4.5 1.1.5c.7 0 1.1.2 1.1.5 0 .5.9.5 6.2.5s6.2-.1 6.2-.5.4-.5 1.1-.5c.7 0 1.1-.2 1.1-.5s.4-.6 1-.6c.8-.1 1-.3 1.1-1.1.1-.6.3-1 .6-1s.5-.2.5-.5.2-.5.5-.5c.4 0 .5-.4.5-1.6 0-1.2.1-1.6.5-1.6s.5-.7.5-4.1v-4.1h-11.4v3.2c0 2.6-.1 3.2-.5 3.2-.3 0-.5.3-.5.9 0 .6-.2.9-.5.9-.5 0-.5-1.5-.5-11.1s.1-11.1.5-11.1.5.7.5 3.7v3.7h12.4V466h2.2v13.2c0 11.5.1 13.2.5 13.2.3 0 .5.2.5.5s.2.5.5.5.5.2.5.5c0 .4.4.5 1.1.5.7 0 1.1.2 1.1.5 0 .5.9.5 5.7.5h5.7V488h-.9c-2.2 0-2.3-.4-2.3-11.8V466h3.2v-8.2H236v-5.4h-12.4v2.7m100.2 0v2.7h-2.2v8.2h2.2v11.6c0 9.9.1 11.6.5 11.6s.5.5.6 2.1c.1 1.9.2 2.1 1.1 2.2.6.1 1 .3 1 .6s.4.5 1.1.5c.7 0 1.1.2 1.1.5 0 .5.9.5 5.7.5h5.7v-7.4h-.9c-1.8 0-1.9-.4-1.9-11.7v-10.4h2.8v-8.2h-2.8l-.1-2.6-.1-2.6-6.9-.1-6.9-.1v2.6m148.2 0v2.7h-2.2v8.2h2.2v12.7c0 8.2.1 12.7.4 12.7.2 0 .4.4.4.9 0 .6.2 1 .7 1.1.4.1.7.4.7.7 0 .3.4.5 1.1.5.7 0 1.1.2 1.1.5 0 .5.8.5 6.2.4l6.2-.1.1-2.1c.1-2.2 1.1-3.1 1.1-1 0 .7.2 1.1.5 1.1s.5.2.5.5.2.5.5.5.6.2.7.5c.2.4 1.9.5 11.6.5h11.4V479c0-14.1-.1-16.5-.5-16.9-.3-.3-.5-.7-.5-.9 0-.2-.2-.4-.5-.4s-.6-.4-.6-1c-.1-.8-.3-1-1.1-1.1-.6-.1-1-.3-1-.6s-.4-.5-1.1-.5c-.7 0-1.1-.2-1.1-.5 0-.5-.9-.5-6.2-.5s-6.2.1-6.2.5-.4.5-1.1.5c-.7 0-1.1.2-1.1.5 0 .4-.4.5-1.1.5-.7 0-1.1.2-1.1.5s-.2.5-.5.5-.5.2-.5.5-.2.5-.5.5c-.4 0-.5.4-.5 1.1 0 .7-.2 1.1-.5 1.1-.5 0-.5.8-.5 5.2v5.2h3.2c2.6 0 3.2.1 3.2.5s-.4.5-1.1.5c-.7 0-1.1.2-1.1.5 0 .4-.4.5-1.1.5-.7 0-1.1.2-1.1.5s-.2.5-.5.5-.5.2-.5.5-.2.5-.5.5c-.5 0-.5.8-.5 5.3v5.3l-1-.2c-.6-.1-1.5-.6-2.1-1.2l-1.1-1v-20h3.2v-8.2h-3.2v-5.4H472v3.3M87.1 476.2v19.5l6.3-.1 6.3-.1.1-10.8.1-10.8 1.3-1.3c1.1-1.1 1.5-1.3 3-1.3h1.8v-14.6h-2c-1.5 0-2 .1-2 .5s-.4.5-1.3.5-1.2-.2-1.2-.5c0-.5-.9-.5-6.2-.5h-6.2v19.5m27.5-19c0 .4-.4.5-1.4.5-.9 0-1.5.2-1.6.5-.1.3-.4.5-.7.5-.3 0-.5.2-.5.5s-.2.5-.5.5-.5.2-.5.5-.2.5-.4.5-.4.5-.4 1.1c0 .7-.2 1.1-.5 1.1-.4 0-.5.5-.5 2 0 1.4-.1 2-.5 2.2-.5.2-.5 1.6-.5 9.4 0 8 .1 9.2.5 9.2s.5.5.5 2.1c0 1.7.1 2.1.5 2.1.3 0 .5.3.5.9 0 1 1 2.3 1.7 2.3.3 0 .5.2.5.5 0 .4.4.5 1.1.5.7 0 1.1.2 1.1.5 0 .5 1 .5 7.2.5 6 0 7.2-.1 7.4-.5.1-.3.6-.5 1-.5.8 0 2-1.1 2-1.8 0-.2.2-.4.5-.4s.5-.2.5-.5.2-.5.5-.5c.4 0 .5-.4.5-1.1 0-.7.2-1.1.5-1.1.5 0 .5-1.7.5-13s-.1-13-.5-13-.5-.4-.5-1.1c0-.7-.2-1.1-.5-1.1s-.5-.2-.5-.5-.2-.5-.5-.5-.5-.2-.5-.5-.3-.5-.9-.5c-.6 0-.9-.2-.9-.5 0-.4-.4-.5-1-.5s-1.1-.2-1.2-.5c-.2-.4-1.2-.5-5.9-.5-5.2.2-6.1.3-6.1.7m50.7 17.2c0 15.4.1 17.7.5 17.9.3.1.5.4.5.7 0 .3.2.5.5.5s.5.2.5.5.2.5.5.5.5.2.5.5c0 .4.8.5 4.8.5s4.8-.1 4.8-.5c0-.3.2-.5.5-.5s.5.2.5.5c0 .5 1 .5 6.8.5h6.8v-39h-13.3v15.2c0 13.2-.1 15.2-.5 15.2-.5 0-.5-2-.6-15.1l-.1-15.1-6.3-.1-6.3-.1v17.9m97.4-17.2c0 .4-.4.5-1.1.5-.7 0-1.1.2-1.1.5 0 .4-.4.5-1.1.5-.7 0-1.1.2-1.1.5s-.2.5-.5.5c-.4 0-.5.4-.5 1.1 0 .7-.2 1.1-.5 1.1s-.5.3-.5.9c0 .5-.2.9-.5 1.1-.5.2-.5 1.9-.5 12.7 0 10.9.1 12.5.5 12.5s.5.4.5 1.1c0 .7.2 1.1.5 1.1s.5.2.5.5.2.5.5.5.5.2.5.5.2.5.5.5.5.2.5.5c0 .4.4.5 1.1.5.7 0 1.1.2 1.1.5 0 .5 1 .5 6.8.5s6.8-.1 6.8-.5.4-.5 1.1-.5c.7 0 1.1-.2 1.1-.5s.3-.5.8-.5c1 0 2.4-1.4 2.4-2.5 0-.4.2-.8.5-.8.4 0 .5-.4.5-1.6 0-1.1.2-1.6.5-1.8.5-.2.5-1.7.5-10.9 0-9.2-.1-10.8-.5-10.9-.3-.1-.5-.7-.5-1.4 0-.8-.2-1.3-.5-1.4-.3-.1-.5-.4-.5-.7 0-.3-.2-.5-.5-.5s-.5-.2-.5-.5-.2-.5-.5-.5-.5-.2-.5-.5-.2-.5-.5-.5-.6-.2-.7-.5c-.1-.4-.7-.5-1.6-.5-1 0-1.4-.1-1.4-.5 0-.5-.9-.5-5.7-.5-5-.1-5.9 0-5.9.4m22.1 19v19.5h12.4v-15.4c0-13.4.1-15.4.5-15.4.5 0 .5 2 .6 15.3l.1 15.3 6.7.1 6.7.1v-15.9c0-10.4-.1-15.9-.4-15.9-.2 0-.4-.9-.4-2 0-1.5-.1-2-.5-2-.3 0-.5-.2-.5-.5s-.2-.5-.5-.5-.5-.2-.5-.5-.2-.5-.5-.5-.6-.2-.7-.5c-.2-.4-1-.5-4.3-.5-3.4 0-4.1.1-4.1.5s-.4.5-1.1.5c-.7 0-1.1-.2-1.1-.5 0-.5-.9-.5-6.2-.5h-6.2v19.3m63.2-19c0 .4-.4.5-1.1.5-.7 0-1.1.2-1.1.5s-.3.5-.7.5c-.9 0-2.5 1.6-2.5 2.6 0 .4-.2.7-.4.7s-.4.4-.4.9-.2.9-.5 1.1c-.5.2-.5 1.9-.5 12.7 0 10.9.1 12.5.5 12.5s.5.4.5 1.1c0 .6.2 1.1.4 1.1s.4.2.4.5.2.5.5.5.5.2.5.5.2.5.5.5.6.2.7.5c.1.3.6.5 1.1.5.5 0 1 .2 1.1.5.2.4 1.3.5 6.8.5 5.6 0 6.7-.1 6.8-.5.1-.3.6-.5 1.2-.5.7 0 1-.2 1-.5s.3-.5.9-.5c.6 0 .9-.2.9-.5s.2-.5.5-.5c.4 0 .5-.4.5-1.1s.2-1.1.5-1.1c.4 0 .5-.4.5-1.6 0-1.2.1-1.6.5-1.6.5 0 .5-1.5.5-11.1s-.1-11.1-.5-11.1-.5-.4-.5-1.4-.1-1.4-.5-1.4c-.3 0-.5-.2-.5-.5s-.2-.5-.5-.5-.5-.2-.5-.5-.2-.5-.5-.5-.5-.2-.5-.4c0-.8-1.5-1.8-2.7-1.8-.9 0-1.2-.2-1.2-.5 0-.5-.9-.5-5.9-.5-4.9-.1-5.8 0-5.8.4m82.5 0c0 .3-.4.6-1 .6-.8.1-1 .3-1.1 1.1-.1.6-.3 1-.6 1s-.5.4-.5 1.1c0 .7-.2 1.1-.5 1.1-.5 0-.5 1.5-.5 11.8 0 10.2.1 11.8.5 12 .3.1.5.6.5 1.2 0 .7.2 1 .5 1s.5.2.5.5.2.5.5.5.5.2.5.5c0 .4.4.5 1.1.5.7 0 1.1.2 1.1.5 0 .4-.5.5-2.7.5h-2.7v2.1c0 1.7.1 2.1.5 2.1s.5.4.5 1.2c0 1.4 1.4 3.1 2.5 3.1.4 0 .7.2.7.5 0 .4.4.5 1.6.5 1.1 0 1.6.2 1.8.5.2.4 1.1.5 5.6.5 4.4 0 5.4-.1 5.6-.5.1-.4.7-.5 1.8-.5 1.2 0 1.6-.1 1.6-.5s.4-.5 1.1-.5c.7 0 1.1-.2 1.1-.5s.2-.5.5-.5.5-.2.5-.5.2-.5.5-.5c.4 0 .5-.4.5-1.1s.2-1.1.5-1.1c.5 0 .5-2.4.5-19.5v-19.5h-5.7c-4.7 0-5.7.1-5.7.5 0 .3-.3.6-.6.6-1.1.2-2.6-.1-2.6-.6 0-.4-.9-.5-4.3-.5-3.3.3-4.1.4-4.1.8m195.7 19v19.5h12.4v-10c0-8.6.1-10 .5-10s.5-.4.5-1.6c0-1.5.1-1.6.9-1.6.5 0 1-.2 1.2-.5.2-.3 1.1-.5 2.3-.6l2.1-.1v2.4h3.2c2.6 0 3.2.1 3.2.5s-.4.5-1.4.5c-1 0-1.5.2-1.6.5-.1.3-.4.5-.7.5-.3 0-.5.2-.5.5s-.2.5-.5.5-.5.2-.5.5-.2.5-.5.5c-.5 0-.5 1-.5 7.3s.1 7.3.5 7.3c.3 0 .5.2.5.5s.2.5.5.5.5.2.5.5.2.5.5.5.5.2.5.5c0 .4.8.5 4.6.5 3.9 0 4.6-.1 4.6-.5 0-.3.2-.5.5-.5s.5.2.5.5c0 .5 1 .5 6.4.5h6.4v-16.1c0-14-.1-16.1-.5-16.3-.3-.1-.5-.7-.5-1.2 0-.7-.2-1-.5-1s-.5-.2-.5-.5-.2-.5-.5-.5-.5-.2-.5-.5-.2-.5-.5-.5-.5-.2-.5-.5c0-.4-.4-.5-1-.5s-1.1-.2-1.2-.5c-.2-.4-1.2-.5-6.3-.5-5.2 0-6.1.1-6.1.5s-.4.5-1.6.5c-1.2 0-1.6.1-1.6.5 0 .3-.2.5-.5.5s-.5.2-.5.5-.2.5-.5.5-.5.2-.5.5-.2.5-.5.5c-.4 0-.5.4-.5 1.1 0 .7-.2 1.1-.5 1.1-.4 0-.5-.7-.6-3.1l-.1-3.1-2.4-.1c-1.9-.1-2.5 0-2.6.4-.1.3-.4.6-.7.6-.3 0-.5.2-.5.5s-.2.5-.5.5c-.4 0-.5-.4-.5-1.1v-1.1h-12.4v19.8m55.3-19c-.1.3-.6.5-1.1.5-.5 0-.9.2-.9.5 0 .4-.4.5-1.1.5s-1.1.2-1.1.5-.2.5-.5.5-.5.2-.5.5-.2.5-.5.5c-.4 0-.5.4-.5 1.1 0 .7-.2 1.1-.5 1.1-.5 0-.5 1.7-.5 13s.1 13 .5 13 .5.4.5 1.1c0 .7.2 1.1.5 1.1s.5.2.5.5.2.5.5.5.5.2.5.5.2.5.5.5.5.2.5.5.3.5.9.5c.5 0 .9.2 1.1.5.2.4 1.3.5 6.8.5 5.6 0 6.7-.1 6.8-.5.1-.3.6-.5 1.1-.5.5 0 .9-.2.9-.5s.2-.5.5-.5c.6 0 1.6-1.2 1.9-2.3.1-.5.4-.9.7-.9.3 0 .5-.4.5-1s.2-1.1.5-1.2c.4-.2.5-1 .5-4.7v-4.5h-11.8v3.6c0 3-.1 3.7-.6 4.1-1.5 1.1-1.5 1-1.5-10.6 0-9.6.1-11.1.5-11.1s.5.7.5 3.7v3.7H701v-3.7c0-3.1.1-3.7.5-3.7s.5.5.5 2.5c0 1.9.1 2.6.5 2.7.4.2.5.8.5 2.7 0 1.9.1 2.5.5 2.7.4.2.5.8.5 2.3 0 1.6.1 2.1.5 2.1s.5.5.5 2.5c0 1.4.2 2.5.4 2.5s.4 1.1.4 2.7c0 2.1.1 2.7.5 2.7s.5.4.5 1.1c0 1.1 0 1.1-2 1.1h-2v8.6h5.7c4.8 0 5.7-.1 5.7-.5s.5-.5 2.2-.5c2 0 2.4-.1 3.4-1.1.6-.6 1.3-1.1 1.5-1.1.2 0 .3-.5.3-1 0-.6.2-1.1.5-1.2.4-.1.5-.8.5-2.2 0-1.5.1-2 .5-2s.5-.7.5-3.7.1-3.8.5-3.9c.4-.2.5-1 .5-4.6s.1-4.5.5-4.6c.4-.2.5-1 .5-4.3 0-2.5.1-4.1.4-4.1.2 0 .4-1.8.4-4.6v-4.6H715v5.1c0 4.2-.1 5.2-.5 5.3-.3.1-.5.6-.5 1.1 0 .6-.2.9-.5.9-.4 0-.5-.6-.5-3.6s-.1-3.6-.5-3.6-.5-.5-.5-2.7v-2.7h-12.4v1.4c0 1 .1 1.4.5 1.4s.5.5.5 2.5c0 2.2-.1 2.5-.5 2.1-.3-.2-.5-.8-.5-1.3s-.2-.9-.5-.9-.5-.3-.5-.7c0-.9-1.6-2.6-2.5-2.6-.4 0-.7-.2-.7-.5 0-.4-.4-.5-1-.5s-1.1-.2-1.2-.5c-.2-.4-1.2-.5-5.8-.5-4.2.3-5.1.4-5.3.8M394.5 459c0 .3.2.5.5.5.5 0 .5 1.7.5 12.9 0 11.2-.1 12.9-.5 12.9-.3 0-.5.2-.5.5s-.2.5-.5.5c-.5 0-.5-1.8-.5-13.9s.1-13.9.5-13.9c.3 0 .5.2.5.5M121 476c0 9.6-.1 11.1-.5 11.1s-.5-1.5-.5-11.1.1-11.1.5-11.1.5 1.5.5 11.1m28.6 0c0 9.6-.1 11.1-.5 11.1-.5 0-.5-1.5-.5-11.1s.1-11.1.5-11.1.5 1.5.5 11.1m119.3-10.5c0 .3.2.5.5.5.5 0 .5 1.4.5 10.2s-.1 10.2-.5 10.2c-.3 0-.5.2-.5.4s-.2.4-.5.4c-.5 0-.5-1.5-.5-11.1s.1-11.1.5-11.1c.2-.1.5.2.5.5m85.6 0c0 .3.2.5.5.5.5 0 .5 1.4.5 10.2s-.1 10.2-.5 10.2c-.3 0-.5.2-.5.4s-.2.4-.5.4c-.5 0-.5-1.5-.5-11.1s.1-11.1.5-11.1c.3-.1.5.2.5.5m86.8 8v8.6h-2.2v-7.5c0-4.3.1-7.5.3-7.5.2 0 .4-.5.6-1.1.1-.6.5-1.1.7-1.1.5 0 .6 1.4.6 8.6m61.1-6c0 1.7-.2 2.8-.5 3.3-.5.6-.5.4-.5-2.6 0-2.7.1-3.3.5-3.3s.5.5.5 2.6m108.9.1v2.7h-2.2v-2.1c0-1.7.1-2.1.5-2.1.3 0 .5-.2.5-.5s.2-.5.5-.5c.6-.2.7.4.7 2.5m48.2-1.6c.7 0 .4 3.9-.4 4.6-1.2 1.2-1.4.9-1.4-2 0-2.1.1-2.7.5-2.7.3 0 .6-.3.6-.6 0-.6 0-.6.2 0 .1.4.3.7.5.7m.3 17.5c0 2.9-.1 3.6-.5 3.6-.3 0-.5-.2-.5-.4s-.2-.4-.5-.4c-.4 0-.5-.4-.5-1.8 0-1.3.1-1.8.5-1.8s.5-.4.5-1.4c0-1 .1-1.4.5-1.4s.5.6.5 3.6m-157.4.3c0 2.6-.1 3.2-.5 3.2s-.5-.6-.5-3.2.1-3.2.5-3.2.5.6.5 3.2m-61.1 7.4c0 1.4-1 2-1.8 1.2-.9-1-.5-2.1.8-2.1.9 0 1 .1 1 .9m-201-33.9v5.7h12.8v-11.4h-12.8v5.7M410.8 481v15h12.8v-30h-12.8v15m0-23.3v5.7h12.8V452h-12.8v5.7m44.5 23.3v15h12.8v-30h-12.8v15m0-23.3v5.7h12.8V452h-12.8v5.7" fill="#303030"/><path d="M36.5 325.1c-.1.2 0 .3.3.1.4-.2.4-.2.1.1-.2.2-1.5.4-2.9.5-1.6 0-2.6.2-2.9.5-.2.3-.9.5-1.6.6-.7 0-1.3.3-1.4.5-.1.3-.6.5-1.2.5-.7 0-1 .2-1 .5s-.3.5-.9.5c-.6 0-.9.2-.9.5s-.3.5-.7.5-.7.2-.7.5-.2.5-.5.5-.5.2-.5.5-.3.5-.9.5c-.6 0-.9.3-1 .7-.1.4-.4.7-.8.7-.3 0-.6.3-.6.8 0 .4-.5 1.2-1.1 1.7-.6.5-1.1 1.2-1.1 1.7s-.2.8-.5.8c-.4 0-.5.4-.5 1.1 0 .7-.2 1.1-.5 1.1-.4 0-.5.4-.5 1.1 0 .6-.2 1.2-.5 1.3-.4.2-.5 1-.5 3.9 0 2.8-.1 3.9-.5 4.3-1 1-.8 49.8.2 49.2.2-.1.3 1.7.3 4.1 0 5 0 4.7.6 5.2.3.2.5 1.2.5 2.3 0 1.2.3 2 .5 2.1.3.1.5.6.5 1.2 0 .7.2 1 .5 1 .4 0 .5.4.5 1.1 0 .8.1 1.1.5.9.4-.1.5 0 .5.5 0 .4.2.7.5.7s.5.2.5.5.2.5.5.5.5.2.5.5.2.5.4.5c.5 0 1.8 1.3 1.8 1.8 0 .2.3.4.7.4.4 0 .7.2.7.5s.3.5.9.5.9.2.9.5c0 .4.4.5 1.1.5.7 0 1.1.2 1.1.5 0 .4.4.5 1.6.5 1.1 0 1.6.2 1.8.5.1.4.7.5 1.8.5 1.8 0 2.8.3 2.5.7-.1.2 3.7.3 8.4.3 7.4.1 8.6 0 8.8-.5.2-.4.7-.6 2.1-.6 1.4 0 2-.1 2.1-.5.1-.3.7-.5 1.6-.5.9 0 1.5-.2 1.6-.5.1-.3.5-.5.9-.5s.9-.2 1.2-.5c.3-.3.9-.5 1.3-.5s.8-.2 1-.5c.1-.3.4-.5.7-.5.3 0 .5-.2.5-.5s.2-.5.5-.5.5-.2.5-.5.2-.5.5-.5.5-.2.5-.5.2-.5.5-.5.5-.2.5-.5.2-.5.5-.5.5-.2.5-.4c0-.5 1.3-1.8 1.8-1.8.2 0 .4-.5.4-1.1 0-.7.2-1.1.5-1.1.4 0 .5-.4.5-1s.2-1.1.4-1.2c.3-.1.5-.9.5-2.1 0-1 .3-2 .5-2.2.3-.2.5-2.2.6-7.6.1-5.7.2-7.3.6-7.3.4 0 .5-1 .5-3.9v-3.9h-28v11.2c0 8.8-.1 11.2-.4 11.2-.3-.1-.5.3-.6.9-.1 1.2-4.4 1.6-4.4.4 0-.3-.2-.5-.5-.5-.5 0-.5-3.8-.5-32 0-23.6.1-32 .4-32 .2 0 .8-.4 1.2-.9 1.2-1.3 3.7-1.3 3.7 0 0 .6.2.9.5.9.5 0 .5 1.7.5 12.9v13h14c10.3 0 14-.1 14.3-.4.7-.7.6-11.6-.1-12.4-.4-.4-.5-2-.6-6.6-.1-4.5-.2-6.2-.6-6.6-.3-.3-.5-1.3-.6-2.3-.1-1-.3-1.8-.5-1.9-.2-.1-.4-.6-.4-1.2 0-.7-.2-1-.5-1s-.5-.3-.5-.9c0-.5-.2-.9-.5-1.1-.3-.1-.5-.5-.5-.8s-.2-.5-.5-.5-.5-.3-.5-.7-.2-.8-.4-.9c-.3-.2-.3-.1-.1.2.2.3.1.4-.1.2-.2-.1-.4-.6-.4-.9 0-.4-.2-.8-.4-.9-.3-.2-.3 0-.2.4.2.6.2.6-.2.1-.3-.3-.7-.6-.9-.6-.2 0-.4-.2-.4-.5s-.2-.5-.5-.5-.9-.5-1.3-1.1c-.5-.6-1.1-1.1-1.5-1.1-.4 0-.9-.2-1.2-.5-.3-.3-.9-.5-1.4-.5-.5 0-.9-.2-.9-.5 0-.4-.4-.5-1.4-.5-1 0-1.5-.2-1.7-.6-.2-.5-.3-.5-.5-.1s-.3.4-.3 0c0-.3-.8-.4-2.7-.4-1.5 0-2.6-.1-2.5-.3.1-.2-.2-.4-.7-.6-1.9-.6-13-.3-13.3.1m45.6 51.8v50.2h27.2v-44.2h1.3c.8 0 1.2.1 1 .4-.1.2.1.4.5.4s1 .3 1.4.7c.4.4.8.6.9.5.1-.1.2.8.2 2 0 1.7.1 2.2.5 2.2.5 0 .5 2.4.5 19.1v19.1H141v-21.4c0-18.8-.1-21.4-.5-21.4s-.5-.4-.5-1.1c0-.6-.2-1.2-.5-1.3-.3-.1-.5-.4-.5-.7 0-.3-.2-.5-.5-.5s-.6-.5-.7-1.1c-.1-.6-.5-1.1-.7-1.1-.3 0-.4-.2-.3-.5.2-.4-.1-.5-.9-.5-.7 0-1.1-.2-1.1-.5s-.2-.5-.5-.5-.6-.3-.7-.6c-.1-.3-.4-.5-.6-.3-.2.1-.4-.1-.4-.5 0-.7 1.1-1 2.6-.8.2 0 .4-.2.5-.5.1-.3.4-.5.7-.5.3 0 .5-.2.5-.4 0-.5 1.3-1.8 1.8-1.8.2 0 .4-.5.4-1.1 0-.7.2-1.1.5-1.1.4 0 .5-.4.5-1.6 0-1.2.1-1.6.5-1.6.5 0 .5-1.4.5-10.9 0-8.5-.1-10.9-.4-10.8-.3.1-.5-.6-.6-2.1-.1-1.7-.2-2.2-.6-2.2-.3 0-.5-.4-.5-1.1 0-.7-.2-1.1-.5-1.1s-.5-.3-.5-.8-.4-1.2-1.1-1.7c-.6-.5-1.1-1.1-1.1-1.3 0-.2-.3-.4-.6-.4s-.5-.2-.5-.5-.2-.5-.5-.5-.5-.2-.5-.5-.2-.5-.5-.5-.5-.1-.5-.3c0-.2-.5-.4-1-.6-.6-.1-1.2-.5-1.5-.7-.2-.3-.9-.5-1.4-.5-1.2 0-2.2-.3-1.9-.7.1-.2-1.8-.3-4.2-.3-3.1 0-4.5-.2-5.1-.6-.6-.4-3.5-.5-18-.5H82.1v49.6m67.2-49.8l-.8.3v99.2l.8.2c.4.1 17.3.1 37.4.1l36.6-.1.2-3.2c.1-2.1.3-3.2.6-3.1.2 0 .4-.3.4-.7v-10.6h7.4v5.8c0 .1.2.2.4.2.3-.1.5 1.3.5 5.9l.1 6h28.2v-3.2c0-2.6-.1-3.2-.5-3.2s-.5-.6-.6-3c-.1-3.6-.1-3.6-.4-4-.1-.1-.3-1.5-.3-2.9 0-1.8-.2-2.9-.5-3.2-.3-.4-.5-1.7-.6-4-.1-2.1-.3-3.5-.6-3.7-.3-.2-.5-1.6-.5-3.6-.1-2-.3-3.4-.6-3.8-.3-.4-.5-1.6-.5-3.5 0-2.3-.1-2.9-.5-2.9s-.8-5-.5-6.6c0-.2-.2-.5-.5-.7-.4-.3-.6-1.3-.6-3.8-.1-1.9-.2-3.4-.3-3.3-.4.3-.6-.8-.7-3.7 0-1.8-.2-2.9-.5-2.9-.2 0-.2-.1.1-.3.4-.2.4-.3-.1-.5s-.6-.8-.6-3.2c0-2.3-.1-3.1-.5-3.3-.4-.2-.5-1.1-.6-3.7 0-2.6-.2-3.5-.5-3.6-.4-.1-.5-1-.5-3.6 0-2.7-.1-3.4-.5-3.6-.4-.2-.5-.9-.5-3.8s-.1-3.6-.5-3.6-.5-.6-.5-3c0-2.2-.1-3.1-.5-3.4-.3-.2-.6-.9-.6-1.4l-.1-1-19.4-.1-19.4-.1v2.7c0 2.1-.1 2.7-.5 2.7s-.5.7-.5 4.3c0 3.6-.1 4.3-.5 4.3s-.5.6-.5 3.5c0 2.5-.1 3.6-.4 3.7-.3.1-.5 1.4-.6 4.2-.1 3-.3 4.1-.6 4.4-.4.2-.5 1.2-.5 3.8 0 2.9-.1 3.6-.5 3.6s-.5.8-.6 4.2c-.1 3.1-.2 4.2-.5 4.1-.3-.1-.4.8-.4 3.6 0 3-.1 3.8-.5 3.9-.4.2-.5 1-.5 4.3 0 3.4-.1 4.1-.5 4.1s-.5.7-.5 4.3c0 3.7-.1 4.2-.5 4.1-.5-.2-.5.4-.5 3.5 0 2.9-.1 3.8-.5 4.2-.4.3-.5 1.3-.5 4.3 0 3.2-.1 3.9-.5 3.9s-.5.6-.5 3.7c0 2.8-.1 3.8-.5 4.1-.4.4-.5-.6-.5-7.2 0-4.2-.1-7.7-.2-7.9-.1-.2-4.1-.3-8.9-.3h-8.7v-19l7.8-.1 7.8-.1.1-10.4.1-10.4h-16.5v-16h16.3c.3 0 .4-2.6.5-10.7v-10.7l-.9-.4c-1.2-.6-42.5-.5-43.7-.1m103.8 10.7v11.1h14.6v38.6c0 21.2.1 38.8.1 39 0 .3 3.1.5 13.7.5l13.7.1v-78.2l7.4-.1 7.4-.1.1-10.7c.1-8.4 0-10.7-.4-11-.3-.2-13.1-.3-28.6-.3H253v11.1m61.6 39.1v50.2h23c20.1 0 23-.1 23.2-.5.6-1.6.2-20.9-.5-21.2-.4-.2-4.2-.4-9.6-.4h-9v-19h7.5c4.1 0 7.7-.1 7.9-.1.3 0 .5-2.4.5-10.5l.1-10.4h-16v-16l8.5-.1 8.5-.1.1-11 .1-11h-44.2v50.1m240.6-.1l.1 50.1 21.5.1 21.5.1-.1-11-.1-11-7.8-.1-7.8-.1-.1-39-.1-39-13.7-.1-13.7-.1.3 50.1m47.6-49.3c-.1.4-.1 23-.1 50.1l.1 49.3 36.9.1c36.5.1 36.9.1 36.9-.6 0-.5.2-.6.5-.5.5.2.5-.7.5-6.8 0-6 .1-7 .5-7s.5-.4.5-1.4v-1.4h3.1c4.5 0 4.4-.2 4.5 7.4 0 5 .1 6.1.5 6.1s.5.5.5 2.1v2.1h27.4v-4c0-3.4-.1-4.1-.5-4.1s-.5-.7-.5-3.7c0-3.1-.1-3.7-.5-3.7-.5 0-.9-4.8-.6-7.1 0-.2-.1-.4-.4-.4-.3.1-.5-.7-.6-3.1-.1-2-.3-3.3-.5-3.5-.3-.2-.3-.3.1-.3s.4-.1-.1-.4c-.5-.3-.6-.9-.6-3.2 0-2.2-.1-2.9-.5-3.1-.4-.2-.5-.9-.5-3.7 0-2.8-.1-3.6-.5-3.7-.4-.2-.5-.9-.5-3.7 0-2.8-.1-3.6-.5-3.7-.4-.2-.5-.9-.5-3.7 0-2.9-.1-3.5-.5-3.5s-.5-.6-.5-3.2-.1-3.2-.5-3.2-.5-.7-.5-3.7c0-3.1-.1-3.7-.5-3.7s-.5-.7-.6-3.5c-.1-2.6-.2-3.5-.5-3.4-.3.1-.4-.8-.4-3.3 0-2.8-.1-3.4-.5-3.4s-.5-.7-.5-3.7c0-2.3-.1-3.7-.4-3.7-.2 0-.4-1.2-.4-2.9 0-1.8-.1-2.9-.4-2.9-.2 0-.3-.2-.2-.4.4-.6-38.7-.5-39.3.2-.4.4-.5 1.5-.5 4.3 0 3.2-.1 3.8-.6 3.8-.4 0-.5.3-.5.8.2 2.9-.1 7.8-.5 7.7-.3-.1-.5.9-.5 3.7-.1 2.5-.2 3.9-.5 4.1-.3.2-.5 1.7-.6 4.1-.1 2.7-.3 3.9-.6 4.1-.4.3-.5 1.3-.5 3.8s-.1 3.5-.5 3.6c-.3.1-.5 1.3-.6 4.1-.1 2.5-.2 4-.5 4.2-.3.2-.5 1.7-.6 3.7-.1 1.9-.3 3.5-.5 3.6s-.3.3-.3.4c.3 2.3-.1 8.1-.5 8.1s-.5.7-.5 3.7c0 2.8-.1 3.7-.4 3.7-.3-.1-.5 1-.5 4.1-.1 3.4-.2 4.2-.6 4.2-.4 0-.5.7-.5 4.1 0 3.4-.1 4.1-.5 4.1s-.6.7-.6 3.8c0 2.1-.2-.2-.3-5.1l-.2-8.9-9.4-.1-9.4-.1V386h7.8c6.8 0 7.8-.1 8-.6.3-.7.3-18.6 0-19.7-.2-.8-.2-.8-8-.8h-7.8v-16h17v-10.5c0-5.8-.1-10.7-.2-11.1-.2-.5-2.1-.6-22.1-.6h-21.9l-.5.8m115.4-.5c-.1.1-.2 22.7-.2 50.2v49.9h13.7c7.6 0 13.7-.1 13.7-.3v-44h1.1c.7 0 1.1.2 1.1.5 0 .4.4.5 1 .5.8 0 1.1.2 1.3 1 .1.5.4 1.1.6 1.2.2.1.3 8.8.3 20.6V427h13c11.3 0 13-.1 13.2-.5.4-1 .2-38.4-.2-38.4-.2 0-.3-.2-.1-.4s.1-.5-.2-.6c-.2-.1-.4-1.1-.4-2.1 0-1.2-.2-1.9-.5-2.1-.3-.1-.5-.5-.5-.9s-.2-.8-.5-.9c-.3-.1-.5-.4-.5-.7s-.2-.6-.5-.7c-.3-.1-.5-.4-.5-.7 0-.3-.2-.5-.4-.5-.4 0-1.8-1.3-1.8-1.7 0-.2-.4-.3-.9-.4-1.2-.1-1.6-.4-1.4-.8.1-.2 0-.3-.2-.3-.9 0 .6-1.1 1.6-1.1.6-.1.9-.2.8-.5-.1-.3.1-.5.4-.5.3 0 .8-.3 1.1-.6.5-.6.5-.6.3.1l-.2.7.4-.7c.2-.4.7-.8.9-1 .3-.2.5-.6.5-1s.2-.7.5-.7c.4 0 .5-.4.5-1s.2-1.1.5-1.2c.3-.1.5-1 .6-2.6.1-1.3.2-2.6.3-2.8.5-.8.6-1.7.7-7.8.1-5.4 0-6.3-.4-6.3s-.5-.5-.5-2.1c0-2.8-.2-4.1-.7-4.4-.2-.1-.4-.8-.4-1.6-.1-.8-.3-1.4-.6-1.5-.3-.1-.5-.6-.5-1 0-.5-.2-.9-.5-.9s-.5-.3-.5-.7c0-.4-.2-.7-.5-.7s-.5-.3-.5-.6-.2-.9-.4-1.2c-.3-.5-.4-.4-.2.1.3 1-.1.7-.7-.5-.3-.6-.5-.8-.4-.4.2.7.2.7-.3.1-.3-.3-.7-.6-.9-.6-.2 0-.4-.2-.4-.5s-.2-.5-.5-.5-.7-.2-.9-.5c-.2-.3-.7-.5-1.1-.5-.4 0-.8-.2-.9-.5-.2-.3-.9-.6-1.7-.6-.8-.1-1.4-.3-1.4-.5.1-.3-1.3-.4-4.6-.5-3.7 0-4.8-.2-5-.6-.7-.9-34.1-1.2-34.6-.6m66.3.5c-.1.4-.2 23-.1 50.1l.1 49.3 11.5.1 11.5.1v-20.2c0-17.9.1-24.2.4-17.9 0 1.2.2 2 .5 2 .2 0 .4.6.5 1.5.1.9.3 1.7.5 1.8.2.1.4.8.4 1.5 0 .8.2 1.4.5 1.5.3.1.5.8.5 1.9 0 1 .1 1.7.3 1.7.4 0 1 1.7.9 2.7 0 .4.2.9.5 1.1.3.2.5 1 .5 1.9 0 .9.2 1.7.5 2 .3.3.6 1.1.6 1.9 0 .7.3 1.4.5 1.5.3.1.4.8.4 1.7 0 1.2.1 1.6.5 1.6s.5.4.5 1.6c0 2 .3 3 .8 2.3.2-.3.3.1.3 1 0 1.7.3 2.7.8 2.4.2-.1.3.6.3 1.6 0 1.4.1 1.8.5 1.8.3 0 .5.2.5.5 0 .5 1.5.5 12.1.4l12.1-.1.1-50.1.1-50.1-11.5.1-11.5.1-.1 18.5c-.1 16.1-.2 18.5-.6 18.5-.4 0-.5-.4-.5-1.6 0-1.3-.1-1.6-.5-1.4-.4.2-.5-.1-.5-1.4 0-1.1-.2-1.7-.5-1.8-.4-.1-.5-.7-.5-1.8 0-1.2-.1-1.6-.5-1.6-.5 0-.8-1.6-.6-2.9 0-.1-.2-.2-.4-.2-.3.1-.5-.5-.6-1.6-.1-1.2-.3-1.7-.6-1.7-.4 0-.5-.4-.5-1.6 0-1.2-.1-1.6-.5-1.6s-.5-.5-.5-2c0-1.4-.1-1.9-.4-1.9-.3.1-.5-.5-.6-1.6-.1-.9-.3-1.7-.5-1.7s-.4-.7-.5-1.6c-.1-1.1-.3-1.6-.6-1.6-.4 0-.5-.4-.5-1.6 0-1.3-.1-1.6-.5-1.4-.4.2-.5-.1-.5-1.6 0-1.3-.1-1.8-.5-1.8-.3 0-.5-.2-.5-.5 0-.5-1.5-.5-11.4-.5h-11.4l-.8.7m-374 13v6.2l-2.6.1-2.6.1-.1 6.6c-.1 7.3 0 8.2.9 8.1h2.5l1.9.1v27.7c0 24.3.1 27.7.5 27.9.3.1.5.6.5 1 0 1.1 1.1 3.3 1.7 3.4.2 0 .4.2.4.5s.2.5.5.5.5.2.5.5.2.5.5.5.5.2.5.5c0 .4.4.5 1.1.5.7 0 1.1.2 1.1.5 0 .4.4.5 1.6.5.9 0 1.5.1 1.4.3-.4.6 1.1.7 12.5.7H445v-14.6h-3c-2.2 0-3.2-.1-3-.4.1-.2-.1-.5-.5-.6-.4-.1-.7-.3-.5-.5.1-.2-.1-.4-.4-.5-.5-.2-.6-2.8-.6-24.4v-24.2l2.9-.2c1.6-.1 3.2-.2 3.6-.2.6 0 .6-.6.6-7.3v-7.3H437v-12.4h-26.4v6.4m60.3 2.7c0 .2-1.2.4-3 .4-2.3 0-3 .1-3.2.5-.1.4-.7.5-1.8.5-1.2 0-1.6.1-1.6.5 0 .3-.3.5-.7.5-.4 0-.9.2-1.2.5-.3.3-.9.6-1.5.8-.5.1-.9.4-.9.6 0 .2-.3.3-.7.3-.4 0-.7.2-.7.5s-.1.5-.3.4c-.1 0-.6.2-.9.4-1.6 1.3-2 1.8-1.8 2.2.1.2 0 .3-.3.3s-.6.3-.6.7c0 .4-.2.7-.6.7-.4 0-.5.2-.4.5.1.3 0 .5-.3.5s-.4.2-.3.4c.1.2 0 .4-.2.4s-.3.1-.2.3c.1.2-.1.7-.5 1.2s-.7 1-.7 1.1c.1 1.5-.1 2.3-.5 2.3-.3 0-.5.2-.5.4.3 2.1-.1 5.6-.6 5.6s-.5 2.5-.5 20.9c0 17.8.1 20.9.5 20.9s.5.6.5 2.7.1 2.7.5 2.7c.5 0 .7.8.6 2.2 0 .3.2.7.5.8.3.1.6.6.6 1s.2.9.5 1c.3.1.5.4.5.8 0 .3.2.5.3.5.2 0 .2.3.1.6-.2.4-.1.5.2.3.2-.1.4-.1.4.1s.4.8.9 1.3.9.9.9.7c0-.1.2 0 .5.2s.4.6.3.8c-.1.2.2.3.7.3.6 0 .9.2.9.5s.3.5.7.5c.4 0 .6.1.5.3-.3.4.6.8 1.9.8.6 0 1.1.2 1.2.5.1.4.7.5 1.6.5 1 0 1.4.2 1.4.5 0 .4.8.5 3.1.6 2.4 0 3.2.2 3.6.7.4.5.4.5.5.1 0-.4.1-.4.3-.1.2.3 1.7.4 5 .4 2.6 0 4.6-.1 4.5-.3-.3-.5.8-.7 3.2-.7 1.6 0 2.4-.2 2.7-.5.3-.3 1.1-.5 2.2-.5 1 0 1.7-.1 1.6-.3-.2-.3 1.1-.9 1.8-.8.2 0 .5-.2.6-.5.1-.3.5-.5.8-.5.3 0 .5-.2.5-.5 0-.5.6-.7 1.7-.6.2 0 .4-.2.4-.5s.2-.6.5-.6.5-.2.5-.5.2-.5.5-.5.5-.2.5-.5.2-.5.5-.5.5-.2.5-.4.2-.6.5-.9c.3-.3.5-.8.5-1.2 0-.4.2-.7.5-.7.4 0 .5-.4.5-1.1s.2-1.1.5-1.1.5-.4.5-1.1.2-1.1.5-1.1c.4 0 .5-.5.5-1.9s.2-2 .5-2.1c.8-.3.8-47.4 0-47.4-.4 0-.5-.4-.5-1.6 0-1.2-.1-1.6-.5-1.6s-.5-.4-.5-1.1-.2-1.1-.5-1.1-.5-.3-.5-.9c0-.5-.2-1-.5-1.1-.3-.1-.6-.6-.7-1.1-.3-1.1-1.3-2.3-1.7-2.1-.2.1-.3-.2-.3-.6 0-.5-.2-.7-.5-.6-.3.1-.6-.1-.8-.5-.2-.6-.3-.6-.5-.3-.2.4-.3.4-.3 0 0-.2-.2-.5-.5-.5-.2 0-.8-.5-1.3-1.1-.5-.6-1.2-1.1-1.7-1.1s-.8-.1-.6-.3c.1-.2-.4-.4-1-.5-.7-.1-1.3-.4-1.3-.6-.1-.2-.7-.4-1.3-.6-.7-.1-1.5-.4-2-.7-.4-.3-2-.5-3.8-.5-1.7 0-3.2-.2-3.4-.4.1.1-7.5.1-7.5.6m-359.4 3c.1.3.6.6 1.2.6.6.1 1 .3.9.6 0 .2.1.4.4.4.5 0 .7.6.6 1.7 0 .2.2.4.5.4.8 0 .8 10.6 0 10.9-.3.1-.5.7-.5 1.6 0 1-.1 1.4-.6 1.4-.4 0-.5.2-.4.5.2.4-.1.5-1.4.5-1.2 0-1.6.1-1.6.5 0 .3-.3.5-.7.5-.7 0-.7-.2-.7-10.2v-10.2h1c.7.3 1.2.5 1.3.8m635.6 0c.4.3 1.1.5 1.7.5.8 0 1 .2 1.2 1.1.1.6.4 1.1.6 1.1.2 0 .3 2.8.2 7.1-.1 5.4-.2 7-.5 7-.3-.1-.4.3-.4 1 0 1-.1 1.1-1.6 1.1-1.2 0-1.6.1-1.6.5 0 .3-.2.5-.5.5-.5 0-.5-1.4-.5-10.2-.2-10.8-.2-10.9 1.4-9.7M477 360.3c0 .4.2.9.5 1.1.7.5.8 48.7.2 49.1-.2.1-.3.4-.2.6.1.2 0 .3-.2.3s-.4.2-.4.5c0 .4-.4.5-1.1.5-.7 0-1.1-.2-1.1-.6 0-.3-.1-.5-.3-.4-.5.3-.7-.2-.8-1.9-.1-.9-.3-1.5-.6-1.5-.4 0-.5-4.3-.5-22.9 0-20.1.1-22.9.5-22.9s.5-.4.5-1.1c0-.7.2-1.1.6-1.1.3 0 .5-.2.3-.4-.1-.2.3-.4 1-.4 1.4.4 1.6.5 1.6 1.1m-248.1 5.9c0 5 .1 5.9.5 5.9s.9 9 .6 11.2c0 .1.2.3.5.3.4 0 .5.6.5 3.4v3.4h-3.3c-2.2 0-3.1-.1-2.7-.3.5-.3.6-1.2.6-5.7.1-3.9.2-5.5.6-5.9.3-.3.5-1.7.5-4.9 0-3.4.2-4.5.6-4.8.4-.3.5-1.3.5-4.4 0-3.3.1-4 .5-4 .5-.1.6.8.6 5.8m453.2-.7c0 1.1.2 2.1.4 2.2.3.2.4 2.1.5 5.6.1 3.8.2 5.5.6 5.7.3.3.5 1.8.5 5.1 0 3.1.2 4.7.4 4.7s.3.1.1.2c-.1.1-.1.5.2.7.3.4-.2.5-2.9.5h-3.3v-3.9c0-3 .1-3.9.4-3.8.3.1.5-1.1.5-4.6.1-3.9.2-4.7.6-4.7.4 0 .5-.8.5-4.8 0-3.5.1-4.8.4-4.9 1-.3 1.1-.1 1.1 2" fill="#ffd105"/></svg>