<svg id="katman_1" xmlns="http://www.w3.org/2000/svg" viewBox="0 0 850.4 850.4"><style>.st0{fill:#5b5b5b}.st1{font-family:&apos;MaturaMTScriptCapitals&apos;}.st2{font-size:131.0725px}</style><text transform="matrix(.6236 0 0 1 138.412 394.73)"><tspan x="0" y="0" class="st0 st1 st2">web site you are</tspan></text><text transform="matrix(.6236 0 0 1 130.136 530.16)" class="st0 st1 st2">currently visiting</text><path d="M36 279.2c5.6 36.3 11.2 44.7 11.2 81.1 0 22.4-41.9 41.9-41.9 41.9v28s41.9 19.6 41.9 41.9c0 36.3-5.6 44.7-11.2 81.1-8.4 58.7 22.4 86.7 50.3 86.7H145V584s-50.3 5.6-50.3-28c0-25.2 5.6-25.2 11.2-81.1 2.8-25.2-14-44.7-30.8-58.7 16.8-14 33.5-30.8 30.8-55.9-8.4-55.9-11.2-55.9-11.2-81.1 0-33.5 50.3-30.8 50.3-30.8v-55.9H86.3c-30.7 0-58.7 28-50.3 86.7zm778.5-.2c-5.6 36.2-11.2 44.6-11.2 80.8 0 22.3 41.8 41.8 41.8 41.8v27.9s-41.8 19.5-41.8 41.8c0 36.2 5.6 44.6 11.2 80.8 8.4 58.5-22.3 86.4-50.2 86.4h-58.5v-55.8s50.2 5.6 50.2-27.9c0-25.1-5.6-25.1-11.2-80.8-2.8-25.1 13.9-44.6 30.7-58.5-16.7-13.9-33.5-30.7-30.7-55.8 5.6-55.8 11.2-55.8 11.2-80.8 0-33.5-50.2-30.7-50.2-30.7v-55.8h58.5c30.6 0 58.6 28 50.2 86.6z" fill="#45bdff"/></svg>