<svg id="Layer_1" xmlns="http://www.w3.org/2000/svg" viewBox="0 0 1417.3 1417.3"><style>.st3{fill:#293d7c}.st4{fill:#eef6ff}.st5{fill:#fe3745}.st6{fill:#b7092b}.st10{fill:#fff}.st11{fill:#ffe2b8}.st12{fill:#ffc987}.st15{fill:#ffaf10}.st16{fill:#ef9614}.st17{fill:#ffd00d}</style><circle cx="689.9" cy="735.7" r="534.5" fill="#91e0e8"/><path d="M279.7 511.7h-75.3c-31.5 68.1-49.1 144-49.1 224 0 9.5.3 18.9.7 28.3h123.6V511.7z" fill="#445ea0"/><path class="st3" d="M1061.6 902h-46.9v176.4h46.9c12 0 21.8-9.8 21.8-21.8V923.8c0-12-9.8-21.8-21.8-21.8z"/><path class="st4" d="M770 893.8v192.9l180.5 107.6V786.1z"/><path class="st5" d="M1016.9 1228.9c0 6-4.9 10.9-10.9 10.9h-46.8c-6 0-10.9-4.9-10.9-10.9V751.6c0-6 4.9-10.9 10.9-10.9h46.8c6 0 10.9 4.9 10.9 10.9v477.3z"/><path class="st6" d="M985.8 1228.9V751.6c0-6 4.9-10.9 10.9-10.9h-37.5c-6 0-10.9 4.9-10.9 10.9v477.3c0 6 4.9 10.9 10.9 10.9h37.5c-6 0-10.9-4.9-10.9-10.9z"/><path class="st4" d="M571.9 909.4h-50.6c-6 0-10.9 4.9-10.9 10.9v139.8c0 6 4.9 10.9 10.9 10.9h50.6V909.4z"/><path d="M542.1 1060.1V920.3c0-6 4.9-10.9 10.9-10.9h-31.7c-6 0-10.9 4.9-10.9 10.9v139.8c0 6 4.9 10.9 10.9 10.9H553c-6 0-10.9-4.9-10.9-10.9z" fill="#d9eafc"/><path class="st5" d="M772.1 1087.7c0 6-4.9 10.9-10.9 10.9H580.6c-6 0-10.9-4.9-10.9-10.9v-195c0-6 4.9-10.9 10.9-10.9h180.6c6 0 10.9 4.9 10.9 10.9v195z"/><path class="st6" d="M613 1087.7v-195c0-6 4.9-10.9 10.9-10.9h-43.3c-6 0-10.9 4.9-10.9 10.9v195c0 6 4.9 10.9 10.9 10.9h43.3c-6 0-10.9-4.9-10.9-10.9z"/><path d="M1212.5 348.7c0-6-4.9-10.9-10.9-10.9H903.9c-6 0-10.9 4.9-10.9 10.9v207.2c0 6 4.9 10.9 10.9 10.9h89.9c6 0 13.8 3.9 17.4 8.7l35 46.8c3.6 4.8 9.5 4.8 13.1 0l35-46.8c3.6-4.8 11.4-8.7 17.4-8.7h89.9c6 0 10.9-4.9 10.9-10.9V348.7z" fill="#52bbef"/><path d="M936.2 555.9V348.7c0-6 4.9-10.9 10.9-10.9h-43.3c-6 0-10.9 4.9-10.9 10.9v207.2c0 6 4.9 10.9 10.9 10.9h43.3c-6 0-10.9-4.9-10.9-10.9z" fill="#1e99d6"/><path class="st10" d="M1146.2 418.7h-187c-9 0-16.4-7.3-16.4-16.4 0-9 7.3-16.4 16.4-16.4h186.9c9 0 16.4 7.3 16.4 16.4 0 9.1-7.3 16.4-16.3 16.4zm0 50.8h-187c-9 0-16.4-7.3-16.4-16.4 0-9 7.3-16.4 16.4-16.4h186.9c9 0 16.4 7.3 16.4 16.4 0 9-7.3 16.4-16.3 16.4zm-93.1 50.7h-93.8c-9 0-16.4-7.3-16.4-16.4s7.3-16.4 16.4-16.4h93.8c9 0 16.4 7.3 16.4 16.4s-7.4 16.4-16.4 16.4z"/><circle class="st5" cx="740.1" cy="294.1" r="121.3"/><path class="st6" d="M662 294.1c0-59.6 43-109.1 99.7-119.4-7-1.3-14.3-2-21.6-2-67 0-121.3 54.3-121.3 121.3s54.3 121.3 121.3 121.3c7.4 0 14.6-.7 21.6-2-56.6-10.1-99.7-59.6-99.7-119.2z"/><path class="st10" d="M739.9 360.9c-2 0-3.8-.8-5.2-2.2l-57.3-57.8c-6.9-7-10.7-16.2-10.7-26.1 0-9.9 3.8-19.1 10.7-26.1 6.9-7 16.1-10.8 25.9-10.8 9.8 0 19 3.8 25.9 10.8l10.9 11 10.9-11c6.9-7 16.1-10.8 25.9-10.8 9.8 0 19 3.8 25.9 10.8 6.9 7 10.7 16.3 10.7 26.1s-3.8 19.1-10.7 26.1L745 358.7c-1.3 1.4-3.2 2.2-5.1 2.2z"/><path class="st5" d="M323.7 966.8c-1.7 0-3.2-.7-4.4-1.8l-48.4-48.8c-5.8-5.9-9-13.7-9-22s3.2-16.2 9-22c5.8-5.9 13.6-9.1 21.9-9.1 8.3 0 16 3.2 21.9 9.1l9.2 9.3 9.2-9.3c5.8-5.9 13.6-9.1 21.9-9.1 8.3 0 16 3.2 21.9 9.1 5.8 5.9 9.1 13.7 9.1 22s-3.2 16.2-9.1 22L328.1 965c-1.2 1.1-2.7 1.8-4.4 1.8z"/><path class="st6" d="M295.3 906c-5.8-5.9-9-13.7-9-22.1 0-7.8 2.9-15.2 8-20.9-.5 0-1-.1-1.5-.1-8.3 0-16 3.2-21.9 9.1-5.8 5.9-9 13.7-9 22s3.2 16.2 9 22l48.4 48.8c1.2 1.2 2.7 1.8 4.4 1.8 1.7 0 3.2-.6 4.4-1.8L341 952l-45.7-46z"/><path class="st11" d="M561.5 778.7v-30.1c0-16.8 13.7-30.5 30.5-30.5h7.1c1.2 0 2.2-1 2.2-2.2s-1-2.2-2.2-2.2c-16.8 0-30.5-13.7-30.5-30.5V653c0-16.8 13.7-30.5 30.5-30.5 1.2 0 2.2-1 2.2-2.2s-1-2.2-2.2-2.2c-16.8 0-30.5-13.7-30.5-30.5v-30.1c0-16.8 13.7-30.5 30.5-30.5 1.2 0 2.2-1 2.2-2.2s-1-2.2-2.2-2.2h-13.5c-16.8 0-30.5-13.7-30.5-30.5V462c0-15 10.8-27.4 25-30V314.6c0-18-14.7-32.7-32.7-32.7h-50.9c-18 0-34.7 14.6-37.1 32.4l-20.5 150.4c-2.4 17.8-15.3 32.3-28.6 32.4v283.6h151.3c0-.6-.1-1.3-.1-2z"/><path class="st12" d="M547.4 281.9h-50.9c-18 0-34.7 14.6-37.1 32.4l-20.5 150.4c-2.4 17.8-15.3 32.3-28.6 32.4v43.3h43.1c13.4 0 26.3-14.6 28.7-32.4l20.5-150.4c2.4-17.8 19.1-32.4 37.1-32.4H580v-10.6c.2-18-14.6-32.7-32.6-32.7z"/><path class="st11" d="M592.1 811.4c-18 0-32.7-14.7-32.7-32.7v-30.1c0-18 14.7-32.7 32.7-32.7h177.5c18 0 32.7 14.7 32.7 32.7v30.1c0 18-14.7 32.7-32.7 32.7H592.1z"/><path class="st3" d="M288.4 816.3c-6 0-10.9-4.9-10.9-10.9V470.2c0-6 4.9-10.9 10.9-10.9h113.1c6 0 10.9 4.9 10.9 10.9v335.2c0 6-4.9 10.9-10.9 10.9H288.4z"/><path d="M320.8 805.4V470.2c0-6 4.9-10.9 10.9-10.9h-43.3c-6 0-10.9 4.9-10.9 10.9v335.2c0 6 4.9 10.9 10.9 10.9h43.3c-6 0-10.9-4.9-10.9-10.9z" fill="#1a2b63"/><circle cx="345" cy="512.7" r="29.2" fill="#aec1ed"/><path class="st11" d="M585.7 524.7c-18 0-32.7-14.7-32.7-32.7v-30.1c0-18 14.7-32.7 32.7-32.7h183.9c18 0 32.7 14.7 32.7 32.7V492c0 18-14.7 32.7-32.7 32.7H585.7zm13.4 95.6c-18 0-32.7-14.7-32.7-32.7v-30.1c0-18 14.7-32.7 32.7-32.7h178.4c18 0 32.7 14.7 32.7 32.7v30.1c0 18-14.7 32.7-32.7 32.7H599.1zm0 95.6c-18 0-32.7-14.7-32.7-32.7V653c0-18 14.7-32.7 32.7-32.7h178.4c18 0 32.7 14.7 32.7 32.7v30.1c0 18-14.7 32.7-32.7 32.7H599.1z"/><path class="st12" d="M625.8 777.7c-18 0-32.7-14.7-32.7-32.7v-29.1h-1c-18 0-32.7 14.7-32.7 32.7v30.1c0 18 14.7 32.7 32.7 32.7h177.5c18 0 32.7-14.7 32.7-32.7v-1H625.8zM619.3 491c-18 0-32.7-14.7-32.7-32.7v-29.2h-1c-18 0-32.7 14.7-32.7 32.7V492c0 18 14.7 32.7 32.7 32.7h183.9c18 0 32.7-14.7 32.7-32.7v-1H619.3z"/><path class="st12" d="M632.8 586.6c-18 0-32.7-14.7-32.7-32.7v-29.2h-1c-18 0-32.7 14.7-32.7 32.7v30.1c0 18 14.7 32.7 32.7 32.7h178.4c18 0 32.7-14.7 32.7-32.7v-1l-177.4.1zm0 95.6c-18 0-32.7-14.7-32.7-32.7v-29.1h-1c-18 0-32.7 14.7-32.7 32.7v30.1c0 18 14.7 32.7 32.7 32.7h178.4c18 0 32.7-14.7 32.7-32.7v-1H632.8z"/><path class="st15" d="M421.5 1013H226.3c-2.4 0-4.3 2-4.3 4.4v125.2c0 2.4 2 4.4 4.3 4.4h195.2c2.4 0 4.3-2 4.3-4.4v-125.2c0-2.4-1.9-4.4-4.3-4.4z"/><path class="st16" d="M265.3 1142.6v-95.4l-42.2-32.6c.2-.2.4-.4.7-.6-1 .8-1.7 2-1.7 3.4v125.2c0 2.4 2 4.4 4.3 4.4h43.3c-2.5 0-4.4-2-4.4-4.4z"/><path class="st17" d="M421.5 1013H226.3c-1.3 0-2.5.6-3.3 1.6l97.4 75.3c1.9 1.5 5 1.5 6.9 0l97.4-75.3c-.7-.9-1.9-1.6-3.2-1.6z"/><path class="st15" d="M1268.1 669.4h-195.2c-2.4 0-4.3 2-4.3 4.4V799c0 2.4 2 4.4 4.3 4.4h195.2c2.4 0 4.3-2 4.3-4.4V673.8c0-2.4-2-4.4-4.3-4.4z"/><path class="st16" d="M1111.8 799v-95.4l-42.2-32.6c.2-.2.4-.4.7-.6-1 .8-1.7 2-1.7 3.4V799c0 2.4 2 4.4 4.3 4.4h43.3c-2.4 0-4.4-2-4.4-4.4z"/><path class="st17" d="M1268.1 669.4h-195.2c-1.3 0-2.5.6-3.3 1.6l97.4 75.3c1.9 1.5 5 1.5 6.9 0l97.4-75.3c-.7-.9-1.9-1.6-3.2-1.6z"/></svg>