<svg id="Layer_1" xmlns="http://www.w3.org/2000/svg" viewBox="0 0 1417.3 1417.3"><style>.st2{fill:#ffaf10}.st9{fill:#52bbef}.st10{fill:#fe3745}.st11{fill:#91e0e8}.st12{fill:#37c47a}</style><circle cx="724.2" cy="763.2" r="491.3" fill="#445ea0"/><path class="st2" d="M412.8 1073.3c-5.5 0-10-4.5-10-10V370.7h-66.3c-5.5 0-10 4.5-10 10v670.9c26.8 36.9 58.6 70 94.4 98.1h554.3c5.5 0 10-4.5 10-10v-66.3l-572.4-.1z"/><path d="M364.5 380.7c0-5.5 4.5-10 10-10h-38.1c-5.5 0-10 4.5-10 10v670.9c11.8 16.2 24.5 31.7 38.1 46.3V380.7z" fill="#ef9614"/><path d="M479 1001.2c-5.5 0-10-4.5-10-10V300h-61.8c-5.5 0-10 4.5-10 10v759c0 5.5 4.5 10 10 10h638.7c5.5 0 10-4.5 10-10v-67.8H479z" fill="#ff9518"/><path d="M433.2 1069V310c0-5.5 4.5-10 10-10h-36.1c-5.5 0-10 4.5-10 10v759c0 5.5 4.5 10 10 10h36.1c-5.5 0-10-4.5-10-10z" fill="#ef8318"/><path d="M1122 996.8c0 5.5-4.5 10-10 10H473.3c-5.5 0-10-4.5-10-10v-759c0-5.5 4.5-10 10-10H1112c5.5 0 10 4.5 10 10v759z" fill="#d9eafc"/><path d="M503 996.8v-759c0-5.5 4.5-10 10-10h-39.8c-5.5 0-10 4.5-10 10v759c0 5.5 4.5 10 10 10H513c-5.5 0-10-4.5-10-10z" fill="#c3ddf4"/><path d="M1043.2 329.6H903.7c-8.3 0-15-6.7-15-15s6.7-15 15-15h139.5c8.3 0 15 6.7 15 15 .1 8.3-6.7 15-15 15zm0 51.2H903.7c-8.3 0-15-6.7-15-15s6.7-15 15-15h139.5c8.3 0 15 6.7 15 15 .1 8.2-6.7 15-15 15zm0 51.1H903.7c-8.3 0-15-6.7-15-15s6.7-15 15-15h139.5c8.3 0 15 6.7 15 15 .1 8.3-6.7 15-15 15zm0 51.1H903.7c-8.3 0-15-6.7-15-15s6.7-15 15-15h139.5c8.3 0 15 6.7 15 15 .1 8.3-6.7 15-15 15z" fill="#db722c"/><path class="st9" d="M783.1 840h-235c-8.3 0-15-6.7-15-15s6.7-15 15-15h235c8.3 0 15 6.7 15 15 .1 8.3-6.7 15-15 15zm0 51.1h-235c-8.3 0-15-6.7-15-15s6.7-15 15-15h235c8.3 0 15 6.7 15 15 .1 8.3-6.7 15-15 15zm0 51.2h-235c-8.3 0-15-6.7-15-15s6.7-15 15-15h235c8.3 0 15 6.7 15 15 .1 8.2-6.7 15-15 15z"/><path class="st10" d="M1043.2 572.3h-214c-8.3 0-15-6.7-15-15s6.7-15 15-15h214c8.3 0 15 6.7 15 15s-6.7 15-15 15zm0 51.1h-214c-8.3 0-15-6.7-15-15s6.7-15 15-15h214c8.3 0 15 6.7 15 15s-6.7 15-15 15zm0 51.1h-214c-8.3 0-15-6.7-15-15s6.7-15 15-15h214c8.3 0 15 6.7 15 15 .1 8.3-6.7 15-15 15zm0 51.2h-214c-8.3 0-15-6.7-15-15s6.7-15 15-15h214c8.3 0 15 6.7 15 15s-6.7 15-15 15zm-522-65.2h58.6c0-32.4 26.3-58.6 58.6-58.6v-58.6c-64.7-.1-117.2 52.4-117.2 117.2z"/><path class="st11" d="M668.2 513.4V572c32.4 0 58.6 26.3 58.6 58.6h58.6c.1-64.7-52.4-117.2-117.2-117.2z"/><path class="st2" d="M697.1 660.5c0 32.4-26.3 58.6-58.6 58.6-32.4 0-58.6-26.3-58.6-58.6h-58.6c0 64.8 52.5 117.3 117.3 117.3s117.3-52.5 117.3-117.3h-58.8zM588.5 458.6v-140c0-3.3-2.7-6-6-6H546c-3.3 0-6 2.7-6 6v140h48.5z"/><path class="st10" d="M667 458.6V356.7c0-3.3-2.7-6-6-6h-36.5c-3.3 0-6 2.7-6 6v101.9H667z"/><path class="st12" d="M745.4 458.6v-55.8c0-3.3-2.7-6-6-6h-36.5c-3.3 0-6 2.7-6 6v55.8h48.5z"/><path class="st11" d="M823.9 458.6v-140c0-3.3-2.7-6-6-6h-36.5c-3.3 0-6 2.7-6 6v140h48.5z"/><path class="st10" d="M972 868.9c0-3.3 2.7-6 6-6h27.2v-67.3c0-5.5-4.5-10-10-10h-90.5c-5.5 0-10 4.5-10 10v90.5c0 5.5 4.5 10 10 10H972v-27.2z"/><path class="st12" d="M1043.2 924.1c0 5.5-4.5 10-10 10h-55.1c-5.5 0-10-4.5-10-10V869c0-5.5 4.5-10 10-10h55.1c5.5 0 10 4.5 10 10v55.1z"/><path class="st9" d="M834.2 483H529.7c-8.3 0-15-6.7-15-15s6.7-15 15-15h304.6c8.3 0 15 6.7 15 15s-6.8 15-15.1 15z"/></svg>