<svg xmlns="http://www.w3.org/2000/svg" viewBox="0 0 648 530.4"><path d="M230.1 342h-51.2c-4.7 0-8.5 3.8-8.5 8.5v51.2c0 4.7 3.8 8.5 8.5 8.5h51.2c4.7 0 8.5-3.8 8.5-8.5v-51.2c.1-4.7-3.8-8.5-8.5-8.5zm-8.5 51.2h-34.1v-34.1h34.1v34.1zm128-170.7h-51.2c-4.7 0-8.5 3.8-8.5 8.5v51.2c0 4.7 3.8 8.5 8.5 8.5h51.2c4.7 0 8.5-3.8 8.5-8.5V231c0-4.7-3.8-8.5-8.5-8.5zm-8.5 51.2H307v-34.1h34.1v34.1z"/><path d="M298.4 248.1C241.9 248.1 196 294 196 350.5c0 4.7 3.8 8.5 8.5 8.5s8.5-3.8 8.5-8.5c0-47.1 38.3-85.3 85.3-85.3 4.7 0 8.5-3.8 8.5-8.5.1-4.8-3.7-8.6-8.4-8.6zM469.1 342h-51.2c-4.7 0-8.5 3.8-8.5 8.5v51.2c0 4.7 3.8 8.5 8.5 8.5h51.2c4.7 0 8.5-3.8 8.5-8.5v-51.2c0-4.7-3.8-8.5-8.5-8.5zm-8.6 51.2h-34.1v-34.1h34.1v34.1z"/><path d="M349.6 248.1c-4.7 0-8.5 3.8-8.5 8.5s3.8 8.5 8.5 8.5c47.1 0 85.3 38.3 85.3 85.3 0 4.7 3.8 8.5 8.5 8.5s8.5-3.8 8.5-8.5c.1-56.3-45.8-102.3-102.3-102.3zm-51.2 0H178.9c-4.7 0-8.5 3.8-8.5 8.5s3.8 8.5 8.5 8.5h119.5c4.7 0 8.5-3.8 8.5-8.5s-3.8-8.5-8.5-8.5z"/><path d="M469.1 248.1H349.6c-4.7 0-8.5 3.8-8.5 8.5s3.8 8.5 8.5 8.5h119.5c4.7 0 8.5-3.8 8.5-8.5s-3.8-8.5-8.5-8.5z"/><path d="M541.6 9.2H106.4C85.2 9.2 68 26.4 68 47.6v435.2c0 21.2 17.2 38.4 38.4 38.4h435.2c21.2 0 38.4-17.2 38.4-38.4V47.6c0-21.2-17.2-38.4-38.4-38.4zm21.3 473.6c0 11.8-9.6 21.3-21.3 21.3H106.4c-11.8 0-21.3-9.6-21.3-21.3V47.6c0-11.8 9.6-21.3 21.3-21.3h435.2c11.8 0 21.3 9.6 21.3 21.3v435.2z"/><path d="M144.8 43.3h-34.1c-4.7 0-8.5 3.8-8.5 8.5V86c0 4.7 3.8 8.5 8.5 8.5h34.1c4.7 0 8.5-3.8 8.5-8.5V51.9c0-4.8-3.8-8.6-8.5-8.6zm-8.5 34.2h-17.1V60.4h17.1v17.1zm76.8-34.2H179c-4.7 0-8.5 3.8-8.5 8.5V86c0 4.7 3.8 8.5 8.5 8.5h34.1c4.7 0 8.5-3.8 8.5-8.5V51.9c0-4.8-3.8-8.6-8.5-8.6zm-8.6 34.2h-17.1V60.4h17.1v17.1zm76.8-34.2h-34.1c-4.7 0-8.5 3.8-8.5 8.5V86c0 4.7 3.8 8.5 8.5 8.5h34.1c4.7 0 8.5-3.8 8.5-8.5V51.9c.1-4.8-3.8-8.6-8.5-8.6zm-8.5 34.2h-17.1V60.4h17.1v17.1z"/><path d="M541.6 9.2H106.4C85.2 9.2 68 26.4 68 47.6v72.5c0 4.7 3.8 8.5 8.5 8.5h494.9c4.7 0 8.5-3.8 8.5-8.5V47.6c.1-21.2-17.1-38.4-38.3-38.4zm21.3 102.4H85.1v-64c0-11.8 9.6-21.3 21.3-21.3h435.2c11.8 0 21.3 9.6 21.3 21.3v64zm-25.6 34.1H110.7c-4.7 0-8.5 3.8-8.5 8.5v324.3c0 4.7 3.8 8.5 8.5 8.5h426.7c4.7 0 8.5-3.8 8.5-8.5V154.3c0-4.8-3.9-8.6-8.6-8.6zM528.8 470H119.2V162.8h409.6V470z"/><path d="M178.9 179.9h-34.1c-4.7 0-8.5 3.8-8.5 8.5v34.1c0 4.7 3.8 8.5 8.5 8.5s8.5-3.8 8.5-8.5v-25.6h25.6c4.7 0 8.5-3.8 8.5-8.5s-3.8-8.5-8.5-8.5zm324.3 221.8c-4.7 0-8.5 3.8-8.5 8.5v25.6h-25.6c-4.7 0-8.5 3.8-8.5 8.5s3.8 8.5 8.5 8.5h34.1c4.7 0 8.5-3.8 8.5-8.5v-34.1c0-4.7-3.8-8.5-8.5-8.5zm-122-40.1L330 310.4c-3.3-3.3-8.7-3.3-12.1 0l-51.2 51.2c-2.4 2.4-3.2 6.1-1.9 9.3 1.3 3.2 4.4 5.3 7.9 5.3 9.3 0 25.6 16.3 25.6 25.6 0 4.7 3.8 8.5 8.5 8.5h34.1c4.7 0 8.5-3.8 8.5-8.5 0-9.3 16.3-25.6 25.6-25.6 3.5 0 6.6-2.1 7.9-5.3s.8-6.9-1.7-9.3zM334 393.2h-20c-3.7-11.4-14.1-23.1-25.3-29.4l35.3-35.3 35.3 35.3c-11.2 6.3-21.6 18-25.3 29.4z"/><path d="M341.1 393.2H307c-4.7 0-8.5 3.8-8.5 8.5v34.1c0 4.7 3.8 8.5 8.5 8.5h34.1c4.7 0 8.5-3.8 8.5-8.5v-34.1c0-4.7-3.8-8.5-8.5-8.5zm-8.6 34.1h-17.1v-17.1h17.1v17.1zM324 307.9c-4.7 0-8.5 3.8-8.5 8.5v34.1c0 4.7 3.8 8.5 8.5 8.5s8.5-3.8 8.5-8.5v-34.1c0-4.7-3.8-8.5-8.5-8.5z"/></svg>