<svg xmlns="http://www.w3.org/2000/svg" viewBox="0 0 648 530.4"><path d="M578.4 46.4C578.4 25.2 561.2 8 540 8H104.8C83.6 8 66.4 25.2 66.4 46.4v147c5.3-4.8 11.4-8.5 17.1-12.6V46.4c0-11.8 9.6-21.3 21.3-21.3H540c11.8 0 21.3 9.6 21.3 21.3v138.4c5.5 3.2 11.2 6.5 17.1 9V46.4zm-17.1 299.1v136.1c0 11.8-9.6 21.3-21.3 21.3H104.8c-11.8 0-21.3-9.6-21.3-21.3V344.4c-5.3 2.7-11 4.6-17.1 4.8v132.5c0 21.2 17.2 38.4 38.4 38.4H540c21.2 0 38.4-17.2 38.4-38.4V350c-5.7-1.4-11.1-4.9-17.1-4.5z"/><path d="M143.2 42.1h-34.1c-4.7 0-8.5 3.8-8.5 8.5v34.1c0 4.7 3.8 8.5 8.5 8.5h34.1c4.7 0 8.5-3.8 8.5-8.5v-34c0-4.7-3.8-8.6-8.5-8.6zm-8.5 34.2h-17.1V59.2h17.1v17.1zm76.8-34.2h-34.1c-4.7 0-8.5 3.8-8.5 8.5v34.1c0 4.7 3.8 8.5 8.5 8.5h34.1c4.7 0 8.5-3.8 8.5-8.5v-34c0-4.7-3.8-8.6-8.5-8.6zm-8.6 34.2h-17.1V59.2h17.1v17.1zm76.8-34.2h-34.1c-4.7 0-8.5 3.8-8.5 8.5v34.1c0 4.7 3.8 8.5 8.5 8.5h34.1c4.7 0 8.5-3.8 8.5-8.5v-34c.1-4.7-3.8-8.6-8.5-8.6zm-8.5 34.2h-17.1V59.2h17.1v17.1z"/><path d="M540 8H104.8C83.6 8 66.4 25.2 66.4 46.4v72.5c0 4.7 3.8 8.5 8.5 8.5h494.9c4.7 0 8.5-3.8 8.5-8.5V46.4C578.4 25.2 561.2 8 540 8zm21.3 102.4H83.5v-64c0-11.8 9.6-21.3 21.3-21.3H540c11.8 0 21.3 9.6 21.3 21.3v64zm-34.1 216.2v142.2H117.6V327.3c-5.7.5-11.1-1-17.1-.3v150.3c0 4.7 3.8 8.5 8.5 8.5h426.7c4.7 0 8.5-3.8 8.5-8.5V329c-5.7.2-11.3-1.4-17-2.4zM100.5 159.1v4.1c1.7.3 3.4.9 5.1 1.6-1.8-1.8-3.4-3.9-5.1-5.7zm17.1 11.1c-.4.1-.8.1-1.1.1.4.2.8.3 1.1.5v-.6zm-1.1.1c-3.7-1.6-7.2-3.8-10.9-5.4 2.9 3.1 6.1 5.7 10.9 5.4z"/><path d="M535.7 144.5H109.1c-4.7 0-8.5 5.5-8.5 12.2v2.4c1.7 1.7 3.3 3.8 5.1 5.7 3.7 1.6 7.2 3.9 10.9 5.4.4 0 .7-.1 1.1-.1v-1.2H527c6.3-2.8 11.5-6.8 17.3-10.3v-1.9c0-6.7-3.9-12.2-8.6-12.2zm-420.3 95.1h-104c-7.2 0-13 5.3-13 11.9V299c0 32.8 29.2 59.4 65 59.4s65-26.7 65-59.4v-47.5c0-6.6-5.8-11.9-13-11.9zM46 253.1h1.2-27.5H46zm-29.9 76.4c10.7 2.2 20.3 7.6 32.2 8.7-11.9-1-21.4-6.5-32.2-8.7zm86.3-30.5c0 19.7-17.5 35.7-39 35.7s-39-16-39-35.7v-35.7h78V299z"/><path d="M219.4 239.6h-104c-7.2 0-13 5.3-13 11.9V299c0 32.8 29.2 59.4 65 59.4s65-26.7 65-59.4v-47.5c0-6.6-5.8-11.9-13-11.9zm-13 59.4c0 19.7-17.5 35.7-39 35.7s-39-16-39-35.7v-35.7h78V299z"/><path d="M323.4 239.6h-104c-7.2 0-13 5.3-13 11.9V299c0 32.8 29.2 59.4 65 59.4s65-26.7 65-59.4v-47.5c0-6.6-5.8-11.9-13-11.9zm-13 59.4c0 19.7-17.5 35.7-39 35.7s-39-16-39-35.7v-35.7h78V299z"/><path d="M427.4 239.6h-104c-7.2 0-13 5.3-13 11.9V299c0 32.8 29.2 59.4 65 59.4s65-26.7 65-59.4v-47.5c0-6.6-5.8-11.9-13-11.9zm-13 59.4c0 19.7-17.5 35.7-39 35.7s-39-16-39-35.7v-35.7h78V299z"/><path d="M531.4 239.6h-104c-7.2 0-13 5.3-13 11.9V299c0 32.8 29.2 59.4 65 59.4s65-26.7 65-59.4v-47.5c0-6.6-5.8-11.9-13-11.9zm-13 59.4c0 19.7-17.5 35.7-39 35.7s-39-16-39-35.7v-35.7h78V299z"/><path d="M635.4 239.6h-104c-7.2 0-13 5.3-13 11.9V299c0 32.8 29.2 59.4 65 59.4s65-26.7 65-59.4v-47.5c0-6.6-5.8-11.9-13-11.9zm-36.5 13.5c-11.9 1.1-22.7-4.4-34.6-3.3 11.9-1.1 22.6 4.4 34.6 3.3zm-34.7 89.5c13.1 0 25.1 6.5 38.2 1.1-13.1 5.5-25-1.1-38.2-1.1zm58.2-43.6c0 19.7-17.5 35.7-39 35.7s-39-16-39-35.7v-35.7h78V299zM196.2 150.8c-2.3-3.9-6.7-6.3-11.5-6.3h-69.3c-3.4 0-6.8 1.2-9.2 3.5l-104 95.1c-3.7 3.4-4.8 8.5-2.8 13s6.7 7.3 12 7.3h104c4.3 0 8.4-2 10.8-5.3l69.3-95.1c2.7-3.6 3-8.3.7-12.2zM46 253.1H19.7h27.5H46zm62.4-13.5H42.8l78-71.3h39.7l-52.1 71.3z"/><path d="M264.6 149.5c-2.4-3.1-6.4-4.9-10.5-4.9h-69.3c-4.3 0-8.4 2-10.8 5.3L104.7 245c-2.7 3.6-2.9 8.3-.7 12.2 2.3 3.9 6.7 6.3 11.5 6.3h104c5.6 0 10.6-3.3 12.3-8.1l34.7-95.1c1.2-3.7.5-7.7-1.9-10.8zM210 239.6h-70.3l52-71.3H236l-26 71.3zm113.4-95.1h-69.3m185.6 103.2L405 152.6c-1.8-4.9-6.7-8.1-12.3-8.1h-69.3c-7.2 0-13 5.3-13 11.9v95.1c0 6.6 5.8 11.9 13 11.9h104c4.2 0 8.1-1.8 10.6-4.9 2.4-3.1 3.1-7.1 1.7-10.8zm-103.3-8.1v-71.3h47l26 71.3h-73zm308.2 3.5l-104-95.1c-2.4-2.2-5.7-3.5-9.2-3.5h-69.3c-4.8 0-9.2 2.4-11.5 6.3-2.3 3.9-2 8.5.7 12.2l69.3 95.1c2.4 3.3 6.5 5.3 10.8 5.3h104c5.3 0 10-2.9 12-7.3 2-4.5.9-9.6-2.8-13zm-43.3-35.8c-7.2-9.8-17.9-12-29.9-14.2 12 2.2 22.7 4.3 29.9 14.2zm-37.1 42.5c11.9-1.1 22.7 4.4 34.6 3.3-11.9 1.1-22.6-4.4-34.6-3.3zm-25.9-10.2l-52-71.3H526l78 71.3h-65.7zM323.4 358.5c-31.6 0-57.3 23.4-57.3 52.2s25.7 52.2 57.3 52.2 57.3-23.4 57.3-52.2-25.7-52.2-57.3-52.2zm0 93.9c-25.3 0-45.8-18.7-45.8-41.7 0-23 20.5-41.7 45.8-41.7 25.3 0 45.8 18.7 45.8 41.7 0 22.9-20.5 41.7-45.8 41.7z"/><path d="M356.1 401c-.7-1.9-2.5-3.3-4.6-3.6l-15.8-2.1-7.1-13.1c-1.9-3.6-8.3-3.6-10.3 0l-7.1 13.1-15.8 2.1c-2.2.3-3.9 1.7-4.6 3.6-.7 1.9-.1 4 1.4 5.3l11.4 10.1-3 14.1c-.4 2.1.5 4.2 2.5 5.3 1.9 1.2 4.4 1.2 6.3 0l14-8.5 14 8.5c1 .6 2.1.9 3.2.9s2.2-.3 3.2-.9c1.9-1.2 2.9-3.3 2.5-5.3l-3-14.1 11.4-10.1c1.5-1.4 2-3.4 1.4-5.3zm-23.1 9.9c-1.4 1.2-2 3-1.6 4.7l1 4.6-5.8-3.5c-1-.6-2.1-.9-3.2-.9s-2.2.3-3.2.9l-5.8 3.5 1-4.6c.4-1.7-.2-3.5-1.6-4.7l-5.3-4.7 7.3-1c1.9-.2 3.5-1.3 4.3-2.9l3.3-6.1 3.3 6.1c.8 1.5 2.4 2.6 4.3 2.9l7.3 1-5.3 4.7z"/></svg>