<svg xmlns="http://www.w3.org/2000/svg" viewBox="0 0 648 530.4"><path d="M541.6 9.2H106.4C85.2 9.2 68 26.4 68 47.6v435.2c0 21.2 17.2 38.4 38.4 38.4h435.2c21.2 0 38.4-17.2 38.4-38.4V47.6c0-21.2-17.2-38.4-38.4-38.4zm21.3 473.6c0 11.8-9.6 21.3-21.3 21.3H106.4c-11.8 0-21.3-9.6-21.3-21.3V47.6c0-11.8 9.6-21.3 21.3-21.3h435.2c11.8 0 21.3 9.6 21.3 21.3v435.2z"/><path d="M144.8 43.3h-34.1c-4.7 0-8.5 3.8-8.5 8.5V86c0 4.7 3.8 8.5 8.5 8.5h34.1c4.7 0 8.5-3.8 8.5-8.5V51.9c0-4.7-3.8-8.6-8.5-8.6zm-8.5 34.2h-17.1V60.4h17.1v17.1zm76.8-34.2H179c-4.7 0-8.5 3.8-8.5 8.5V86c0 4.7 3.8 8.5 8.5 8.5h34.1c4.7 0 8.5-3.8 8.5-8.5V51.9c0-4.7-3.8-8.6-8.5-8.6zm-8.6 34.2h-17.1V60.4h17.1v17.1zm76.8-34.2h-34.1c-4.7 0-8.5 3.8-8.5 8.5V86c0 4.7 3.8 8.5 8.5 8.5h34.1c4.7 0 8.5-3.8 8.5-8.5V51.9c.1-4.7-3.8-8.6-8.5-8.6zm-8.5 34.2h-17.1V60.4h17.1v17.1z"/><path d="M541.6 9.2H106.4C85.2 9.2 68 26.4 68 47.6v72.5c0 4.7 3.8 8.5 8.5 8.5h494.9c4.7 0 8.5-3.8 8.5-8.5V47.6c.1-21.2-17.1-38.4-38.3-38.4zm21.3 102.4H85.1v-64c0-11.8 9.6-21.3 21.3-21.3h435.2c11.8 0 21.3 9.6 21.3 21.3v64zm-25.6 34.1H110.7c-4.7 0-8.5 3.8-8.5 8.5v324.3c0 4.7 3.8 8.5 8.5 8.5h426.7c4.7 0 8.5-3.8 8.5-8.5V154.3c0-4.7-3.9-8.6-8.6-8.6zM528.8 470H119.2V162.8h409.6V470z"/><path d="M178.9 179.9h-34.1c-4.7 0-8.5 3.8-8.5 8.5v34.1c0 4.7 3.8 8.5 8.5 8.5s8.5-3.8 8.5-8.5v-25.6h25.6c4.7 0 8.5-3.8 8.5-8.5s-3.8-8.5-8.5-8.5zm324.3 221.8c-4.7 0-8.5 3.8-8.5 8.5v25.6h-25.6c-4.7 0-8.5 3.8-8.5 8.5s3.8 8.5 8.5 8.5h34.1c4.7 0 8.5-3.8 8.5-8.5v-34.1c0-4.6-3.8-8.5-8.5-8.5zm-102.4 0H264.3c-4.7 0-8.5 3.8-8.5 8.5v34.1c0 4.7 3.8 8.5 8.5 8.5h136.5c4.7 0 8.5-3.8 8.5-8.5v-34.1c0-4.6-3.8-8.5-8.5-8.5zm-8.5 34.2H272.8v-17.1h119.5v17.1zm7.2-175.3c-1.6-2.5-4.3-4-7.2-4H272.8c-2.9 0-5.6 1.5-7.2 4-1.6 2.5-1.8 5.5-.5 8.2 10.2 21.8 16.3 63.2 16.3 90.7v4.1c0 7.3 5.4 12.6 12.8 12.6H371c7.4 0 12.8-5.3 12.8-12.6v-4.1c0-27.4 6.1-68.8 16.3-90.7 1.1-2.6.9-5.7-.6-8.2zm-32.8 98.5h-68.3c-.1-24.6-4.6-60.1-13.1-85.3h94.4c-8.4 25.2-13 60.6-13 85.3z"/><path d="M349.6 359.1h-34.1c-4.7 0-8.5 3.8-8.5 8.5v42.7c0 4.7 3.8 8.5 8.5 8.5h34.1c4.7 0 8.5-3.8 8.5-8.5v-42.7c0-4.7-3.8-8.5-8.5-8.5zm-8.5 42.6H324v-25.6h17.1v25.6zm17-179.2H307c-14.1 0-25.6 11.5-25.6 25.6v17c0 4.7 3.8 8.5 8.5 8.5h85.3c4.7 0 8.5-3.8 8.5-8.5v-17c0-14.1-11.5-25.6-25.6-25.6zm8.6 34.2h-68.3v-8.5c0-4.7 3.8-8.6 8.6-8.6h51.1c4.7 0 8.6 3.8 8.6 8.6v8.5z"/><path d="M332.5 179.9c-14.1 0-25.6 11.5-25.6 25.6v25.6c0 4.7 3.8 8.5 8.5 8.5h34.1c4.7 0 8.5-3.8 8.5-8.5v-25.6c.1-14.2-11.4-25.6-25.5-25.6zm8.6 42.6H324v-17.1c0-4.7 3.8-8.5 8.5-8.5s8.5 3.8 8.5 8.5l.1 17.1zm51.2 59.8c-3.9 0-7.9.7-11.8 2.2-2.7 1-4.7 3.3-5.3 6-3.3 13.8-5.9 29.8-7.2 45.1-.3 2.9.9 5.6 3.2 7.4 6.2 4.9 13.5 7.6 21.2 7.6 18.8 0 34.1-15.3 34.1-34.1s-15.4-34.2-34.2-34.2zm0 51.2c-2.7 0-5-.7-6.9-1.5 1.2-11 3-22.3 5.2-32.5 10.1-1.2 18.8 7 18.8 17-.1 9.3-7.7 17-17.1 17zm-95.1 2c-1.4-15.2-4-31.2-7.2-45.1-.7-2.8-2.7-5-5.3-6-3.9-1.5-7.9-2.2-11.8-2.2-18.8 0-34.1 15.3-34.1 34.1s15.3 34.1 34.1 34.1c7.7 0 15.1-2.6 21.2-7.6 2.2-1.6 3.4-4.4 3.1-7.3zm-24.4-2c-9.4 0-17.1-7.7-17.1-17.1s7.7-17.1 17.1-17.1c.6 0 1.1 0 1.7.1 2.2 10.2 4 21.5 5.2 32.5-1.9.9-4.2 1.6-6.9 1.6z"/></svg>