<svg xmlns="http://www.w3.org/2000/svg" viewBox="0 0 648 530.4"><path d="M541.6 9.2H106.4C85.2 9.2 68 26.4 68 47.6v435.2c0 21.2 17.2 38.4 38.4 38.4h435.2c21.2 0 38.4-17.2 38.4-38.4V47.6c0-21.2-17.2-38.4-38.4-38.4zm21.3 473.6c0 11.8-9.6 21.3-21.3 21.3H106.4c-11.8 0-21.3-9.6-21.3-21.3V47.6c0-11.8 9.6-21.3 21.3-21.3h435.2c11.8 0 21.3 9.6 21.3 21.3v435.2z"/><path d="M144.8 43.3h-34.1c-4.7 0-8.5 3.8-8.5 8.5V86c0 4.7 3.8 8.5 8.5 8.5h34.1c4.7 0 8.5-3.8 8.5-8.5V51.9c0-4.8-3.8-8.6-8.5-8.6zm-8.5 34.2h-17.1V60.4h17.1v17.1zm76.8-34.2H179c-4.7 0-8.5 3.8-8.5 8.5V86c0 4.7 3.8 8.5 8.5 8.5h34.1c4.7 0 8.5-3.8 8.5-8.5V51.9c0-4.8-3.8-8.6-8.5-8.6zm-8.6 34.2h-17.1V60.4h17.1v17.1zm76.8-34.2h-34.1c-4.7 0-8.5 3.8-8.5 8.5V86c0 4.7 3.8 8.5 8.5 8.5h34.1c4.7 0 8.5-3.8 8.5-8.5V51.9c.1-4.8-3.8-8.6-8.5-8.6zm-8.5 34.2h-17.1V60.4h17.1v17.1z"/><path d="M541.6 9.2H106.4C85.2 9.2 68 26.4 68 47.6v72.5c0 4.7 3.8 8.5 8.5 8.5h494.9c4.7 0 8.5-3.8 8.5-8.5V47.6c.1-21.2-17.1-38.4-38.3-38.4zm21.3 102.4H85.1v-64c0-11.8 9.6-21.3 21.3-21.3h435.2c11.8 0 21.3 9.6 21.3 21.3v64zm-25.6 34.1H110.7c-4.7 0-8.5 3.8-8.5 8.5v324.3c0 4.7 3.8 8.5 8.5 8.5h426.7c4.7 0 8.5-3.8 8.5-8.5V154.3c0-4.8-3.9-8.6-8.6-8.6zM528.8 470H119.2V162.8h409.6V470z"/><path d="M452 290.8h-15.4c-3.3 0-6.1-2-7-4.9-2.4-8.2-5.5-15.8-8.9-22.1-1.5-2.7-.9-6.2 1.4-8.5l10.9-10.9c1.6-1.6 2.5-3.8 2.5-6s-.9-4.4-2.5-6l-25-25c-3.2-3.2-8.9-3.2-12.1 0L385 218.3c-2.3 2.3-5.8 2.9-8.5 1.4-6.3-3.4-13.9-6.5-22-8.9-2.9-.9-4.9-3.7-4.9-7v-15.5c0-4.7-3.8-8.5-8.5-8.5H307c-4.7 0-8.5 3.8-8.5 8.5v15.5c0 3.3-2 6.1-4.9 7-8.1 2.4-15.8 5.5-22.1 8.9-2.7 1.5-6.2.9-8.5-1.4l-11-10.9c-1.6-1.6-3.8-2.5-6-2.5s-4.4.9-6 2.5l-25 25c-1.6 1.6-2.5 3.8-2.5 6s.9 4.4 2.5 6l10.9 10.9c2.3 2.3 2.9 5.8 1.4 8.5-3.4 6.2-6.5 13.9-8.9 22-.9 2.9-3.7 4.9-7 4.9H196c-4.7 0-8.5 3.8-8.5 8.5v34.1c0 4.7 3.8 8.5 8.5 8.5h15.4c3.3 0 6.1 2 7 4.9 2.4 8.2 5.5 15.8 8.9 22 1.5 2.7.9 6.2-1.4 8.5L215 388.4c-1.6 1.6-2.5 3.8-2.5 6s.9 4.4 2.5 6l25 25c3.2 3.2 8.9 3.2 12.1 0l10.9-10.9c2.3-2.3 5.8-2.9 8.5-1.4 5.6 3.1 13.2 6 23.1 8.9 2.9.9 4.9 3.7 4.9 7v15.5c0 4.7 3.8 8.5 8.5 8.5h32c4.7 0 8.5-3.8 8.5-8.5V429c0-3.3 2-6.1 4.9-7 9.9-2.9 17.5-5.8 23.1-8.9 2.7-1.5 6.2-.9 8.5 1.4l10.9 10.9c1.6 1.6 3.8 2.5 6 2.5s4.4-.9 6-2.5l25-25c1.6-1.6 2.5-3.8 2.5-6s-.9-4.4-2.5-6L422 377.5c-2.3-2.3-2.9-5.8-1.4-8.5 3.4-6.2 6.5-13.9 8.9-22 .9-2.9 3.7-4.9 7-4.9H452c4.7 0 8.5-3.8 8.5-8.5v-34.1c0-4.9-3.8-8.7-8.5-8.7zm-8.5 34.1h-6.9c-10.8 0-20.4 7.1-23.4 17.2-2.1 7-4.7 13.5-7.5 18.7-5.1 9.3-3.3 21.1 4.3 28.7l4.9 4.9-12.9 12.9-4.9-4.9c-7.6-7.6-19.4-9.4-28.7-4.3-4.5 2.4-11.1 5-19.8 7.5-10.1 3-17.2 12.6-17.2 23.4v6.9h-14.9V429c0-10.8-7.1-20.4-17.2-23.4-8.6-2.5-15.3-5.1-19.8-7.5-9.3-5.1-21.1-3.3-28.7 4.3l-4.9 4.9-12.9-12.9 4.9-4.9c7.6-7.6 9.4-19.4 4.3-28.7-2.8-5.2-5.4-11.7-7.5-18.7-3-10.1-12.6-17.2-23.4-17.2h-6.9v-17.1h6.9c10.8 0 20.4-7.1 23.4-17.2 2.1-7 4.7-13.5 7.5-18.7 5.1-9.3 3.3-21.1-4.3-28.7l-4.9-4.9 12.9-12.9 4.9 4.9c7.6 7.6 19.4 9.4 28.7 4.3 5.2-2.9 11.7-5.5 18.7-7.5 10.1-3 17.2-12.6 17.2-23.4v-6.9h17.1v6.9c0 10.8 7.1 20.4 17.2 23.4 7 2 13.4 4.6 18.7 7.5 9.3 5.1 21.1 3.3 28.7-4.3l4.9-4.9 12.9 12.9-4.9 4.9c-7.6 7.6-9.4 19.4-4.3 28.7 2.8 5.2 5.4 11.7 7.5 18.7 3 10.1 12.6 17.2 23.4 17.2h6.9v17.1z"/><path d="M324 256.7c-32.9 0-59.7 26.8-59.7 59.7s26.8 59.7 59.7 59.7 59.7-26.8 59.7-59.7-26.8-59.7-59.7-59.7zm0 102.4c-23.5 0-42.7-19.1-42.7-42.7 0-23.5 19.1-42.7 42.7-42.7 23.5 0 42.7 19.1 42.7 42.7 0 23.5-19.2 42.7-42.7 42.7zM178.9 179.9h-34.1c-4.7 0-8.5 3.8-8.5 8.5v34.1c0 4.7 3.8 8.5 8.5 8.5s8.5-3.8 8.5-8.5v-25.6h25.6c4.7 0 8.5-3.8 8.5-8.5s-3.8-8.5-8.5-8.5zm324.3 221.8c-4.7 0-8.5 3.8-8.5 8.5v25.6h-25.6c-4.7 0-8.5 3.8-8.5 8.5s3.8 8.5 8.5 8.5h34.1c4.7 0 8.5-3.8 8.5-8.5v-34.1c0-4.7-3.8-8.5-8.5-8.5z"/></svg>