<svg id="katman_1" xmlns="http://www.w3.org/2000/svg" viewBox="0 0 850.4 850.4"><style>.st0{fill:#24afe0}.st1{fill:#fff}.st4{fill:#22afde}.st5{fill:#014c6a}.st6{fill:#3f3f3f}</style><circle class="st0" cx="140.2" cy="425.2" r="138.5"/><path class="st1" d="M171.7 382.3H136v109.1h-28.2V382.3H72.2v-24.6h99.5v24.6zm86.9 109.1h-27.5V477h-.4c-6.9 11.2-15.9 16.8-27.3 16.8-20.8 0-31.1-13.4-31.1-40.2v-57.7h27.5v55c0 13.6 5.1 20.3 15 20.3 4.9 0 8.9-1.8 11.9-5.6 2.9-3.6 4.5-8.7 4.5-15v-54.7h27.5v95.6l-.1-.1z"/><path class="st0" d="M347.3 423.6c-3.3-2-7.2-2.9-11.6-2.9-6 0-10.7 2.4-14.1 7.1s-5.1 11-5.1 19.2v45.6h-27.7V397h27.7v17.7h.4c4.3-12.8 12.3-19.4 23.5-19.4 2.9 0 5.2.4 6.9 1.1v27.2zm87.4 68.9h-26.1v-13.8h-.4c-6 10.7-14.8 16.1-26.6 16.1-8.7 0-15.6-2.7-20.5-8-5.1-5.2-7.4-12.3-7.4-21 0-18.5 10.3-29.3 30.8-32l24.3-3.4c0-10.5-5.2-15.7-15.9-15.7s-20.8 3.4-30.4 10.1v-22.3c3.8-2.2 9-4 15.7-5.6s12.7-2.4 18.3-2.4c25.5 0 38.2 13.6 38.2 40.7v57.3zm-26.1-38.9v-6.5l-16.3 2.2c-9 1.3-13.4 5.6-13.4 13 0 3.4 1.1 6.2 3.3 8.3 2.2 2.2 5.1 3.3 8.9 3.3 5.2 0 9.4-2 12.7-5.8s4.8-8.5 4.8-14.5zm115.7 35.5c-6.2 3.8-15.2 5.8-27 5.8-13.8 0-24.8-4.5-33.3-13.4s-12.7-20.5-12.7-34.4c0-16.3 4.5-29 13.8-38.4 9-9.4 21.4-14.1 36.6-14.1 10.5 0 18.1 1.4 22.8 4.5v25c-5.8-4.5-12.1-6.9-19.4-6.9-8 0-14.1 2.5-18.8 7.4s-6.9 11.8-6.9 20.5c0 8.5 2.2 15 6.7 19.9 4.3 4.9 10.5 7.2 18.3 7.2 6.9 0 13.6-2.4 20.3-6.9V489l-.4.1zm60.6 5.8c-14.8 0-26.6-4.5-35.1-13.4s-12.8-21-12.8-36.4c0-15.7 4.3-28.2 13.2-37.1s20.8-13.4 35.8-13.4c14.8 0 26.4 4.5 34.9 13.4s12.7 20.8 12.7 35.5c0 15.9-4.3 28.4-13 37.6-8.5 9.1-20.5 13.8-35.7 13.8zm.7-77.7c-6.5 0-11.6 2.4-15.2 7.2-3.6 4.7-5.4 11.6-5.4 20.3 0 18.3 6.9 27.5 20.8 27.5 13.2 0 19.9-9.4 19.9-28.2 0-17.9-6.7-26.8-20.1-26.8zm261.9 75.3H820v-53c0-14.8-4.9-22.3-14.8-22.3-4.7 0-8.7 2-11.8 5.8-3.1 4-4.7 8.9-4.7 14.8v54.5h-27.5V397h27.7v15.2h.4c6.5-11.6 16.1-17.4 28.8-17.4 19.7 0 29.7 13.2 29.7 39.5v58.3h-.3v-.1z"/><path d="M270 547.4h-17.4v-35.5h4v31.7H270v3.8zm23.5-11.6h-16.8c0 2.9.7 5.1 2.2 6.5 1.4 1.4 3.3 2.4 5.6 2.4 2.7 0 5.1-.9 7.4-2.9v3.8c-2.2 1.6-4.9 2.4-8.3 2.4s-6-1.1-8-3.4-2.9-5.6-2.9-9.8c0-4 1.1-7.2 3.1-9.6 2.2-2.5 4.7-3.8 7.8-3.8s5.4 1.1 7.2 3.3c1.6 2.2 2.5 5.1 2.5 8.9v2.4h.2v-.2zm-3.8-3.5c0-2.4-.5-4.2-1.6-5.4s-2.5-2-4.3-2-3.3.7-4.5 2c-1.3 1.4-2 3.1-2.4 5.4h12.8zm26.6 15.1h-3.8v-4h-.2c-1.6 3.1-4.2 4.5-7.2 4.5-2.4 0-4.2-.7-5.6-2-1.3-1.3-2-3.1-2-5.2 0-4.7 2.5-7.4 7.8-8.3l7.1-1.1c0-4.3-1.6-6.5-4.9-6.5-2.9 0-5.4 1.1-7.8 3.1v-4.2c2.4-1.6 5.1-2.4 8.1-2.4 5.6 0 8.3 3.1 8.3 9.4v16.7h.2zm-3.8-12.7l-5.8.9c-1.8.2-3.1.7-4 1.4s-1.3 1.8-1.3 3.6c0 1.3.4 2.2 1.3 3.1.9.7 2 1.1 3.3 1.1 1.8 0 3.4-.7 4.7-2.2 1.3-1.4 1.8-3.3 1.8-5.4v-2.5zm23.4-8.5c-.7-.5-1.6-.9-2.9-.9-1.6 0-2.9.9-4 2.5s-1.6 3.8-1.6 6.7v12.8h-3.8V522h3.8v5.2h.2c.5-1.8 1.4-3.3 2.5-4.2 1.1-1.1 2.4-1.4 3.8-1.4.9 0 1.8.2 2.4.4v4.2h-.4zm23.7 21.2h-3.8v-14.5c0-5.4-1.8-8.1-5.4-8.1-1.8 0-3.4.7-4.7 2.4-1.3 1.4-1.8 3.4-1.8 5.8v14.5H340V522h3.8v4.2h.2c1.8-3.3 4.3-4.9 7.8-4.9 2.5 0 4.5.9 6 2.7 1.4 1.8 2 4.3 2 7.8v15.6h-.2zm40.3 0h-3.8V543h-.1c-1.8 3.3-4.5 4.9-8.1 4.9-2.9 0-5.4-1.1-7.1-3.4-1.8-2.4-2.7-5.4-2.7-9.2 0-4.2.9-7.6 2.9-10.1s4.5-3.8 8-3.8c3.3 0 5.6 1.4 7.1 4.2h.2v-15.7h3.8v37.5h-.2zm-3.8-11.4v-3.8c0-2-.7-3.8-1.8-5.2-1.3-1.4-2.9-2.2-4.9-2.2-2.4 0-4.2.9-5.4 2.7-1.3 1.8-2 4.3-2 7.6 0 2.9.7 5.2 2 6.9 1.3 1.6 2.9 2.5 5.1 2.5s3.8-.9 5.1-2.5c1.4-1.5 1.9-3.5 1.9-6zm13.4-20.3c-.7 0-1.3-.2-1.8-.7s-.7-1.1-.7-1.8.2-1.4.7-1.8c.5-.5 1.1-.7 1.8-.7s1.3.2 1.8.7.7 1.1.7 1.8-.2 1.3-.7 1.8c-.3.3-1 .7-1.8.7zm2 31.7h-3.8V522h3.8v25.4zm19.4-33.9c-.7-.4-1.6-.7-2.5-.7-2.7 0-4 1.8-4 5.4v4h5.6v3.4h-5.6v21.9h-3.8v-21.9h-4v-3.4h4V518c0-2.7.7-4.7 2.2-6.3 1.4-1.6 3.3-2.4 5.4-2.4 1.1 0 2 .2 2.7.4v3.8zm14.8 0c-.7-.4-1.6-.7-2.5-.7-2.7 0-4 1.8-4 5.4v4h5.6v3.4h-5.6v21.9h-3.8v-21.9h-4v-3.4h4V518c0-2.7.7-4.7 2.2-6.3 1.4-1.6 3.3-2.4 5.4-2.4 1.1 0 2 .2 2.7.4v3.8zm22.3 22.3h-16.8c0 2.9.7 5.1 2.2 6.5 1.4 1.4 3.3 2.4 5.6 2.4 2.7 0 5.1-.9 7.4-2.9v3.8c-2.2 1.6-4.9 2.4-8.3 2.4s-6-1.1-8-3.4c-2-2.4-2.9-5.6-2.9-9.8 0-4 1.1-7.2 3.1-9.6 2.2-2.5 4.7-3.8 7.8-3.8s5.4 1.1 7.2 3.3c1.6 2.2 2.5 5.1 2.5 8.9v2.4h.2v-.2zm-4-3.5c0-2.4-.5-4.2-1.6-5.4-1.1-1.3-2.5-2-4.3-2s-3.3.7-4.5 2c-1.3 1.4-2 3.1-2.4 5.4H464zm22.1-6.1c-.7-.5-1.6-.9-2.9-.9-1.6 0-2.9.9-4 2.5s-1.6 3.8-1.6 6.7v12.8h-3.8V522h3.8v5.2h.2c.5-1.8 1.4-3.3 2.5-4.2 1.1-1.1 2.4-1.4 3.8-1.4.9 0 1.8.2 2.4.4v4.2h-.4zm22.4 9.6h-16.8c0 2.9.7 5.1 2.2 6.5 1.4 1.4 3.3 2.4 5.6 2.4 2.7 0 5.1-.9 7.4-2.9v3.8c-2.2 1.6-4.9 2.4-8.3 2.4s-6-1.1-8-3.4c-2-2.4-2.9-5.6-2.9-9.8 0-4 1.1-7.2 3.1-9.6 2.2-2.5 4.7-3.8 7.8-3.8 3.1 0 5.4 1.1 7.2 3.3 1.6 2.2 2.5 5.1 2.5 8.9v2.4h.2v-.2zm-3.8-3.5c0-2.4-.5-4.2-1.6-5.4-1.1-1.3-2.5-2-4.3-2s-3.3.7-4.5 2c-1.3 1.4-2 3.1-2.4 5.4h12.8zm29.4 15.1h-3.8v-14.5c0-5.4-1.8-8.1-5.4-8.1-2 0-3.4.7-4.7 2.4-1.3 1.4-1.8 3.4-1.8 5.8v14.5h-3.8V522h3.8v4.2h.2c1.8-3.3 4.3-4.9 7.8-4.9 2.5 0 4.5.9 6 2.7 1.4 1.8 2 4.3 2 7.8v15.6h-.3zm18.1-.2c-.9.5-2 .7-3.6.7-4.2 0-6.2-2.5-6.2-7.4v-15h-4.2V522h4.2v-6.2l3.8-1.3v7.4h6v3.4h-6v14.3c0 1.6.2 2.9.7 3.6.5.7 1.4 1.1 2.7 1.1.9 0 1.8-.4 2.5-.9l.1 3.8zm8.6-5.4l-3.6 12.1h-2.7l2.7-12.1h3.6zm18.3 4.7v-4.3c2 1.6 4.3 2.5 6.9 2.5 3.3 0 5.1-1.3 5.1-3.6 0-.7-.2-1.3-.4-1.8-.4-.5-.7-.9-1.1-1.3-.5-.4-1.1-.7-1.6-.9-.7-.4-1.4-.5-2.2-.9-1.1-.4-2-.9-2.7-1.3-.7-.5-1.4-.9-2-1.4s-.9-1.3-1.3-2c-.2-.7-.4-1.6-.4-2.5 0-1.3.2-2.2.7-3.1.5-.9 1.3-1.6 2-2.4.9-.5 1.8-1.1 2.9-1.4 1.1-.4 2.2-.5 3.4-.5 2 0 4 .4 5.4 1.1v4.2c-1.8-1.3-3.8-1.8-6-1.8-.7 0-1.3 0-2 .2s-1.1.4-1.4.7c-.4.4-.7.7-.9 1.1-.2.4-.4.9-.4 1.4 0 .7.2 1.3.4 1.6.2.4.5.9.9 1.3s.9.7 1.6.9c.5.4 1.3.5 2.2.9 1.1.4 2 .9 2.9 1.3.9.5 1.6.9 2.2 1.4.5.5 1.1 1.3 1.3 2s.5 1.6.5 2.7c0 1.3-.2 2.4-.7 3.3-.5.9-1.3 1.6-2 2.4-.9.5-1.8 1.1-3.1 1.4-1.3.4-2.4.4-3.6.4-2.6 0-4.8-.6-6.6-1.6zm25.5-2.8l-.2 15.4h-3.8v-36.9h3.8v4.5h.2c1.8-3.4 4.5-5.1 8.1-5.1 3.1 0 5.4 1.1 7.2 3.4 1.6 2.4 2.5 5.2 2.5 9 0 4.2-.9 7.6-2.9 10.1s-4.5 3.8-8 3.8c-2.9.2-5.2-1.3-6.9-4.2zm-.1-10.1v3.6c0 2.2.7 3.8 2 5.2s2.9 2.2 4.9 2.2c2.4 0 4.2-.9 5.4-2.9 1.3-1.8 2-4.5 2-7.8 0-2.9-.5-5.1-1.8-6.7s-2.9-2.4-4.9-2.4c-2.2 0-4 .9-5.2 2.5-1.7 1.8-2.4 3.8-2.4 6.3zm43.2 2.2h-16.8c0 2.9.7 5.1 2.2 6.5 1.4 1.4 3.3 2.4 5.6 2.4 2.7 0 5.1-.9 7.4-2.9v3.8c-2.2 1.6-4.9 2.4-8.3 2.4-3.4 0-6-1.1-8-3.4s-2.9-5.6-2.9-9.8c0-4 1.1-7.2 3.1-9.6 2.2-2.5 4.7-3.8 7.8-3.8s5.4 1.1 7.2 3.3c1.6 2.2 2.5 5.1 2.5 8.9v2.4h.2v-.2zm-4-3.5c0-2.4-.5-4.2-1.6-5.4-1.1-1.3-2.5-2-4.3-2s-3.3.7-4.5 2c-1.3 1.4-2 3.1-2.4 5.4h12.8zm26.6 15.1h-3.8v-4h-.2c-1.6 3.1-4.2 4.5-7.2 4.5-2.4 0-4.2-.7-5.6-2s-2-3.1-2-5.2c0-4.7 2.5-7.4 7.8-8.3l7.1-1.1c0-4.3-1.6-6.5-4.9-6.5-2.9 0-5.4 1.1-7.8 3.1v-4.2c2.4-1.6 5.1-2.4 8.1-2.4 5.6 0 8.3 3.1 8.3 9.4v16.7h.2zm-3.8-12.7l-5.8.9c-1.8.2-3.1.7-4 1.4s-1.3 1.8-1.3 3.6c0 1.3.4 2.2 1.3 3.1.9.7 2 1.1 3.3 1.1 1.8 0 3.4-.7 4.7-2.2s1.8-3.3 1.8-5.4v-2.5zm30.8 12.7h-5.2l-10.5-12.1h-.2v12.1h-3.8v-37.5h3.8v23.7h.2l10-11.6h5.1l-11 12.3 11.6 13.1zm15.4-.9v-4.3c2 1.6 4.3 2.5 6.9 2.5 3.3 0 5.1-1.3 5.1-3.6 0-.7-.2-1.3-.4-1.8-.4-.5-.7-.9-1.1-1.3-.5-.4-1.1-.7-1.6-.9-.7-.4-1.4-.5-2.2-.9-1.1-.4-2-.9-2.7-1.3-.7-.5-1.4-.9-2-1.4-.5-.5-.9-1.3-1.3-2-.2-.7-.4-1.6-.4-2.5 0-1.3.2-2.2.7-3.1.5-.9 1.3-1.6 2-2.4.9-.5 1.8-1.1 2.9-1.4 1.1-.4 2.2-.5 3.4-.5 2 0 4 .4 5.4 1.1v4.2c-1.8-1.3-3.8-1.8-6-1.8-.7 0-1.3 0-2 .2s-1.1.4-1.4.7c-.4.4-.7.7-.9 1.1-.2.4-.4.9-.4 1.4 0 .7.2 1.3.4 1.6.2.4.5.9.9 1.3s.9.7 1.6.9c.5.4 1.3.5 2.2.9 1.1.4 2 .9 2.9 1.3.9.5 1.6.9 2.2 1.4.5.5 1.1 1.3 1.3 2s.5 1.6.5 2.7c0 1.3-.2 2.4-.7 3.3-.5.9-1.3 1.6-2 2.4-.9.5-1.8 1.1-3.1 1.4-1.3.4-2.4.4-3.6.4-2.6 0-4.8-.6-6.6-1.6zm38.5.9h-3.8v-4h-.2c-1.6 3.1-4.2 4.5-7.2 4.5-2.4 0-4.2-.7-5.6-2-1.4-1.3-2-3.1-2-5.2 0-4.7 2.5-7.4 7.8-8.3l7.1-1.1c0-4.3-1.6-6.5-4.9-6.5-2.9 0-5.4 1.1-7.8 3.1v-4.2c2.4-1.6 5.1-2.4 8.1-2.4 5.6 0 8.3 3.1 8.3 9.4v16.7h.2zm-3.8-12.7l-5.8.9c-1.8.2-3.1.7-4 1.4s-1.3 1.8-1.3 3.6c0 1.3.4 2.2 1.3 3.1.9.7 2 1.1 3.3 1.1 1.8 0 3.4-.7 4.7-2.2s1.8-3.3 1.8-5.4v-2.5zm44.7 12.7h-3.8v-14.5c0-2.7-.4-4.9-1.3-6.2-.7-1.3-2.2-1.8-4.2-1.8-1.6 0-3.1.7-4.2 2.4-1.1 1.6-1.6 3.4-1.6 5.6v14.5h-3.8v-15c0-5.1-1.8-7.4-5.4-7.4-1.6 0-3.1.7-4.2 2.2s-1.6 3.4-1.6 5.8v14.5h-3.8V522h3.8v4h.2c1.6-3.1 4.2-4.5 7.4-4.5 1.6 0 3.1.5 4.2 1.4 1.3.9 2 2.2 2.5 3.8 1.8-3.4 4.3-5.2 8-5.2 5.2 0 7.8 3.4 7.8 10.3v15.6zm26.3-11.6h-16.8c0 2.9.7 5.1 2.2 6.5s3.3 2.4 5.6 2.4c2.7 0 5.1-.9 7.4-2.9v3.8c-2.2 1.6-4.9 2.4-8.3 2.4s-6-1.1-8-3.4-2.9-5.6-2.9-9.8c0-4 1.1-7.2 3.1-9.6 2.2-2.5 4.7-3.8 7.8-3.8s5.4 1.1 7.2 3.3c1.6 2.2 2.5 5.1 2.5 8.9v2.4h.2v-.2zm-4-3.5c0-2.4-.5-4.2-1.6-5.4-1.1-1.3-2.5-2-4.3-2s-3.3.7-4.5 2c-1.3 1.4-2 3.1-2.4 5.4h12.8zm11 15.6c-.7 0-1.3-.4-1.8-.9s-.7-1.3-.7-2 .2-1.4.7-2c.5-.5 1.1-.9 1.8-.9s1.3.4 1.8.9.7 1.3.7 2-.2 1.4-.7 2c-.5.7-1 .9-1.8.9zm10.4 0c-.7 0-1.3-.4-1.8-.9s-.7-1.3-.7-2 .2-1.4.7-2c.5-.5 1.1-.9 1.8-.9s1.3.4 1.8.9.7 1.3.7 2-.2 1.4-.7 2c-.6.7-1.1.9-1.8.9zm10.3 0c-.7 0-1.3-.4-1.8-.9s-.7-1.3-.7-2 .2-1.4.7-2c.5-.5 1.1-.9 1.8-.9s1.3.4 1.8.9.7 1.3.7 2-.2 1.4-.7 2c-.6.7-1.1.9-1.8.9z" fill="#1b1b1b"/><path class="st4" d="M715.3 454.8s6.4-2.7 8.9-5.6c2.5-2.8 6.2-7 7.9-12.2 1.6-5.2 4.4-12.3 4.4-12.3s1.4-3 3.7-5.6c1.2-1.4 2.7-2.5 4.4-3.2 1.9-.8 3-.7 4.4-.6 2 .1 3.9.9 5.4 2.2.8.8 1.2 1.5 1.2 1.5s.5.5 1.1 2.6c.2.6.3 1.2.4 1.8.2 1.6.2 3 .2 4 0 .9 0 1.7-.1 2.5-.1 1-.3 2.4-.5 3.6-.6 2.4-1.7 5.1-1.7 5.1s-1.9 5.6-8 14.6c-.8 1.2-1.8 2.4-2.9 3.4-9.2 8.5-21.8 10.9-26.4 10.7.6-1.1-.1-6.3-.4-7.1-.4-.8-2-5.4-2-5.4z"/><path class="st5" d="M706 425.6s14.2 13.3 12.1 20c0 0-1.4 10.2-4.4 9-2.9-1.2-8.4-29-8.4-29h.7zm-41.1.4s-14.2 13.3-12.1 20c0 0 1.4 10.2 4.4 9 2.9-1.2 8.4-29 8.4-29h-.7z"/><path class="st4" d="M667.1 421.2s-11.4 32.2-12.5 37.5c-1.1 5.4-12.8 26.9 30.1 25.2 0 0 46.2-.1 32.3-24.9l-12.8-37.8s-15.1 6-37.1 0z"/><path class="st1" d="M672.5 426.6s-29.9 56 11.8 54 13.3-54 13.3-54-11.5 5-25.1 0z"/><path class="st4" d="M650 376.6s-8.2 8.3-.8 22.8c0 0 6.5-13.7 22-14-.1-.1-17.2-10.4-21.2-8.8zm64.8-1.6s8.2 8.3.8 22.8c0 0-6.5-13.7-22-14 0 0 17.2-10.3 21.2-8.8z"/><path class="st1" d="M649.9 378.4s-6 7.9-.7 20c0 0 2.2-5.9 9.4-9.2 0 0-1.8-5.9-8.7-10.8zm64.7-1.3s6.2 7.8 1.2 20c0 0-2.4-5.8-9.6-9 0 0 1.6-5.9 8.4-11z"/><path class="st4" d="M641.8 407.1c.2-2.3 9-12.2 12.5-15.3 3.5-3.1 7.5-7.7 21.9-11.4 0 0 9.4-3.5 22.4 2.6 0 0 22.1 7.9 26.9 25.9l-2-1 .6 2.4-1.4-.4.4 1.7s-8.4 12-23.4 15.9c0 0-15.3 4.2-30.9-.4-15.6-4.6-21.3-7.7-24.8-16.5l-1 1.1-.3-2-.7.8c.1.1-.4-1.1-.2-3.4z"/><path class="st5" d="M643.6 407.2s6.3-10.8 16.1-13.5c0 0 .9-1.2-2.2-1.1-3.1.2 7.6-4.4 10.5 0 0 0 1.1-2.4-1.9-2.6-2.9-.2 11.8-1.1 17.6 6.5l2.5 2-1.4 9.8h-2.6s-.3 6.1-12.2 10.4c-11.9 4.3-22.3-2.6-22.3-2.6s-1.9-1.4-3.4-4.6c-1.4-3.2-.7-4.3-.7-4.3z"/><path class="st5" d="M722.1 409s-5.1-11.4-14.4-15c0 0-.8-1.3 2.2-.9s-7-5.1-10.2-1c0 0-.8-2.5 2.1-2.5 2.9 0-11.4-2.2-17.8 5.1l-2.7 1.8.5 10.1 2.6.2s-.3 6.2 10.9 11.6c6.7 3.2 13.2 2.4 17.5 1.1 1-.3 1.8-.6 2.5-.9 1.3-.5 2-.9 2-.9s.8-.5 1.8-1.6c.6-.7 3.9-3.8 4-4.5.2-.8-1-2.6-1-2.6z"/><ellipse class="st1" cx="670.5" cy="403.7" rx="6" ry="7.6"/><ellipse class="st1" cx="699.1" cy="404" rx="6" ry="7.6"/><ellipse class="st6" cx="669.9" cy="403" rx="3.7" ry="4.6"/><ellipse class="st6" cx="699.1" cy="403.5" rx="3.7" ry="4.6"/><ellipse class="st1" cx="697.1" cy="400.3" rx="1.4" ry="2.2"/><ellipse class="st1" cx="667.7" cy="400.3" rx="1.4" ry="2.2"/><ellipse cx="683.6" cy="410.3" rx="4.4" ry="2.7" fill="#fbba36"/><path class="st6" d="M700.4 394.1s-1.5.6 0 1c0 0 1.5-1 3.1 1.8l.6.6s1.4 1.6.5 0c-.1-.1-1.4-3.8-4.2-3.4zm-36.5 1.2s3.5-1 .7.9c0 0-1.1.3-1.6.8-.5.6-.7 1.4-.7 1.4v1s-.3 2.8-1 0c0 0-.1-3.2 2.6-4.1zm14.5 23.7s8.3 5 10.6-1.4c0 0 .4-.4.3.1s-2.9 6.4-10.9 1.5c-.2 0-.6-.5 0-.2z"/><path class="st5" d="M701.4 486.5s6.2 4.7.6 9.3c-5.6 4.6-11.2-2.2-11.2-2.2s-7.3-7 1.3-8.8c.1 0 5.2-1.5 9.3 1.7z"/><path class="st5" d="M674 488.1s-6.2 4.7-.6 9.3c5.6 4.6 11.2-2.2 11.2-2.2s7.3-7-1.3-8.8c-.1 0-5.1-1.5-9.3 1.7z"/><ellipse cx="684.5" cy="409.2" rx="2.2" ry="1.3" fill="#fff7e0"/><path d="M736 429.1s-1.5 2.5-2.8 8.1c-.1.2.1.4.2.4 10 3.5 10.5 7.5 11.7 8.2.2.1.4.1.5-.1.7-1.2 2-4.6 3.6-9.9v-.3c-.1-.1-.3-.4-.7-.7-.5-.5-1.5-1.3-3.1-2.5-3.7-2.8-9.4-3.2-9.4-3.2m-12.8 24.1c-.1.1-.1.1-.1.2-.2.7 1.6 1.2 3.4 3.7 1.7 2.6 2.3 3.6 2.7 4.7.1.4.5.6.8.5 2.4-.4 7.7-5.5 7.7-5.9-1.1-1.9-6.7-7.9-9.4-8.5-.3-.1-.6 0-.8.2-.5.4-.9 1.2-1.5 1.9-.8.8-2.5 2.8-2.8 3.2z" fill="#fff" stroke="#020203" stroke-width=".25" stroke-miterlimit="10"/><path class="st5" d="M736 428.3l-3.7 9.6s10.8 4 16.2 11.9c0 0 5.8-11.9 5.6-14.6-.3-2.8-13.7-9.2-18.1-6.9zm-8 17.2s-5.5 6.7-6.1 6.9 6.3 4.7 7.2 12.3c0 0 10.5-4.5 12.2-7 1.7-2.5-9-11.5-13.3-12.2z"/></svg>