<svg id="Layer_1" xmlns="http://www.w3.org/2000/svg" viewBox="0 0 850.4 850.4"><style>.st0{fill:#fff}.st0,.st1,.st2,.st3{stroke:#231f20;stroke-miterlimit:10}.st2{stroke-width:3;fill:#ff0019}.st3{fill:#0086ff}</style><path class="st0" d="M645.3 487.3c-1.4.2-3.1.2-4.6.5 7.7 24.1-.2 46.2-7 68.8-4.8 16.1-5.8 33.7-11.3 49.6-5.5 15.4-6.5 30.8-4.3 47.2 4.1-7.5 8.2-15.2 13.2-24.1 12.8 22.6-7.7 37.5-10.3 55.6 9.9.2 9.9.2 26-18.5 3.1 7.9 6.3 16.1 10.1 26.5 8.2-30.8 7.2-46.7-3.1-73.6-1.2-3.1-1.9-6.5-2.2-9.9-1-11.6-1.4-23.1-2.4-34.7-1.2-13.5 1-25.5 9.4-36.6 22.9-29.6 29.1-63.1 21.7-99.4-1.7-7.7-5.1-15.2-7.5-22.9-1.2.2-2.6.5-3.9.7 3.1 36.6 2.4 72.2-17.8 103.5-1.9-10.3-4.1-21.7-6-32.7zm-39.7 24.3c3.1-8.9 7-17.6 9.1-26.7 1.4-6.5.2-13.7.2-20.5-6.5.2-13.2-.7-19.3.7-21.2 5.3-41.9 9.6-62.8-.5-1.7-1-7.2 1.7-7.9 3.9-6 13.5 5.5 28.9 20 26 10.8-2.2 19.5.2 26.7 8.2 1.7 1.7 4.1 2.9 6 4.3 2.9-7.7-6-19.3 7.9-21.4 11.2-1.7 14.8 3.8 20.1 26zm-192 56.3c-1.2.7-2.4 1.7-3.6 2.4 6 3.1 12 6 19.5 9.9 2.6-5.1 5.5-10.3 9.1-17.1.7-.2 3.6-1 6.7-1.7-13.5-2.4-16.1-13-19.5-23.1-2.9-8.9-6.3-18-9.1-27l-3.6 1.4c2.2 5.3 4.6 10.6 7.2 17.1-3.1-2.2-5.3-3.4-8.7-5.5 1.7 14.9 17.3 23.8 13.7 40.9-3.9-7.2-6.7-13-10.1-19.3-.7 8-1.2 15-1.6 22zm294.3 54.9c.2.5.5 1 1 1.4 7-12.8 14.2-25.5 21.2-38.3 1 .5 1.7.7 2.6 1.2L722.6 629c11.8-22.6 24.1-45.5 13-71.7-1.2-.2-2.2-.7-3.4-1-8.2 22.2-16.4 44.3-24.3 66.5zM406.6 330.4l-2.9-1.4c-2.2 4.1-4.6 8.2-6.7 12-6.3 10.6-12.8 11.6-20.7 2.2-6.3-7.7-13.7-6.3-22.4-4.1 7.9 7.7 16.6 14.7 26 20.2 7.5 4.3 12.8 1 15.6-7.2 1.7-4.6 4.8-8.9 7-13.2 1.4-3 2.6-5.6 4.1-8.5zm82 338.1c-1.2-.7-2.4-1.2-3.6-1.9-10.6 20.2-21.2 40.4-31.8 60.9 1.2.5 2.4 1.2 3.4 1.7 10.9-20.3 21.5-40.5 32-60.7zM346.4 379.2c.2 1.4.2 2.9.5 4.3 2.6-.5 5.1-.7 7.7-1.2 4.6-.7 9.6-3.4 13.7-1.9 13.7 4.3 25.5 1.9 36.1-5.5-19 1.4-38.5 2.9-58 4.3zm220.5 144.9c0 1.4-.2 2.6-.2 4.1h43.6c-1.7-1.9-3.4-6.3-5.3-6.3-12.9.3-25.4 1.5-38.1 2.2zm-94.6 210.1c1 .5 2.2.7 3.1 1.2 4.8-17.6 9.6-34.9 14.4-52.5-1-.2-1.7-.5-2.6-.7-4.8 17.3-9.9 34.7-14.9 52z"/><path class="st1" d="M393.6 650.7c3.1 12 7 24.1 9.1 36.3 2.4 12.8 4.6 25.5 5.1 38.3.2 7.5 2.6 12.3 8.2 16.4 14.7 11.6 31.5 14 49.3 10.6 2.9-.5 5.5-1 10.8-1.9-18.3 18.3-38 16.1-58.5 12.3 5.5 9.4 8.7 10.8 26.5 11.8 0 1 .2 1.9.2 2.9-8.9.7-17.8 1.4-26 1.9 4.6 6.7 4.6 6.7 39.2 7.2-17.1 10.8-33.5 7.9-50.1.2-1.4 4.8-2.6 8.9-4.3 14.4-5.1-2.6-9.1-5.1-14.7-7.9-20.7 28.2-46.4 32.5-76.8 13-5.5 7.2-10.6 14-16.4 21.7-1-6.3-1.9-11.8-2.9-17.6-6.3 5.7-12.5 11.7-19.3 17.3-2.2 1.9-5.3 3.4-8.2 3.6-4.1.5-8.4-.2-12.5-.2.5-3.9 1-7.7 1.7-11.3.5-2.2 1.4-4.3 2.4-7-4.6-.5-8.4-1-15.9-1.7 5.5-9.1 9.9-16.4 13.2-22.1-5.5.5-14.2 1-22.9 1.7 0-.5-.2-1-.2-1.4 7.7-2.9 15.4-5.8 23.3-8.7 0-.7-.2-1.4-.2-2.2-4.3 0-9.1-.7-13.2.2-21.2 4.6-39.7-1.4-57.3-12.8-2.4-1.7-7-2.2-9.6-1.2-21.4 8.2-39-1.2-42.1-23.8-2.9-15.9-4.8-30.8-12.3-45.2-3.1-6-2.9-15.9-.5-22.6 6.5-18 4.3-34.7-4.6-50.8v-10.3c2.6-5.5 5.5-11.1 8.2-16.6-3.6 8.7-6 17.3-1.9 26.5 5.8 13 7.5 26.7 6.3 40.9-.5 4.3 1.2 9.1 2.4 15.6 2.6-3.4 3.6-4.8 5.1-6.7 1.4 2.4 2.6 4.3 3.9 6.3 1.7-3.9 3.1-7.2 4.6-11.1 2.2 1.4 3.6 2.6 5.1 3.6 1.4-2.6 2.6-5.3 4.3-8.7 1.7 1.9 3.1 3.4 4.3 4.6 1.4-3.4 2.9-7 4.6-11.3l8.7 17.3c1-.2 1.9-.7 2.9-1v-18.8c6-2.4 10.3-2.9 13.5-5.3 19.7-15.2 16.6-37.3 18.8-60.9-13 21.2-24.3 39.5-35.6 58-.5-.2-1-.5-1.7-.7.5-4.3.7-8.7 1.2-13l-1.9-1.9c-9.6 9.6-19.3 19.5-29.4 29.6-5.8-24.8-20-50.1-1.9-77-3.1 2.6-6.3 5.3-9.1 7.7 8.7-12 12.3-23.3 1.7-37.1-5.1-6.5-1-14.2 6.3-19 16.1-10.8 16.1-10.8 6.7-28.2-1.2-2.4-2.9-5.1-3.1-7.5-.5-8.9-3.9-20.5.5-26 6.3-8.2 6.5-15.6 6.7-24.3.2-8.9-1.2-18 .5-26.5 1.9-10.1 4.8-20.7 10.3-28.9 6.3-9.4 14.2-7.9 21.2 1.2.7 2.4 1.7 4.6 2.4 7-2.4.5-5.1 1.9-7.5 1.4-4.8-.7-9.6-2.4-14.9-3.9-4.6 14.9-2.9 28.6 7.5 38.7 16.8 16.6 35.1 31.3 54.4 48.4-1-17.1-6-28.9-19.3-35.6-12.5-6.3-14.7-17.3-14.2-29.4.2-3.9 2.4-10.3 5.1-11.1 3.6-1 8.9 1.7 12.3 4.1 4.3 3.4 7.5 8.4 11.1 12.8-2.4-11.6-.2-25.3-16.4-29.1 10.8-6.5 21.2-12.8 31.5-18.8l-.7-4.3c-4.3-.5-9.6-2.6-13.2-1-13 6.3-25.5 13.7-38 20.7 4.6-14.7 17.8-17.8 29.8-21.7 9.1-2.9 19-3.9 28.6-5.8-3.6-10.6-8.7-20-9.9-30.1s1.2-20.7 1.9-30.8c-14-2.6-14.2-3.4-10.1-14.7.5-1.2 1.2-2.6.7-3.6-5.8-10.6 1.4-17.3 5.5-22.6-7-9.6-14.9-17.6-19.7-27.2-5.5-10.6-.7-18.3 11.1-21.2 4.6-1.2 9.4-1.9 14.2-2.9-.2-1.2-.7-2.2-1-3.4-8.9 2.6-18.8 3.9-26.2 8.7-9.6 6.3-4.6 16.6-1.9 25.5-6.7-9.6-10.3-19.7-3.9-30.6 5.8-9.6 15.4-12 25.7-11.6 11.1.5 22.1 1.9 33 2.9 0-23.1 1.2-46.7-.2-70-1.4-23.6-8.7-46-27-63.1 17.6-23.8 40.9-40.2 69.5-49.1 11.8-3.6 24.3-5.8 36.6-8.4h32.7c13.7 2.6 27.4 4.8 40.7 8.2 18.3 4.6 34.9 13.2 49.3 25.5 4.6 3.9 5.3 7.2 3.1 13-12 32.2-18.3 65.5-11.1 99.9 1.9 8.7 5.5 17.1 8.2 24.8 12.3-2.9 22.6-5.3 33.2-7.7-16.6 7.7-32.7 15.9-49.6 23.1-46.2 19.7-94.1 27.4-143.9 20-18-2.6-35.6-8.7-53.4-13-11.8-2.9-24.1-5.3-34.4.5 9.9 1.2 21.2 1.2 31.8 3.9 44 10.6 87.8 20 133.3 10.8 42.4-8.4 85.2-16.1 120.3-44.3 4.8.7 12 0 13.5 2.6 1.9 3.1 0 9.6-1.7 14-1.9 4.8-5.5 9.1-9.6 15.9 4.3-3.1 6.5-4.6 8.9-6.3 4.1 9.1 11.1 11.6 17.8 6.3 14.2 11.6 17.6 25.5-3.9 46.7 8.9 12 7.7 24.8-4.1 37.3-4.1 4.3-7.9 11.8-16.8 5.5 4.6-3.9 9.1-7 12.8-10.6 6-6 10.6-14.2 6.7-22.1-4.6-9.1-1.7-14.4 5.1-19.7 1.2-1 2.2-2.6 3.1-4.6-15.9 10.6-27.2 1.2-39.9-7.2 1.4 2.9 2.9 5.5 5.5 10.1-5.3-3.9-8.9-6.5-12.8-9.1-.7.7-1.2 1.4-1.9 2.2 7 5.3 14 10.3 21.9 16.4-5.1-.7-9.1-1.4-14.4-2.2 1.4 2.2 2.6 3.9 4.8 6.7-4.3-1-7.7-1.4-9.6-1.9 0 5.3-.7 10.6.2 15.6.5 2.4 6.5 6.3 7.2 5.5 5.5-3.9 10.3-8.7 15.4-13.2.2 1.7.5 5.3 1.2 11.3 2.4-6.3 4.1-10.6 6-15.6 4.6 7 3.4 13.5-1.2 19.3-7 8.9-15.6 4.8-26.2.5 2.2 5.1 2.6 9.4 5.1 11.3 24.5 19.3 38 45.7 50.3 73.4.7 1.7 2.2 3.4 4.6 4.6-1-4.1-1.9-8.2-2.4-10.3 7.9 1 16.4 1.2 24.1 3.4 23.3 6.3 48.6 5.5 70.5 18.8 5.8 3.6 13.5 5.5 20.2 5.5 16.4 0 26.7 7.7 34.9 20.9 7.5 12 15.4 23.8 24.1 35.1 13.7 17.6 14.7 36.8 10.1 57 13 7.9 16.6 14.9 12 29.6-8.4 27.4-22.6 51.7-47.2 69.1 1.7-2.9 3.4-5.5 5.1-8.4 1.9-3.1 3.9-6 4.8-9.9l-21.7 18.8c-.5-.5-1.2-1-1.7-1.4 6.3-7.2 12.3-14.7 18.5-21.9-.5-.5-1-1-1.4-1.2-6.7 4.8-13.2 9.6-20 14.4 18.8-25.3 48.1-43.3 49.8-78.7-13.5 28.4-32 52.5-56.6 71.7-1.2-.2-2.2-.5-3.4-.7.5-8.4-1-17.8 1.9-25.3 5.8-15.4 13.2-30.6 21.2-45 14.9-27.4 15.6-55.3 3.9-83.5-2.9-7-8.2-13.2-13.2-19-2.4-2.9-7.5-6.5-10.3-5.8-12 3.4-17.8-7-26.5-10.3-10.3-3.9-21.2-7.2-32.2-7.9-9.9-.5-18.8-1.2-27.2-6.5-4.1-2.6-9.1-3.4-15.6-5.5 3.4 14.2-5.5 17.6-16.6 20.9 5.3 4.8 8.9 8.7 13.2 11.8 15.4 10.8 17.3 17.1 9.9 34.4-1.4 3.1-2.4 6.3-3.9 9.1 9.9 4.3 22.6 2.9 28.9-3.9 6.7-7.2 4.1-15.2 1.2-22.9-1.7-4.1-2.6-8.2-1.9-13.2 5.8 11.8 11.6 23.6 17.3 35.9 12-1.7 25.5 13 22.9 31-5.8 38.3-11.3 76.8-29.4 111.9l.2.2c0-3.1-.7-6-.2-9.1 1.9-14.2 3.6-28.4 6.7-42.4 2.9-13.2 6.7-26.2 11.6-38.7 5.5-13.7 6.3-27.2 1.7-40.9-1.2-3.6-3.6-7-4.3-8.7-13.7 5.1-25.7 10.1-38.3 13.7-16.6 5.1-32.7 1.4-46.9-7.9-7.5-5.1-11.3-2.2-14.2 4.6-4.3 10.6-4.6 21.7 1.4 31.5 11.1 18.3 13.5 37.5 8.9 60.6-4.6-9.1-8.4-16.4-12.3-23.8-.7 0-1.4.2-2.2.2 2.6 53.9 4.6 107.8 8.7 161.5 2.2 30.1 9.4 39.5 33.9 57.3-4.6 1.4-8.7 2.6-11.8 3.6 3.1 9.6 6.5 19.3 9.6 28.9l-2.9 1.4c-3.4-1.9-7-3.9-10.3-5.5l-10.8 14.4c-1.2-.2-2.2-.7-3.4-1 7.7-19.3-1.4-35.1-8.4-51.7-9.9-22.9-16.6-46.7-16.1-72.2 1.2-59.7 1.4-119.4 2.2-179v-16.8c-25.7 14-48.9 8.9-72.7-3.6 4.1 5.1 7.9 10.1 12.3 15.4-2.2.5-4.6.7-7.7 1.2.7 2.2 1.2 4.3 2.2 7.9-2.9-2.6-4.6-4.3-6.5-6l-2.9.7c1.2 9.6 2.6 19 3.9 28.6-.7.2-1.2.2-1.9.5-1.4-7.9-3.9-15.6-4.3-23.6-.5-7.5 1.7-14.9 1.2-22.4-.7-8.9-3.1-17.6-4.8-27.2 0 0 1.9-.5 5.8-1.2-4.1-5.8-7.7-10.8-11.6-16.4h5.8c-4.6-6.5-8.9-12.3-13.2-18.3.7-.7 1.4-1.4 2.2-2.4 6.7 5.5 13.7 10.8 20 16.1 27-14.2 40.2-42.6 58.2-68.1-4.1-2.6-10.1-7.5-16.8-10.8-1.9-1-7.9 1.4-8.9 3.9-4.6 10.8-7.9 22.4-9.9 34.9 2.9-2.6 6-5.5 8.9-8.2-6.3 12.3-9.6 27-24.8 31.8 7.2-20 14.9-39.5 21.2-59.4 1.9-6.3-.5-13.7-1-20.7-1.7-.2-3.6-.5-5.3-.7-5.8 15.2-11.3 30.3-17.1 45.7-4.1-5.8-7.9-11.6-12-17.6.5-.7.7-1.2 1.2-1.9 3.9 1.9 7.7 3.9 11.8 6 1.4-5.3 3.4-11.6 5.3-18.5l-10.8-1.4c-.2-1-.5-1.7-.7-2.6 4.3-2.4 9.1-4.3 13-7.5 3.1-2.4 5.8-6.3 7-9.9 3.4-8.9 6.7-17.8 8.2-27 1.7-12 1.4-24.1 1.7-36.3 0-1-2.2-2.2-3.6-2.9-6-3.9-14.2-5.8-13.2-15.4 1.7-.2 4.1-.5 6.7-.7-9.1-7.5-17.1-7.7-35.4-1.4 1.4 1.4 2.6 2.9 1.9 2.2-14.4 5.8-29.6 12-44.5 18l.2-.2c-13.2-1-26.5-2.4-39.7-2.4-9.6.2-19.5 2.6-29.1 4.1 0 1.2.2 2.6.2 3.9 2.4.2 5.1.5 6 .7-5.1 5.5-10.6 11.6-16.4 17.6.7 1 1.4 1.9 2.2 3.1 6-15.4 20-9.9 30.1-11.3 10.3-1.4 21.9 4.6 34.4 7.7 1-1.4 3.4-4.1 4.3-5.5 1 19 1.9 39.2 2.9 62.6-5.1-10.8-8.9-19.3-13-27.7-1.7-3.4-4.3-6.3-5.8-9.6-.7-1.7 0-3.9.2-5.8-4.8-2.6-9.9-5.3-15.2-7.9-8.7 10.3-12.3 10.8-20.7 1.4-2.9 2.2-5.8 4.3-9.4 7 10.1 10.1 20 2.2 29.4 1.7.2 1 .5 1.9.7 3.1-7.9 1.7-15.9 3.4-23.3 5.3 2.6 7 2.9 7 17.3 7.9-13.7 7.2-23.3 1.9-27-15.9-1.9 3.6-3.4 6.3-4.8 8.9-2.2-1.7-4.3-3.1-6.3-4.8 1.2-1 2.6-1.9 4.6-3.4-13-6-6.7-13.2-1.7-20.5-2.6-4.8-5.3-9.1-8.7-15.4-1.4 7.9-2.6 14-3.6 19.5 1.4-.7 3.1-1.4 4.8-2.2.5.5.7 1 1.2 1.2-4.1 5.3-7.9 10.6-11.8 15.9 7.2.2 8.9 5.1 6.3 17.8 1.9.5 3.9.7 5.8 1.2-.7 3.4-1.4 6.7-2.2 10.3l1.4.7c2.6-2.9 5.3-6 7.7-8.9.2.2.7.2 1 .5-1.7 3.6-3.9 7.2-4.8 11.1-1 3.1-1.4 6.7-.7 9.9 1.7 7.2 6 10.6 14 8.2 3.9-1.2 7.9-1.4 12.3-1-2.6 10.3-11.1 10.3-17.1 11.8-6.5 19.3 6.7 28.4 20.5 40.4-3.9-16.4-8.7-31 4.8-43.8-.7 5.8-1.4 10.6-2.4 17.3 2.4-2.6 3.9-4.1 6-6.5v13.2c2.6-2.9 4.1-4.6 5.5-6.3 4.6 17.8-7.5 39.7 16.6 51.5 1.2-3.9 2.2-7.2 3.9-12 2.2 5.8 3.9 9.6 5.3 13.7 4.1-7 7.9-13.2 11.8-19.7-3.4-2.2-6.5-4.1-7.9-4.8 13.2-1.7 27.7-3.4 41.9-5.3-.7 1-1.7 2.9-3.1 5.1 2.2 1 4.3 1.9 6 2.9-.2 3.9-7.9 8.7-11.8 7.7-.7-.2-1.2-.5-1.9-.2-11.8 2.4-20.2 19.7-15.4 33.2 15.4-7 29.6-2.4 40.9 8.7 3.9 3.9 3.4 12 4.8 18.3-1 .2-1.9.5-2.9.5-.5-2.6-1-5.5-1.4-8.4-2.4 6.5-4.6 12.5-6.5 17.6 1.7 4.1 4.1 8.2 4.8 12.5.7 5.1-.2 10.1 0 15.4.2 15.6 7.5 22.1 22.6 22.6-4.6 0-9.6 1.4-13.7-.2-8.4-3.4-12.3-14.4-13.2-35.4-11.1 10.6-16.6 21.7-18.5 36.1-1 6.7-8.2 12.8-12.8 19.5 10.6 7.5 6.7 19.7 3.9 30.8-6.3 24.5-5.1 48.6 1.9 72.7.5 1.7 1.4 2.9 2.2 4.3l-1.3-.5zm115.3-433c-11.3-10.6-16.4 3.1-25.5 5.3 7 7.9 12.8 7.2 19 1.2 2.2-2.2 4.6-4.3 7-6.5.5 4.3.7 8.4 1.4 14.7 2.4-4.6 4.1-7.7 6-11.3 7.5 10.8.2 15.9-7.5 21.4 12-1.9 18.3-9.1 16.6-18.8-2.4-11.2-11-5.7-17-6zM278.8 58.2c.5.2.7.7 1.2 1-2.4 4.3-4.8 8.7-7.9 14.2 4.1-1.7 6.7-2.9 9.4-4.1.2.5.7 1 1 1.4-3.4 4.3-7 8.4-11.8 14.4 5.5-2.6 9.1-4.3 14.9-7-3.9 5.5-6.3 8.9-9.1 13 4.3-.7 7.9-1.2 13.5-1.9-5.3 4.6-9.1 7.9-12.8 11.3.2.2.5.7 1 1 3.9-1.2 7.5-2.6 11.3-3.9.2.5.5 1 .5 1.4-4.3 3.6-8.9 7.2-15.2 12.3 8.2-1.4 13.7-2.6 19.3-3.6.2.7.2 1.7.5 2.4-5.1 2.6-10.1 5.3-17.1 8.9 8.7-1.7 15.2-2.6 21.4-3.9.2 1 .5 1.9 1 2.6-1.7 1-3.4 1.9-6.3 3.4 5.3.5 8.4 1 12 1.2-1.7 2.2-2.4 3.1-3.1 4.3.2.2.5.2.2 0 45.2-7.5 90-19.5 134.3-5.3 6-22.6 12-45.2 18.3-68.8.7.7.2 0-.7-.7-51.1-34.8-105-42.7-163-21.5-12.5 4.6-21.9 10.8-24.3 24.5 3.1-1.9 6.3-4.1 9.1-6.3.5.5 1 1.2 1.4 1.7-2.9 4.3-5.5 8.7-8.9 14.2 4.1-2.4 7-4.3 9.9-6.2zm68.8 553.5c-1.9.5-3.6 1-5.5 1.4-2.6-8.7-5.5-17.3-8.4-26.7-4.3 9.6-8.2 18.3-12.3 26.7-.2-11.6 9.1-21.2 4.1-33-7.7 19.5-15.4 39-22.6 57-.5 0 1.4-.5 3.6-1 .2.7.7 1.2 1 1.9-9.1 6.7-18 13.7-27.2 20.5 13.5-21.7 11.6-41.2-2.2-61.8-7.7-11.6-12.3-25.7-15.9-39.2-2.9-10.8-2.6-22.6-3.6-33.5-20 18.5-30.8 42.1-35.9 69.1-3.9 21.2-2.6 41.6 8.4 60.4 4.3 7.2 10.6 14.7 17.8 18.8 5.3 2.9 13.7.5 21.7.5-1.9 4.3-4.1 9.6-6.5 15.2 6.5 2.6 13.5 4.6 19.7 7.7 12.3 6 27.7-.5 32.2-13.5-7 3.1-14.7 6.5-22.1 9.9-.5-.7-.7-1.4-1.2-2.4 9.6-6.3 21.2-10.3 22.9-23.8-3.1-1.4-5.5-2.6-9.4-4.3 3.6-5.3 6.5-9.9 10.3-15.9-5.3 3.1-8.9 5.3-14.9 8.7 13.2-21.4 32.7-27.2 52.5-32.2 1-21.4-8.2-44.3-18.3-48.9 3.6 12.6 7.7 25.6 11.8 38.4zm-20.9-148c10.6 1.9 19.7.5 20.5-8.7.7-10.8-1.7-22.1-13-29.4 5.3 1.2 11.6 2.4 13.5 6 6.3 12.3 8.2 25.3-3.4 38 19.3 3.9 36.6 7.2 55.1 11.1 0 0 .7 2.2 1.9 5.3 2.4-3.1 3.9-5.3 5.8-7.7 2.2 3.1 4.1 5.8 6 8.7 1-.5 1.9-1 2.9-1.2-1.7-3.6-2.2-8.7-4.8-10.3-8.4-5.5-17.6-9.9-26.2-14.9-2.6-1.4-6-3.4-7-6-7-18-21.2-28.6-37.8-35.9-4.8-2.2-13.5-1.4-17.8 1.7-11.8 8.2-17.8 21.2-21.9 34.7-2.4 7.7 1.9 15.9 7.7 17.3 4.1 1 8.2 2.6 12 4.1-2.9 2.6-5.8 3.6-8.7 4.1-3.1.5-6.5.7-9.9 1-.2 3.4-.5 5.3-.5 7.2.5 13 2.6 13.7 15.2 12.5 10.6-1 21.4 0 32 1 13.5 1.2 26.7 3.9 40.2 4.6 7.9.5 13-4.6 14.4-12.8-20.5-6-40.2-11.6-61.6-9.4-12.8 1.4-13 0-14.2-14.7 3.1 1.7 6.3 3.6 9.1 5.3.5-.7 1-1.2 1.4-1.9-2.5-2.5-5.6-5.1-10.9-9.7zm-38.8 33c-1-.2-1.9-.7-3.1-1-6 14.9-15.6 29.6-17.1 45-1.7 22.4 5.5 44.3 19.7 63.1 5.5 7.5 9.6 15.9 15.2 25.5 4.6-10.6 9.4-21.7 14-32.7-.7-.2-1.7-.7-2.4-1-2.2 1.2-4.6 2.4-8.7 4.6 3.9-7.9 6.3-13.7 9.4-19.5 1.9-3.4 3.9-7.2 6.7-9.6 11.1-8.9 22.9-17.3 35.4-26.5-6.5-2.2-11.6-3.9-17.8-5.8 2.2 2.9 3.6 4.6 6.5 8.4-11.1-3.6-19.7-6.5-29.4-9.4 5.1 5.8 9.4 10.8 13.7 15.6-25.2-7.2-43.5-26.2-42.1-56.7zM151 485.4c-1.2 1.2-2.4 2.2-3.4 3.4 10.1 11.1 20.2 21.9 30.1 32.5.5 0-1.2 0-2.2.7-4.8 3.4-12.8 6.7-13 10.6-.5 5.1 4.1 11.8 8.4 15.6 6.7 6.3 14.9 10.6 23.1 16.1 5.3-13-2.9-21.4-9.4-29.8 9.4 0 18.3-1.2 27 .2 14.7 2.4 17.8 13.2 8.7 24.3-6-5.3-11.8-10.8-17.8-16.4.2 11.8 4.3 22.4-6.3 30.8-5.3-1.9-10.3-3.9-16.1-5.8 1.9 15.2-6.3 27.7-21.7 34.9.5-3.6 1-7.2 1.2-10.8-.7-.5-1.7-1-2.4-1.2-2.4 2.9-4.8 5.8-7 8.7-4.8 6.7-6.3 14-.7 20.7 5.8 7 13.2 5.1 19.5 1.2 5.5-3.4 11.1-7.2 14.9-12.3 6.5-9.1 10.8-20.2 17.8-28.6 7.2-8.9 17.6-14.9 25.3-23.6 8.7-9.9 6.3-20.5-5.1-27.7-4.6-2.9-10.1-4.3-14.4-7.5-10.8-7.9-21.7-16.1-32-24.5-3.1-2.6-5.5-6.3-8.2-9.6-.5.2-.7.5-1.2.7 1.2 2.6 2.6 5.5 4.8 10.1-8.1-5-14.1-8.9-19.9-12.7zm260.9-336.5c7-1.7 12.5-3.4 18.3-4.1 9.6-1 10.6-7.5 7.7-13.5-1.4-3.6-7.5-6.5-11.8-7-14.2-1.7-28.6-2.6-42.8-2.9-7.5-.2-15.2 1.2-23.6 1.7 11.8 19 13 20 31.5 21.9 5.3.5 10.3 1.2 16.6 2.2-2.6 3.6-4.8 6.3-6.7 8.9-15.6 19.5-15.9 19.7-2.4 41.4 1.9 3.4 7 8.2 8.7 7.5 7.7-2.6 18.3 0 21.9-11.1 7.4-24 5.4-29.6-17.4-45zm-106.1 14.2c8.4 5.1 14.7 9.9 21.7 13 6.5 3.1 7.9 7 6.5 13.7-1.4 6.3-1.7 12.8-2.9 22.1 8.7-7.2 15.4-12 21.2-17.6 4.3-4.1 8.2-4.3 13.5-1.9 10.3 4.8 20.9 8.7 33.7 14-5.5-9.1-9.1-16.1-13.7-22.4-5.3-6.7-4.1-11.8 1.2-17.6 4.6-5.1 8.4-11.1 13-17.3-10.6-1-21.2 1-28.9-3.1-7.9-4.1-13.2-13.5-19.7-20.7-1.2 0-2.4.2-3.6.2.5 28.7-19.7 33.3-42 37.6zm19.7 50.8c1-6.3 1.2-12.3 3.1-17.6 2.9-8.9 0-13.7-7.9-17.8-7.7-4.1-14.4-9.4-22.1-14.4 16.1-11.3 42.6-9.4 42.4-38.7-19.5 5.5-38.5 11.1-57.5 16.6 1 .7 1.9 1.4 2.9 2.4-1 4.3-2.2 8.9-3.1 13.2 3.6 1.4 6.7 3.1 10.3 4.6-2.6 10.3-4.1 19.7 9.1 25-2.6 1.9-4.1 2.9-5.5 3.9-4.3 3.4-12 4.8-8.7 12.5 3.1 7.2 8.4 12 17.6 11.1 5.7-1.3 11.7-.8 19.4-.8zm135 242.8c10.6 5.1 20.2 9.9 30.3 13.7 1.9.7 5.8-.7 7.7-2.4 1.4-1.4 1.4-4.8 1.4-7.2-.2-4.1-3.4-10.1-1.7-12.3 7.7-8.7 7.2-18.3 6.3-28.6-.5-3.6 1.9-7.7 3.1-11.6 1-3.4 2.2-6.7 4.6-13.7-15.9 6-27.4-7.9-44.3-2.6 9.6 3.9 16.4 6.5 24.8 9.9-12.5 6.7-23.6-8.9-35.6 4.3 8.9 2.2 15.6 3.4 22.1 5.8 3.4 1.2 7.9 5.8 7.5 7.9-.5 3.4-4.6 8.4-7.7 8.9-5.3 1-11.3-.5-16.6-1.9s-10.6-3.9-15.6-6c2.2 7 6 12 9.4 17.3 2.4 5.5 12.5 7.9 4.3 18.5zm-218-146.5c-.7-1-1.4-1.7-2.4-2.6 9.6-9.4 19-18.8 28.6-28.2-.7-.7-1.4-1.4-2.4-2.2-2.6 2.2-5.1 4.3-7.7 6.5.7-4.1 2.2-7.5 4.3-10.3 2.2-3.1 4.6-6 7-8.9-.7-.7-1.2-1.4-1.9-2.2-4.1 2.9-8.7 5.3-12.5 8.4-4.6 3.9-7.7 9.1-12.8 12.3-10.6 6.3-14.2 22.6-8.4 29.8-2.4 9.4-6.5 17.3-5.5 24.5 1.2 8.7 6.3 17.1 11.3 24.5 3.6 5.5 9.6 4.1 14-.7 4.1-4.6 7.7-9.1 12-14.4-10.6-17.6-13.5-2.2-17.6 4.8-1.4-1.9-2.4-3.1-4.3-5.8-.7 5.3-1.2 8.9-1.9 14.9-5.8-12.5-3.1-21.9 1.9-31.3 4.6-8.7 8.2-17.6 13-28.9-5.8 4.2-10.4 6.9-14.7 9.8zM368.6 539c6.7-2.6 13.7-4.8 20-8.4 1.9-1.2 2.6-5.8 2.4-8.9 0-1-4.1-2.2-6.5-2.9-12.5-3.1-24.8-6.5-37.5-8.9-9.4-1.7-19.3-2.6-28.9-2.6-2.4 0-6.3 3.6-6.7 6.3-.5 2.4 2.2 6.7 4.6 7.7 16.5 7.6 32.3 17.5 52.6 17.7zm41.1-67.1c10.6-16.8 9.1-26.5-2.6-33.5-9.1-5.5-19.7-2.4-24.5 5.8 1.9 3.9 2.9 6.3 4.1 8.7 1.9-1.7 3.9-3.1 4.3-3.6 6.2 7.7 12 14.6 18.7 22.6zM279.8 211.7c-11.1-14-10.8-16.8 1-30.1 3.1-3.4 5.3-7.5 7.5-10.8-8.9-1.9-16.4-3.6-23.8-5.3-.7 8.7-1.4 18.3-2.2 27.7-.8 9.6 5.7 17.1 17.5 18.5zm0 125.9c5.3-10.1 3.4-23.3-5.3-31.5-2.6-2.4-8.9-5.3-9.6-4.8-3.1 3.6-6 8.2-6.7 12.8-.2 3.4 2.6 7.7 5.3 10.3 5 4.5 10.5 8.4 16.3 13.2zm-56.1-53c3.6-1.7 6.7-3.9 9.9-4.6 9.6-2.2 15.9-7 19.3-17.1 1.9-5.5 8.4-9.6 14.4-16.1-.2 5.5-.5 7.7-.5 9.9.7.2 1.2.5 1.9 1 3.6-4.3 7.2-8.7 12.3-14.7-25.7.2-32.2 23.3-48.4 33.5-5.3-11.3 5.3-14.7 8.9-22.1-15.9 9.6-21.2 18.5-17.8 30.2zm214.9-139c-5.3 1.2-11.1 2.6-17.6 4.1 15.2 12.3 21.4 26.5 16.4 45.7 5.1-2.4 9.1-4.3 13-6-3.9-15-7.5-28.7-11.8-43.8zm-49.3 63.5c-29.8-14.9-36.8-14.2-51.5 4.3 17.5-1.4 34.4-2.9 51.5-4.3zm-97.5 186.2c11.3 4.8 21.7 8.9 34.4 14.2-11.3-11.6-20.9-21.4-31.8-32.5-1.2 8-1.9 14.3-2.6 18.3zm8.2 46.5c5.5-9.4 10.6-18 15.6-26.7-.5-1-1.2-1.7-1.7-2.6-4.6 3.1-10.1 5.3-13.2 9.1-4.8 5.8-6 12.7-.7 20.2zm88.1-37.8c-.7-.5-1.4-1.2-2.2-1.7-4.6 2.2-11.3 3.4-13.5 7-3.4 5.3-4.8 12.8-5.3 19.3-.2 2.4 4.8 5.3 7.5 7.9 1.2-.5 2.4-.7 3.4-1.2-7.3-14-4.9-24.6 10.1-31.3zm83.5-124.9c.5 7 1.9 14.2 1.4 21.2-.5 6.7-2.6 13.5-4.1 20.2 7.7-13.5 9.9-27.4 2.7-41.4zm2.6 106.1c7.5 1.9 13 3.1 19.5 4.8-3.9-5.3-6.7-9.1-10.1-13.7-3.1 2.9-5.8 5.6-9.4 8.9z"/><path class="st1" d="M645.3 487.3c1.9 11.3 4.1 22.4 6 33 20.2-31.3 20.9-67.1 17.8-103.5 1.2-.2 2.6-.5 3.9-.7 2.6 7.7 6 14.9 7.5 22.9 7.5 36.3 1.2 69.8-21.7 99.4-8.4 11.1-10.6 23.3-9.4 36.6 1 11.6 1.4 23.1 2.4 34.7.2 3.4 1 6.7 2.2 9.9 10.1 27 11.1 42.6 3.1 73.6-4.1-10.6-7.2-18.5-10.1-26.5-16.1 19-16.1 19-26 18.5 2.6-18 23.1-33 10.3-55.6-5.1 8.9-9.1 16.6-13.2 24.1-2.2-16.6-1-31.8 4.3-47.2 5.5-15.9 6.5-33.2 11.3-49.6 6.7-22.6 14.7-44.8 7-68.8 1.5-.6 3.2-.6 4.6-.8zm-40.2 100.3c2.6 34.9-8.9 67.1-17.6 99.9-2.2 7.9-3.6 16.6 2.2 24.3 3.1-2.4 5.8-4.3 8.4-6.5l1.4 1.4c3.1-9.1 6.3-18.5 9.6-27.7-.5 22.9-8.7 49.6-14 47.2-1.2 2.9-2.4 6-4.1 10.3l-4.1-8.2c-1.2 2.9-2.4 5.5-4.1 9.1-1.7-3.9-2.9-6.7-4.1-9.9H576v41.4c-10.3-10.3-11.3-20.9-12-31-1.4-19.7 2.2-38.3 9.4-56.8 9.4-24.3 18.3-49.1 25.5-74.1 2.6-9.1.5-19.7.5-30.8 2.2 4.1 4.1 7.5 6.3 11.1-.3.6-.6.3-.6.3zm.5-76c-5.3-21.9-8.9-27.7-20-26-14 2.2-5.3 13.7-7.9 21.4-1.9-1.4-4.3-2.6-6-4.3-7.5-7.9-15.9-10.1-26.7-8.2-14.4 2.9-26-12.5-20-26 1-2.2 6.3-4.6 7.9-3.9 20.9 10.1 41.9 5.8 62.8.5 6-1.4 12.8-.5 19.3-.7 0 6.7 1.2 14-.2 20.5-2 9.1-6.1 17.8-9.2 26.7zM377 248.8c2.2 6.5 4.1 13.2 6.7 21.4 12-5.5 24.3-14.7 40.2-14.9-1.2-2.2-2.4-3.9-3.6-6.3 5.3 1.2 9.9 2.4 14.4 3.6.2-1.2.7-2.2 1-3.4 3.1 2.9 6.3 5.8 11.1 10.3-1.4-4.6-2.4-7.2-3.4-9.9 11.8 6 13.5 10.3 6.7 21.7-3.9 6.7-8.7 13-12.8 19.3-.7-.5-1.7-1-2.4-1.7 2.4-4.8 4.8-9.6 7.9-16.4-5.1 1.9-7.9 3.1-12.8 5.3 5.3-6.7 6.5-11.6-2.4-12.8-7.9 11.1-11.1 11.3-21.9 2.9.5 2.9.7 5.8 1.2 9.4-.5.2-2.9.7-5.3 1.4 1.4 10.6 7.7 13.2 17.3 11.6-7.7 6.5-9.4 5.8-23.8-8.2-1 12.3-1.7 23.1-2.9 36.6-5.8-23.6-10.8-44.8-15.9-65.9 0-1.4.7-2.8.7-4 .2-.2 0 0 0 0z"/><path class="st0" d="M494.2 177.8c-35.1 28.2-77.7 35.9-120.3 44.3-45.5 8.9-89.5-.5-133.3-10.8-10.6-2.6-21.9-2.6-31.8-3.9 10.6-5.8 22.6-3.1 34.4-.5 17.8 4.1 35.4 10.3 53.4 13 49.8 7.5 97.9 0 143.9-20 16.8-7.2 33-15.4 49.6-23.1 1.4.5 2.6.8 4.1 1z"/><path class="st1" d="M413.6 567.9c.5-7 1-14 1.4-21.9 3.4 6.3 6.3 12 10.1 19.3 3.6-17.1-12-26-13.7-40.9 3.4 2.2 5.5 3.6 8.7 5.5-2.6-6.5-5.1-11.8-7.2-17.1l3.6-1.4c3.1 8.9 6.3 17.8 9.1 27 3.4 10.1 6 20.7 19.5 23.1-2.9.7-6 1.4-6.7 1.7-3.6 7-6.5 12.3-9.1 17.1-7.5-3.9-13.5-7-19.5-9.9 1.6-.8 2.6-1.5 3.8-2.5zm294.3 54.9c8.2-22.1 16.4-44.3 24.5-66.7 1.2.2 2.2.7 3.4 1 11.1 26.5-1.2 49.1-13 71.7l10.1-41.9c-1-.5-1.7-.7-2.6-1.2-7 12.8-14.2 25.5-21.2 38.3-.7-.3-1-.8-1.2-1.2zm-314.1 28.4c-.2-2.4-.5-5.1-.7-7.2 8.7 5.3 16.4 10.1 24.5 14.9 15.6 8.9 23.1 19.7 24.5 37.3-16.8-15.6-32.7-30.6-48.6-45.5l.3.5zm12.8-320.8c-1.4 2.9-2.6 5.5-4.1 8.4-2.4 4.3-5.3 8.7-7 13.2-2.9 8.2-8.2 11.6-15.6 7.2-9.4-5.5-18-12.5-26-20.2 8.7-1.9 16.1-3.6 22.4 4.1 7.7 9.4 14.2 8.4 20.7-2.2 2.4-3.9 4.6-7.9 6.7-12l2.9 1.5zm82 338.1c-10.6 20.2-21.2 40.4-32 60.6-1.2-.5-2.4-1.2-3.4-1.7 10.6-20.2 21.2-40.4 31.8-60.9 1.2.5 2.4 1.3 3.6 2zM346.4 379.2c19.5-1.4 39-2.9 57.8-4.3-10.3 7.5-22.4 9.9-36.1 5.5-3.9-1.2-9.1 1.2-13.7 1.9-2.6.5-5.1.7-7.7 1.2 0-1.4-.3-2.8-.3-4.3zm220.5 144.9c12.8-1 25.3-2.2 38-2.4 1.7 0 3.6 4.3 5.3 6.3h-43.6c0-1 0-2.5.3-3.9zm-94.6 210.1c5.1-17.3 9.9-34.7 14.9-52 1 .2 1.7.5 2.6.7-4.8 17.6-9.6 34.9-14.4 52.5-1-.5-1.9-1-3.1-1.2z"/><path class="st0" d="M278.8 58.2c-2.9 1.9-5.8 3.9-9.6 6.3 3.4-5.3 6.3-9.6 8.9-14.2-.5-.5-1-1.2-1.4-1.7-3.1 2.2-6.3 4.1-9.1 6.3 2.4-13.7 12-20 24.3-24.5 58-21.2 111.9-13.5 162.2 21.7.7.5 1.4 1.4.7.7-6.3 23.8-12.3 46.2-18.3 68.8-44.3-14.2-89-2.4-134.3 5.3.2.2 0 0-.2 0 .7-1.2 1.7-2.2 3.1-4.3-3.6-.5-6.5-.7-12-1.2 2.9-1.7 4.6-2.4 6.3-3.4-.2-1-.5-1.9-1-2.6-6.3 1.2-12.5 2.4-21.4 3.9 7.2-3.6 12-6.3 17.1-8.9-.2-.7-.2-1.7-.5-2.4-5.5 1-10.8 1.9-19.3 3.6 6.3-5.1 10.8-8.7 15.2-12.3-.2-.5-.5-1-.5-1.4-3.9 1.2-7.5 2.6-11.3 3.9-.2-.2-.5-.7-1-1 3.9-3.4 7.5-6.5 12.8-11.3-5.5.7-8.9 1.4-13.5 1.9 2.9-4.1 5.3-7.5 9.1-13-5.8 2.6-9.1 4.3-14.9 7 5.1-6 8.4-10.3 11.8-14.4-.2-.5-.7-1-1-1.4-2.6 1.2-5.3 2.2-9.4 4.1 3.1-5.3 5.5-9.6 7.9-14.2 0-.8-.5-1.1-.7-1.3z"/><path class="st2" d="M418.9 116.2s12.5-76.3 19.7-72.7c7 3.6 14.4 3.4 14.4 9.9 0 6.3-16.6 62.6-18 66.4-3.1 0-16.1-3.6-16.1-3.6z"/><path class="st0" d="M347.6 611.7c-4.1-13-8.2-25.7-12.3-38 10.3 4.6 19.3 27.4 18.3 48.9-19.7 5.1-39.2 10.8-52.5 32.2 5.8-3.4 9.6-5.5 14.9-8.7-3.9 6-7 10.6-10.3 15.9 3.9 1.7 6.5 2.9 9.4 4.3-1.7 13.5-13.5 17.6-22.9 23.8.5.7.7 1.4 1.2 2.4 7.7-3.4 15.2-6.7 22.1-9.9-4.3 12.8-19.7 19.3-32.2 13.5-6.3-3.1-13.2-5.1-19.7-7.7 2.4-5.5 4.8-10.8 6.5-15.2-7.9 0-16.4 2.4-21.7-.5-7.2-4.1-13.5-11.6-17.8-18.8-11.3-18.8-12.5-39.2-8.4-60.4 5.1-27 15.9-50.8 35.9-69.1 1 11.1.7 22.6 3.6 33.5 3.6 13.7 8.2 27.9 15.9 39.2 14 20.7 15.6 39.9 2.2 61.8 9.1-6.7 18-13.7 27.2-20.5-.2-.7-.7-1.2-1-1.9-1.9.5-3.9 1-3.6 1 7.2-18 14.9-37.5 22.6-57 5.1 11.8-4.1 21.4-4.1 33 3.9-8.7 7.7-17.1 12.3-26.7 2.9 9.4 5.8 18 8.4 26.7 2.4-.8 4.3-1.3 6-1.8zm-65.2 7.7c-.7.5-1.4 1-2.2 1.2-.2 3.6-.5 7-1 10.6-3.1-1-6.5-1.7-9.4-2.9-4.3-1.9-8.2-4.3-14.2-7.5 3.9 6.5 5.8 11.6 8.9 15.4 2.6 3.1 7.9 7.7 9.9 6.7 4.1-1.9 7.9-6.5 9.4-10.6 1.5-3.8-.7-8.6-1.4-12.9zm44.3-155.7c5.3 4.6 8.2 7.2 11.3 9.9-.5.7-1 1.2-1.4 1.9-3.1-1.7-6.3-3.4-9.1-5.3 1.2 14.4 1.2 15.9 14.2 14.7 21.4-2.2 41.2 3.4 61.6 9.4-1.4 7.9-6.7 13.2-14.4 12.8-13.5-.7-26.7-3.4-40.2-4.6-10.6-1-21.7-2.2-32-1-12.5 1.2-14.7.5-15.2-12.5 0-1.9.2-4.1.5-7.2 3.4-.2 6.5-.5 9.9-1 2.9-.5 5.8-1.2 8.7-4.1-4.1-1.4-7.9-3.1-12-4.1-5.8-1.4-10.1-9.6-7.7-17.3 4.1-13.5 10.1-26.5 21.9-34.7 4.3-3.1 13-3.6 17.8-1.7 16.6 7.2 30.8 17.8 37.8 35.9 1 2.6 4.3 4.3 7 6 8.7 5.1 18 9.4 26.2 14.9 2.6 1.9 3.4 6.7 4.8 10.3-1 .5-1.9 1-2.9 1.2-1.9-2.6-3.6-5.3-6-8.7-1.9 2.4-3.4 4.3-5.8 7.7-1.2-3.1-1.9-5.3-1.9-5.3-18.5-3.6-35.6-7.2-55.1-11.1 11.6-12.8 9.6-25.7 3.4-38-1.9-3.6-8.2-5.1-13.5-6 11.3 7.2 13.7 18.5 13 29.4-.9 9-10.3 10.4-20.9 8.5zm3.1-4.3c-4.6-10.3-8.2-18.5-11.8-26.7-7.9 3.9-10.3 9.6-8.4 16.6 1.7 6.5 15.9 12.5 25.3 11.3v-15.9c-.7 0-1.4-.2-2.2-.2-.7 4-1.4 7.9-2.9 14.9zm36.6-4.9c-3.6-7.7-6.5-14.2-10.8-23.3v27.4c6.3-.5 11.6-.7 18-1.2-1.2-4.1-1.9-7.7-3.4-13-1.6 4.4-2.6 6.8-3.8 10.1z"/><path class="st0" d="M287.9 496.7c-1.4 30.6 16.6 49.6 42.4 56.8-4.3-5.1-8.7-9.9-13.7-15.6 9.4 3.1 18.3 6 29.4 9.4-2.9-3.9-4.3-5.5-6.5-8.4 6.3 2.2 11.3 3.6 17.8 5.8-12.5 9.4-24.1 17.6-35.4 26.5-2.9 2.4-4.8 6.3-6.7 9.6-3.1 5.5-5.5 11.6-9.4 19.5 4.1-2.2 6.3-3.4 8.7-4.6.7.2 1.7.7 2.4 1-4.8 11.1-9.4 22.1-14 32.7-5.5-9.6-9.6-18-15.2-25.5-14-18.8-21.4-40.7-19.7-63.1 1.2-15.4 11.1-30.1 17.1-45 .9.1 1.9.4 2.8.9zM151 485.4c5.8 3.9 11.8 7.5 19.5 12.5-2.2-4.6-3.4-7.2-4.8-10.1.5-.2.7-.5 1.2-.7 2.6 3.1 5.1 7 8.2 9.6 10.3 8.4 21.2 16.8 32 24.5 4.3 3.1 9.9 4.6 14.4 7.5 11.3 7.2 13.7 17.8 5.1 27.7-7.5 8.7-18 14.7-25.3 23.6-7.2 8.7-11.3 19.5-17.8 28.6-3.6 5.1-9.4 8.9-14.9 12.3-6.3 3.9-14 5.8-19.5-1.2-5.5-6.7-4.1-14 .7-20.7 2.2-2.9 4.6-5.8 7-8.7.7.5 1.7 1 2.4 1.2-.5 3.6-1 7.2-1.2 10.8 15.4-7 23.6-19.7 21.7-34.9 5.8 2.2 10.8 3.9 16.1 5.8 10.3-8.4 6.5-19 6.3-30.8 6 5.5 12 10.8 17.8 16.4 9.1-11.1 6-21.9-8.7-24.3-8.7-1.4-17.6-.2-27-.2 6.7 8.4 14.7 16.8 9.4 29.8-8.2-5.5-16.4-10.1-23.1-16.1-4.3-4.1-8.9-10.6-8.4-15.6.5-3.9 8.4-7.2 13-10.6 1-.7 2.4-.7 2.2-.7-9.6-10.6-19.7-21.4-30.1-32.5 1.4-.8 2.6-2 3.8-3.2z"/><path class="st3" d="M411.9 148.9c22.9 15.4 24.8 20.9 17.1 44.8-3.6 11.3-14.2 8.4-21.9 11.1-1.9.7-6.7-4.3-8.7-7.5-13.2-21.9-13.2-21.9 2.4-41.4 2.2-2.6 4.1-5.3 6.7-8.9-6.3-.7-11.3-1.4-16.6-2.2-18.5-1.9-19.7-2.6-31.5-21.9 8.4-.7 15.9-1.9 23.6-1.7 14.2.5 28.6 1.2 42.8 2.9 4.3.5 10.3 3.6 11.8 7 2.6 6 1.9 12.8-7.7 13.5-5.5.7-11 2.6-18 4.3z"/><path class="st0" d="M305.8 163.1c22.4-4.3 42.6-8.9 41.6-37.3 1.2 0 2.4-.2 3.6-.2 6.5 7.2 11.8 16.6 19.7 20.7 7.7 3.9 18.3 2.2 28.9 3.1-4.6 6-8.2 12-13 17.3-5.3 5.8-6.5 11.1-1.2 17.6 4.8 6 8.2 13.2 13.7 22.4-12.8-5.3-23.3-9.1-33.7-14-5.3-2.4-9.1-2.4-13.5 1.9-5.8 5.5-12.5 10.3-21.2 17.6 1.2-9.4 1.7-15.9 2.9-22.1 1.4-6.5 0-10.6-6.5-13.7-6.7-3.4-12.9-8.2-21.3-13.3zm-129 230.6c12.8-7 25-14.4 38-20.7 3.4-1.7 8.7.5 13.2 1l.7 4.3c-10.3 6.3-20.7 12.3-31.5 18.8 15.9 3.9 14 17.6 16.4 29.1-3.6-4.3-6.7-9.4-11.1-12.8-3.4-2.6-8.7-5.1-12.3-4.1-2.4.7-4.8 7-5.1 11.1-.5 12 1.9 23.1 14.2 29.4 13.2 6.7 18.3 18.5 19.3 35.6-19.5-17.1-37.8-31.8-54.4-48.4-10.3-10.1-12-23.8-7.5-38.7 5.3 1.4 10.1 2.9 14.9 3.9 2.4.2 4.8-1 7.5-1.4-.6-2.6-1.4-5-2.3-7.1z"/><path class="st3" d="M325.5 213.9c-7.5 0-13.7-.5-19.7.2-9.1 1.2-14.4-3.6-17.6-11.1-3.1-7.7 4.6-9.4 8.7-12.5 1.4-1 2.9-1.9 5.5-3.9-13.5-5.3-11.8-14.7-9.1-25-3.4-1.4-6.7-2.9-10.3-4.6 1-4.3 2.2-8.7 3.1-13.2-1-.7-1.9-1.4-2.9-2.4 19-5.5 38-10.8 57.5-16.6.2 29.4-26 27.4-42.4 38.7 7.7 5.1 14.4 10.3 22.1 14.4 7.9 4.1 10.8 9.1 7.9 17.8-1.6 5.9-1.9 11.9-2.8 18.2z"/><path class="st0" d="M460.5 456.7c8.2-10.8-1.9-13-4.8-17.8-3.4-5.3-7.2-10.3-9.4-17.3 5.3 1.9 10.3 4.6 15.6 6 5.5 1.4 11.3 2.9 16.6 1.9 3.1-.7 7.2-5.5 7.7-8.9.2-2.4-4.3-6.7-7.5-7.9-6.3-2.6-13.2-3.6-22.1-5.8 12-13.2 22.9 2.4 35.6-4.3-8.4-3.4-15.2-6-24.8-9.9 16.8-5.5 28.4 8.7 44.3 2.6-2.2 6.7-3.4 10.1-4.6 13.7-1.2 3.9-3.6 7.9-3.1 11.6 1 10.3 1.4 20-6.3 28.6-1.7 1.9 1.2 7.9 1.7 12.3.2 2.4 0 5.8-1.4 7.2-1.7 1.7-5.5 3.1-7.7 2.4-9.6-4.5-19.2-9.3-29.8-14.4zM122.4 594.8c1.2-1.7 2.4-3.4 3.6-5.3 3.1-2.6 6.3-5.3 9.1-7.7-18 27-3.9 52.2 1.9 77 10.1-10.3 19.7-20 29.4-29.6l1.9 1.9c-.5 4.3-.7 8.7-1.2 13 .5.2 1 .5 1.7.7 11.3-18.5 22.6-36.8 35.6-58-2.4 23.6 1 45.7-18.8 60.9-3.1 2.4-7.2 2.9-13.5 5.3v18.8c-1 .2-1.9.7-2.9 1l-8.7-17.3c-1.7 4.3-3.1 7.7-4.6 11.3-1.2-1.4-2.4-2.6-4.3-4.6l-4.3 8.7c-1.4-1-3.1-2.2-5.1-3.6-1.7 3.9-3.1 7.2-4.6 11.1-1.2-1.9-2.2-3.9-3.9-6.3-1.4 1.9-2.6 3.4-5.1 6.7-1.2-6.7-2.9-11.3-2.4-15.6 1.2-14.2-.5-27.9-6.3-40.9-3.3-9.9-1.1-18.8 2.5-27.5zm120.1-284.6c4.3-2.6 8.9-5.5 15.2-9.4-5.1 11.1-8.7 20.2-13 28.9-5.1 9.4-7.7 18.8-1.9 31.3.7-6 1.2-9.6 1.9-14.9 1.9 2.6 3.1 4.1 4.3 5.8 4.1-7 7-22.4 17.6-4.8-4.3 5.3-8.2 9.9-12 14.4-4.3 4.8-10.3 6.3-14 .7-5.1-7.5-9.9-15.9-11.3-24.5-1.2-7.2 3.1-15.2 5.5-24.5-5.8-7.2-2.2-23.6 8.4-29.8 4.8-2.9 8.2-8.4 12.8-12.3 3.9-3.1 8.2-5.8 12.5-8.4.7.7 1.2 1.4 1.9 2.2-2.4 2.9-4.8 5.8-7 8.9-2.2 2.9-3.6 6.3-4.3 10.3 2.6-2.2 5.1-4.3 7.7-6.5.7.7 1.4 1.4 2.4 2.2-9.6 9.4-19 18.8-28.6 28.2.4.2 1.1 1.2 1.9 2.2zM368.6 539c-20.2-.2-36.1-10.3-52.5-17.8-2.4-1-4.8-5.5-4.6-7.7.5-2.4 4.3-6.3 6.7-6.3 9.6.2 19.5 1 28.9 2.6 12.5 2.4 25 5.8 37.5 8.9 2.4.5 6.5 1.7 6.5 2.9 0 3.1-.5 7.7-2.4 8.9-6.4 3.7-13.4 5.9-20.1 8.5zm41.1-67.1c-6.5-7.9-12.5-14.9-18.8-22.6-.5.5-2.4 1.9-4.3 3.6-1.2-2.4-2.2-4.8-4.1-8.7 4.8-8.2 15.4-11.3 24.5-5.8 11.9 7 13.1 16.6 2.7 33.5zM279.8 211.7c-11.8-1.4-18.3-8.9-17.6-18.5.7-9.6 1.4-19 2.2-27.7 7.5 1.7 15.2 3.4 23.8 5.3-2.2 3.4-4.6 7.5-7.5 10.8-11.8 13.3-12 16.2-.9 30.1z"/><path class="st0" d="M279.8 337.6c-6-4.8-11.6-8.4-16.1-13.2-2.6-2.6-5.8-7-5.3-10.3.5-4.6 3.6-9.1 6.7-12.8.5-.7 7 2.2 9.6 4.8 8.4 8.1 10.6 21.1 5.1 31.5zm-56.1-53c-3.4-11.6 1.9-20.5 17.8-30.3-3.9 7.5-14.4 10.8-8.9 22.1 16.1-10.1 22.6-33.5 48.4-33.5-5.1 6-8.7 10.3-12.3 14.7-.7-.2-1.2-.5-1.9-1 .2-2.2.2-4.6.5-9.9-6 6.5-12.5 10.6-14.4 16.1-3.4 10.1-9.6 14.9-19.3 17.1-3.4.9-6.3 2.8-9.9 4.7zm214.9-139c4.1 14.9 7.9 28.9 12 43.6-3.9 1.7-7.9 3.6-13 6 5.1-19-1.2-33.5-16.4-45.7 6.6-1.3 12.1-2.7 17.4-3.9z"/><path class="st3" d="M389.3 209.1c-17.1 1.4-34.2 2.9-51.5 4.3 14.6-18.5 21.9-19.2 51.5-4.3z"/><path class="st0" d="M291.8 395.3c.7-4.1 1.4-10.3 2.6-18.3 10.8 11.1 20.5 20.9 31.8 32.5-12.7-5.2-23.1-9.3-34.4-14.2zm8.2 46.5c-5.3-7.5-3.9-14.4.5-20.2 3.1-4.1 8.9-6.3 13.2-9.1.5 1 1.2 1.7 1.7 2.6-4.8 8.6-10.1 17.5-15.4 26.7zm208.9-224.1c6.3.5 14.7-5.1 16.6 6 1.7 9.4-4.6 16.8-16.6 18.8 7.7-5.5 14.9-10.6 7.5-21.4-1.9 3.6-3.4 6.5-6 11.3-.6-6-1.1-10.3-1.5-14.7zM388.1 404c-14.9 6.5-17.3 17.3-10.1 31.3-1.2.5-2.4.7-3.4 1.2-2.6-2.6-7.5-5.5-7.5-7.9.5-6.5 1.7-13.7 5.3-19.3 2.4-3.6 8.9-4.8 13.5-7 .7.5 1.4 1.2 2.2 1.7zm121-186.5c-2.4 2.2-4.8 4.3-7 6.5-6 6-12 6.7-19-1.2 9.1-1.9 14.2-15.9 25.5-5.3.3.2.5 0 .5 0zm-37.5 61.6c7.2 14.2 5.1 27.9-2.6 41.4 1.4-6.7 3.6-13.5 4.1-20.2.4-7-.8-14.2-1.5-21.2zm2.6 106.1c3.9-3.4 6.5-6 9.6-8.9 3.1 4.3 6.3 8.4 10.1 13.7-6.7-1.6-12.2-2.8-19.7-4.8z"/><path class="st1" d="M282.4 619.4c.7 4.3 2.9 9.1 1.7 12.8-1.4 4.3-5.3 8.9-9.4 10.6-1.9 1-7.2-3.6-9.9-6.7-3.1-3.9-5.3-8.7-8.9-15.4 6 3.1 9.9 5.5 14.2 7.5 2.9 1.4 6.3 1.9 9.4 2.9.2-3.6.5-7 1-10.6.5-.1 1.2-.6 1.9-1.1zm47.4-160c1.4-7 2.2-11.1 2.9-14.9.7 0 1.4.2 2.2.2v15.9c-9.6 1.2-23.8-4.8-25.3-11.3-1.7-7 .5-12.8 8.4-16.6 3.6 8.4 7.2 16.3 11.8 26.7zm36.6-4.9c1.4-3.6 2.4-5.8 3.9-10.1 1.4 5.1 2.4 8.7 3.4 13-6.5.5-11.8.7-18 1.2v-27.4c4 9.1 7.1 15.6 10.7 23.3z"/><path class="st2" d="M379.2 22.1s19.3 2.4 35.4 9.9c1.2.5-24.1 68.6-22.4 81.3-2.6 1.2-20 0-29.1 2.2 2.1-22.4 1.9-73.4 16.1-93.4zm-68.4 102.3s-19.7-88.1-23.1-90.5c3.4-1.9 20.7-9.9 38.5-11.1 1.7 0 14.2 91.7 11.3 96.3-4.1 1.4-26.7 3.6-26.7 5.3z"/></svg>