<svg id="Layer_1" xmlns="http://www.w3.org/2000/svg" viewBox="0 0 200 200"><style>.st0{fill:#6d6d6d}.st1{fill:#020210}.st2{fill:#c5eceb}.st4{fill:#fff}</style><path class="st0" d="M124 80.1h16v12h-16z"/><path class="st1" d="M100 161.1c-33.6 0-61-27.4-61-61s27.4-61 61-61 61 27.4 61 61c0 33.7-27.4 61-61 61zm0-120c-32.5 0-59 26.5-59 59s26.5 59 59 59 59-26.5 59-59-26.5-59-59-59z"/><path transform="rotate(-49.722 99.997 100.1)" class="st2" d="M84 12.1h32v176H84z"/><path class="st1" d="M178.1 144.1L43.9 30.2c-.5-.4-1-.3-1.4.1L21.8 54.7c-.4.5-.3 1 .1 1.4L156.1 170c.5.4 1 .3 1.4-.1l20.7-24.4c.3-.4.3-1-.1-1.4zm-21.5 23.8l-1.5-1.3 1.9-2.3c.4-.5.3-1-.1-1.4-.5-.4-1-.3-1.4.1l-1.9 2.3-1.6-1.3 1.9-2.3c.4-.5.3-1-.1-1.4-.5-.4-1-.3-1.4.1l-1.9 2.3-1.5-1.3 1.9-2.3c.4-.5.3-1-.1-1.4-.5-.4-1-.3-1.4.1l-1.9 2.3-1.5-1.3 1.9-2.3c.4-.5.3-1-.1-1.4-.5-.4-1-.3-1.4.1l-1.9 2.3-1.5-1.3 1.9-2.3c.4-.5.3-1-.1-1.4-.5-.4-1-.3-1.4.1l-1.9 2.3-1.5-1.3 1.9-2.3c.4-.5.3-1-.1-1.4-.5-.4-1-.3-1.4.1l-1.9 2.3-1.5-1.3 1.9-2.3c.4-.5.3-1-.1-1.4-.5-.4-1-.3-1.4.1l-1.9 2.3-1.5-1.3 1.9-2.3c.4-.5.3-1-.1-1.4-.5-.4-1-.3-1.4.1l-1.9 2.3-84.1-71.2 1.9-2.3c.4-.5.3-1-.1-1.4-.5-.4-1-.3-1.4.1l-1.9 2.3-1.5-1.3 1.9-2.3c.4-.5.3-1-.1-1.4s-1-.3-1.4.1l-2 2.3-1.5-1.3 1.9-2.3c.4-.5.3-1-.1-1.4s-1-.3-1.4.1l-1.9 2.3-1.5-1.3 1.9-2.3c.4-.5.3-1-.1-1.4s-1-.3-1.4.1l-1.9 2.3-1.5-1.3 1.9-2.3c.4-.5.3-1-.1-1.4-.5-.4-1-.3-1.4.1l-1.9 2.3-1.7-1.2 1.9-2.3c.4-.5.3-1-.1-1.4-.5-.4-1-.3-1.4.1l-1.9 2.3-1.5-1.3 1.9-2.3c.4-.5.3-1-.1-1.4-.5-.4-1-.3-1.4.1l-1.9 2.3-1.6-1.3 1.9-2.3c.4-.5.3-1-.1-1.4-.5-.4-1-.3-1.4.1l-1.9 2.3-1.5-1.3 16.8-19.8L173.4 148l-16.8 19.9zm18.1-21.4L42.1 33.9l1.3-1.5L176 145l-1.3 1.5z"/><path class="st1" d="M32.7 49.5c.5.4 1 .3 1.4-.1l5.2-6.1c.4-.5.3-1-.1-1.4-.5-.4-1-.3-1.4.1l-5.2 6.1c-.4.5-.3 1 .1 1.4z"/><path transform="rotate(-45.001 102.802 97.323)" fill="#cc4e46" d="M22.8 91.3h160v12h-160z"/><path class="st4" d="M158 33.7l2.8-2.8c1.6-1.6 4.1-1.6 5.7 0l2.8 2.8c1.6 1.6 1.6 4.1 0 5.7l-2.8 2.8"/><path class="st1" d="M166.5 43.2c-.3 0-.5-.1-.7-.3-.4-.4-.4-1 0-1.4l2.8-2.8c1.2-1.2 1.2-3.1 0-4.2l-2.8-2.8c-1.2-1.2-3.1-1.2-4.2 0l-2.8 2.8c-.4.4-1 .4-1.4 0s-.4-1 0-1.4l2.8-2.8c1.9-1.9 5.1-1.9 7.1 0L170 33c1.9 2 1.9 5.1 0 7.1l-2.8 2.8c-.2.2-.5.3-.7.3zm-116 115.9c-.3 0-.5-.1-.7-.3l-8.5-8.5c-.2-.2-.3-.4-.3-.7s.1-.5.3-.7L154.4 35.8c.4-.4 1-.4 1.4 0l8.5 8.5c.2.2.3.4.3.7s-.1.5-.3.7L51.2 158.8c-.2.2-.4.3-.7.3zm-7.1-9.5l7.1 7.1L162.2 45l-7.1-7.1L43.4 149.6z"/><path class="st4" d="M166.5 42.2l-2.9 2.8-8.4-8.5 2.8-2.8"/><path class="st1" d="M163.6 46c-.3 0-.5-.1-.7-.3l-8.5-8.5c-.4-.4-.4-1 0-1.4l2.8-2.8c.4-.4 1-.4 1.4 0s.4 1 0 1.4l-2.1 2.1 7.1 7.1 2.1-2.1c.4-.4 1-.4 1.4 0s.4 1 0 1.4l-2.8 2.8c-.1.2-.4.3-.7.3z"/><path class="st4" d="M32.1 168l18.4-9.9-8.5-8.5z"/><path class="st1" d="M32.1 169c-.3 0-.5-.1-.7-.3-.3-.3-.4-.8-.2-1.2l9.9-18.4c.1-.3.4-.5.7-.5s.6.1.9.3l8.5 8.5c.2.2.3.5.3.9 0 .3-.2.6-.5.7l-18.4 9.9c-.2.1-.3.1-.5.1zm10.2-17.7l-7.7 14.3 14.3-7.7-6.6-6.6z"/><path class="st1" d="M161.2 41.8c-.4-.4-1-.4-1.4 0L47.3 154.2c-.4.4-.4 1 0 1.4.2.2.5.3.7.3s.5-.1.7-.3L161.2 43.2c.4-.4.4-1 0-1.4zm-2.9-2.8c-.4-.4-1-.4-1.4 0L44.5 151.4c-.4.4-.4 1 0 1.4.2.2.5.3.7.3s.5-.1.7-.3L158.3 40.4c.4-.4.4-1 0-1.4z"/><path class="st4" d="M152 136.1c0 2.2-1.8 4-4 4H52c-2.2 0-4-1.8-4-4v-72c0-2.2 1.8-4 4-4h96c2.2 0 4 1.8 4 4v72z"/><path class="st0" d="M148 60.1H52c-2.2 0-4 1.8-4 4v64h104v-64c0-2.2-1.8-4-4-4z"/><path class="st4" d="M56 68.1h92v56H56z"/><path d="M52 68.1h4v56h-4zm4-4h92v4H56z" fill="#b5b5b5"/><path d="M52 64.1h4v4h-4zm21 8h16v4H73zm-13 32h8v4h-8z" fill="#f9ffa4"/><path fill="#50ba94" d="M60 72.1h8v4h-8z"/><path class="st2" d="M123.5 73.1h16v4h-16zm-47.3 8h36.1v40H76.2zm-16.2-9h8v4h-8z"/><path class="st1" d="M68 77.1h-8c-.6 0-1-.4-1-1v-4c0-.6.4-1 1-1h8c.6 0 1 .4 1 1v4c0 .6-.4 1-1 1zm-7-2h6v-2h-6v2zm7 26h-8c-.6 0-1-.4-1-1v-20c0-.6.4-1 1-1h8c.6 0 1 .4 1 1v20c0 .6-.4 1-1 1zm-7-2h6v-18h-6v18z"/><path class="st1" d="M64 101.1c-.6 0-1-.4-1-1v-20c0-.6.4-1 1-1s1 .4 1 1v20c0 .6-.4 1-1 1z"/><path class="st1" d="M68 97.1h-8c-.6 0-1-.4-1-1s.4-1 1-1h8c.6 0 1 .4 1 1s-.4 1-1 1zm0-4h-8c-.6 0-1-.4-1-1s.4-1 1-1h8c.6 0 1 .4 1 1s-.4 1-1 1zm0-4h-8c-.6 0-1-.4-1-1s.4-1 1-1h8c.6 0 1 .4 1 1s-.4 1-1 1zm0-4h-8c-.6 0-1-.4-1-1s.4-1 1-1h8c.6 0 1 .4 1 1s-.4 1-1 1zm43.1 37H76.2c-1.3 0-2.2-.9-2.2-2.3V83.4c0-1.4.9-2.3 2.2-2.3h34.9c1.3 0 2.2.9 2.2 2.3v36.4c0 1.4-.9 2.3-2.2 2.3zm-32.7-4.6h30.5V85.7H78.4v31.8zM68 109.1h-8c-.6 0-1-.4-1-1v-4c0-.6.4-1 1-1h8c.6 0 1 .4 1 1v4c0 .6-.4 1-1 1zm-7-2h6v-2h-6v2zm7 10h-8c-.6 0-1-.4-1-1v-4c0-.6.4-1 1-1h8c.6 0 1 .4 1 1v4c0 .6-.4 1-1 1zm-7-2h6v-2h-6v2zm28-38H73c-.6 0-1-.4-1-1v-4c0-.6.4-1 1-1h16c.6 0 1 .4 1 1v4c0 .6-.4 1-1 1zm-15-2h14v-2H74v2zm66 18h-16c-.6 0-1-.4-1-1v-12c0-.6.4-1 1-1h16c.6 0 1 .4 1 1v12c0 .6-.4 1-1 1zm-15-2h14v-10h-14v10z"/><path class="st1" d="M107 102.1H91c-.6 0-1-.4-1-1v-12c0-.6.4-1 1-1h16c.6 0 1 .4 1 1v12c0 .6-.4 1-1 1zm-15-2h14v-10H92v10zm47.5-22h-16c-.6 0-1-.4-1-1v-4c0-.6.4-1 1-1h16c.6 0 1 .4 1 1v4c0 .6-.4 1-1 1zm-15-2h14v-2h-14v2z"/><path class="st1" d="M103 97.1h-8c-.6 0-1-.4-1-1v-4c0-.6.4-1 1-1h8c.6 0 1 .4 1 1v4c0 .6-.4 1-1 1zm-7-2h6v-2h-6v2zm40.1-10.2h-7.3c-.6 0-.9-.4-.9-.9s.4-.9.9-.9h7.3c.6 0 .9.4.9.9 0 .6-.4.9-.9.9zm-7.3 3.7c-.1 0-.3 0-.4-.1-.1-.1-.2-.1-.3-.2-.2-.2-.3-.4-.3-.6 0-.3.1-.5.3-.6.1-.1.2-.2.3-.2.4-.1.7-.1 1 .2.2.2.3.4.3.6v.2c0 .1 0 .1-.1.2 0 .1 0 .1-.1.2l-.1.1c-.2.1-.4.2-.6.2zm2.7-.9c0-.6.5-.9.9-.9.5 0 .9.4.9.9s-.5.9-.9.9-.9-.4-.9-.9zm4.6.9c-.3 0-.5-.1-.6-.3s-.3-.4-.3-.6c0-.3.1-.5.3-.6.4-.4.9-.4 1.3 0 .2.2.3.4.3.6s-.1.5-.3.6c-.3.2-.4.3-.7.3zM56 125.1c-.6 0-1-.4-1-1v-60c0-.6.4-1 1-1s1 .4 1 1v60c0 .6-.4 1-1 1zm-4 0c-.6 0-1-.4-1-1v-60c0-.6.4-1 1-1s1 .4 1 1v60c0 .6-.4 1-1 1z"/><path class="st1" d="M148 69.1H52c-.6 0-1-.4-1-1s.4-1 1-1h96c.6 0 1 .4 1 1s-.4 1-1 1zm0-4H52c-.6 0-1-.4-1-1s.4-1 1-1h96c.6 0 1 .4 1 1s-.4 1-1 1z"/><path class="st1" d="M148 125.1c-.6 0-1-.4-1-1v-60c0-.6.4-1 1-1s1 .4 1 1v60c0 .6-.4 1-1 1z"/><path class="st1" d="M148 125.1H52c-.6 0-1-.4-1-1s.4-1 1-1h96c.6 0 1 .4 1 1s-.4 1-1 1zm4 4c-.6 0-1-.4-1-1v-64c0-.6.4-1 1-1s1 .4 1 1v64c0 .6-.4 1-1 1zm-104 0c-.6 0-1-.4-1-1v-64c0-.6.4-1 1-1s1 .4 1 1v64c0 .6-.4 1-1 1zm100-68H52c-.6 0-1-.4-1-1s.4-1 1-1h96c.6 0 1 .4 1 1s-.4 1-1 1z"/><path class="st1" d="M48 65.1c-.6 0-1-.4-1-1 0-2.8 2.2-5 5-5 .6 0 1 .4 1 1s-.4 1-1 1c-1.7 0-3 1.3-3 3 0 .6-.4 1-1 1zm104 0c-.6 0-1-.4-1-1 0-1.7-1.3-3-3-3-.6 0-1-.4-1-1s.4-1 1-1c2.8 0 5 2.2 5 5 0 .6-.4 1-1 1zm-4 76c-.6 0-1-.4-1-1s.4-1 1-1c1.7 0 3-1.3 3-3 0-.6.4-1 1-1s1 .4 1 1c0 2.8-2.2 5-5 5zm-96 0c-2.8 0-5-2.2-5-5 0-.6.4-1 1-1s1 .4 1 1c0 1.7 1.3 3 3 3 .6 0 1 .4 1 1s-.4 1-1 1zm100-12H48c-.6 0-1-.4-1-1s.4-1 1-1h104c.6 0 1 .4 1 1s-.4 1-1 1z"/><path class="st1" d="M152 137.1c-.6 0-1-.4-1-1v-8c0-.6.4-1 1-1s1 .4 1 1v8c0 .6-.4 1-1 1zm-4 4H52c-.6 0-1-.4-1-1s.4-1 1-1h96c.6 0 1 .4 1 1s-.4 1-1 1zm-100-4c-.6 0-1-.4-1-1v-8c0-.6.4-1 1-1s1 .4 1 1v8c0 .6-.4 1-1 1zm52 0c-1.7 0-3-1.3-3-3s1.3-3 3-3 3 1.3 3 3-1.3 3-3 3zm0-4c-.6 0-1 .4-1 1s.4 1 1 1 1-.4 1-1-.4-1-1-1z"/><path class="st1" d="M88 149.1c-.6 0-1-.4-1-1v-8c0-.6.4-1 1-1s1 .4 1 1v8c0 .6-.4 1-1 1zm24 0c-.6 0-1-.4-1-1v-8c0-.6.4-1 1-1s1 .4 1 1v8c0 .6-.4 1-1 1z"/><path class="st1" d="M120 153.1H80c-.6 0-1-.4-1-1v-4c0-.6.4-1 1-1h40c.6 0 1 .4 1 1v4c0 .6-.4 1-1 1zm-39-2h38v-2H81v2z"/><circle class="st4" cx="157.1" cy="149.6" r="2"/><path class="st1" d="M157.1 152.6c-1.7 0-3-1.3-3-3s1.3-3 3-3 3 1.3 3 3-1.3 3-3 3zm0-4c-.6 0-1 .4-1 1s.4 1 1 1 1-.4 1-1c0-.5-.4-1-1-1zm-50.6-37.5h-24c-.9 0-1.5-.4-1.5-1v-4c0-.6.6-1 1.5-1h24c.9 0 1.5.4 1.5 1v4c0 .6-.6 1-1.5 1zm-22.5-2h21v-2H84v2z"/></svg>