<?xml version="1.0" encoding="utf-8"?>
<!-- Generator: Adobe Illustrator 22.0.0, SVG Export Plug-In . SVG Version: 6.00 Build 0)  -->
<svg version="1.1" xmlns="http://www.w3.org/2000/svg" xmlns:xlink="http://www.w3.org/1999/xlink" x="0px" y="0px"
	 viewBox="0 0 1417.3 1417.3" style="enable-background:new 0 0 1417.3 1417.3;" xml:space="preserve">
<style type="text/css">
	.st0{display:none;}
	.st1{fill:#665C5C;stroke:#4D4D4D;stroke-width:2;stroke-miterlimit:10;}
	.st2{fill:#5B5B5B;stroke:#4D4D4D;stroke-width:2;stroke-miterlimit:10;}
	.st3{fill:#ED1C24;stroke:#4D4D4D;stroke-width:2;stroke-miterlimit:10;}
	.st4{fill:#F7931E;stroke:#4D4D4D;stroke-width:2;stroke-miterlimit:10;}
	.st5{fill:#00FF00;stroke:#4D4D4D;stroke-width:2;stroke-miterlimit:10;}
	.st6{fill:none;stroke:#4D4D4D;stroke-width:6;stroke-miterlimit:10;}
	.st7{fill:#D4145A;stroke:#D4145A;stroke-width:6;stroke-miterlimit:10;}
	.st8{fill:none;stroke:#F7931E;stroke-width:6;stroke-miterlimit:10;}
	.st9{fill:none;stroke:#FFFFFF;stroke-width:6;stroke-miterlimit:10;}
	.st10{fill:#4D4D4D;}
	.st11{fill:#FFFFFE;}
	.st12{fill:#00FFFF;stroke:#29ABE2;stroke-width:6;stroke-miterlimit:10;}
</style>
<g id="Layer_1" class="st0">
	
		<image style="display:inline;overflow:visible;" width="1300" height="1300" xlink:href="../coding.jpg"  transform="matrix(0.7015 0 0 0.5292 286.6635 415.1634)">
	</image>
</g>
<g id="Layer_2">
	<g>
		<path class="st1" d="M1232.6,1068.3H195.9c-11.6,0-21-9.4-21-21V370c0-11.6,9.4-21,21-21h1036.7c11.6,0,21,9.4,21,21v677.3
			C1253.6,1058.9,1244.2,1068.3,1232.6,1068.3z"/>
		<path class="st2" d="M1235.1,349H193.4c-10.2,0-18.5,8.3-18.5,18.5v76.1h1078.7v-76.1C1253.6,357.3,1245.3,349,1235.1,349z"/>
		<rect x="203.6" y="371" class="st3" width="42.1" height="36.2"/>
		<rect x="272.1" y="371" class="st4" width="42.1" height="36.2"/>
		<rect x="343.2" y="371" class="st5" width="42.1" height="36.2"/>
		<line class="st6" x1="257.7" y1="475.7" x2="257.7" y2="1019.3"/>
		<line class="st7" x1="304.9" y1="495.9" x2="359" y2="495.9"/>
		<line class="st8" x1="350.5" y1="517.9" x2="404.6" y2="517.9"/>
		<line class="st9" x1="382.6" y1="539.8" x2="436.6" y2="539.8"/>
		<line class="st6" x1="458.6" y1="539.8" x2="578.5" y2="539.8"/>
		<line class="st8" x1="600.4" y1="539.8" x2="654.5" y2="539.8"/>
		<line class="st9" x1="667.1" y1="539.8" x2="721.1" y2="539.8"/>
		<line class="st10" x1="388.5" y1="561.8" x2="578.5" y2="561.8"/>
		<line class="st9" x1="593.7" y1="561.8" x2="647.7" y2="561.8"/>
		<line class="st11" x1="673" y1="561.8" x2="807.3" y2="561.8"/>
		<line class="st12" x1="386.8" y1="583.7" x2="440.9" y2="583.7"/>
		<line class="st6" x1="458.6" y1="583.7" x2="750.7" y2="583.7"/>
		<line class="st6" x1="765.9" y1="583.7" x2="960.9" y2="583.7"/>
		<line class="st6" x1="355.6" y1="610.7" x2="409.6" y2="610.7"/>
		<line class="st6" x1="431.6" y1="610.7" x2="659.5" y2="610.7"/>
		<line class="st9" x1="671.3" y1="610.7" x2="725.4" y2="610.7"/>
		<line class="st7" x1="301.6" y1="635.2" x2="355.6" y2="635.2"/>
		<line class="st8" x1="350.1" y1="676.6" x2="404.1" y2="676.6"/>
		<line class="st6" x1="382.2" y1="698.5" x2="436.2" y2="698.5"/>
		<line class="st7" x1="458.2" y1="698.5" x2="578.1" y2="698.5"/>
		<line class="st6" x1="600" y1="698.5" x2="654" y2="698.5"/>
		<line class="st6" x1="666.7" y1="698.5" x2="720.7" y2="698.5"/>
		<line class="st6" x1="388.1" y1="720.5" x2="578.1" y2="720.5"/>
		<line class="st6" x1="593.2" y1="720.5" x2="647.3" y2="720.5"/>
		<line class="st9" x1="672.6" y1="720.5" x2="806.8" y2="720.5"/>
		<line class="st6" x1="395.7" y1="740.7" x2="449.7" y2="740.7"/>
		<line class="st6" x1="471.7" y1="740.7" x2="591.6" y2="740.7"/>
		<line class="st6" x1="613.5" y1="740.7" x2="667.5" y2="740.7"/>
		<line class="st6" x1="680.2" y1="740.7" x2="734.2" y2="740.7"/>
		<line class="st9" x1="401.6" y1="762.7" x2="591.6" y2="762.7"/>
		<line class="st6" x1="606.8" y1="762.7" x2="660.8" y2="762.7"/>
		<line class="st6" x1="686.1" y1="762.7" x2="820.3" y2="762.7"/>
		<line class="st6" x1="399.9" y1="784.6" x2="453.9" y2="784.6"/>
		<line class="st6" x1="471.7" y1="784.6" x2="763.8" y2="784.6"/>
		<line class="st9" x1="779" y1="784.6" x2="974" y2="784.6"/>
		<line class="st6" x1="368.7" y1="811.7" x2="422.7" y2="811.7"/>
		<line class="st7" x1="444.7" y1="811.7" x2="672.6" y2="811.7"/>
		<line class="st6" x1="684.4" y1="811.7" x2="738.5" y2="811.7"/>
		<line class="st6" x1="364.9" y1="838.7" x2="418.9" y2="838.7"/>
		<line class="st6" x1="440.9" y1="838.7" x2="560.7" y2="838.7"/>
		<line class="st6" x1="582.7" y1="838.7" x2="636.7" y2="838.7"/>
		<line class="st6" x1="649.4" y1="838.7" x2="703.4" y2="838.7"/>
		<line class="st12" x1="370.8" y1="860.6" x2="560.7" y2="860.6"/>
		<line class="st6" x1="575.9" y1="860.6" x2="630" y2="860.6"/>
		<line class="st9" x1="655.3" y1="860.6" x2="789.5" y2="860.6"/>
		<line class="st6" x1="369.1" y1="882.6" x2="423.1" y2="882.6"/>
		<line class="st6" x1="440.9" y1="882.6" x2="733" y2="882.6"/>
		<line class="st6" x1="748.2" y1="882.6" x2="943.2" y2="882.6"/>
		<line class="st8" x1="337.9" y1="909.6" x2="391.9" y2="909.6"/>
		<line class="st6" x1="413.8" y1="909.6" x2="641.8" y2="909.6"/>
		<line class="st9" x1="653.6" y1="909.6" x2="707.6" y2="909.6"/>
		<line class="st6" x1="296.5" y1="929.9" x2="350.5" y2="929.9"/>
	</g>
</g>
</svg>
