<?xml version="1.0" encoding="utf-8"?>
<!-- Generator: Adobe Illustrator 22.0.0, SVG Export Plug-In . SVG Version: 6.00 Build 0)  -->
<svg version="1.1" id="Layer_1" xmlns="http://www.w3.org/2000/svg" xmlns:xlink="http://www.w3.org/1999/xlink" x="0px" y="0px"
	 viewBox="0 0 1417.3 1417.3" style="enable-background:new 0 0 1417.3 1417.3;" xml:space="preserve">
<style type="text/css">
	.st0{display:none;}
	.st1{fill:#91E0E8;}
	.st2{fill:#445EA0;}
	.st3{fill:#293D7C;}
	.st4{fill:#EEF6FF;}
	.st5{fill:#FE3745;}
	.st6{fill:#B7092B;}
	.st7{fill:#D9EAFC;}
	.st8{fill:#52BBEF;}
	.st9{fill:#1E99D6;}
	.st10{fill:#FFFFFF;}
	.st11{fill:#FFE2B8;}
	.st12{fill:#FFC987;}
	.st13{fill:#1A2B63;}
	.st14{fill:#AEC1ED;}
	.st15{fill:#FFAF10;}
	.st16{fill:#EF9614;}
	.st17{fill:#FFD00D;}
</style>
<g id="Layer_1_1_" class="st0">
	
		<image style="display:inline;overflow:visible;enable-background:new    ;" width="1300" height="1300" xlink:href="../coding.jpg"  transform="matrix(0.7015 0 0 0.5292 286.6635 415.1634)">
	</image>
</g>
<circle class="st1" cx="689.9" cy="735.7" r="534.5"/>
<path class="st2" d="M279.7,511.7h-75.3c-31.5,68.1-49.1,144-49.1,224c0,9.5,0.3,18.9,0.7,28.3h123.6V511.7z"/>
<path class="st3" d="M1061.6,902h-46.9v176.4h46.9c12,0,21.8-9.8,21.8-21.8V923.8C1083.4,911.8,1073.6,902,1061.6,902z"/>
<polygon class="st4" points="770,893.8 770,1086.7 950.5,1194.3 950.5,786.1 "/>
<path class="st5" d="M1016.9,1228.9c0,6-4.9,10.9-10.9,10.9h-46.8c-6,0-10.9-4.9-10.9-10.9V751.6c0-6,4.9-10.9,10.9-10.9h46.8
	c6,0,10.9,4.9,10.9,10.9V1228.9z"/>
<path class="st6" d="M985.8,1228.9V751.6c0-6,4.9-10.9,10.9-10.9h-37.5c-6,0-10.9,4.9-10.9,10.9v477.3c0,6,4.9,10.9,10.9,10.9h37.5
	C990.7,1239.8,985.8,1234.9,985.8,1228.9z"/>
<path class="st4" d="M571.9,909.4h-50.6c-6,0-10.9,4.9-10.9,10.9v139.8c0,6,4.9,10.9,10.9,10.9h50.6V909.4z"/>
<path class="st7" d="M542.1,1060.1V920.3c0-6,4.9-10.9,10.9-10.9h-31.7c-6,0-10.9,4.9-10.9,10.9v139.8c0,6,4.9,10.9,10.9,10.9H553
	C547,1071,542.1,1066.1,542.1,1060.1z"/>
<path class="st5" d="M772.1,1087.7c0,6-4.9,10.9-10.9,10.9H580.6c-6,0-10.9-4.9-10.9-10.9v-195c0-6,4.9-10.9,10.9-10.9h180.6
	c6,0,10.9,4.9,10.9,10.9V1087.7z"/>
<path class="st6" d="M613,1087.7v-195c0-6,4.9-10.9,10.9-10.9h-43.3c-6,0-10.9,4.9-10.9,10.9v195c0,6,4.9,10.9,10.9,10.9h43.3
	C617.9,1098.6,613,1093.7,613,1087.7z"/>
<path class="st8" d="M1212.5,348.7c0-6-4.9-10.9-10.9-10.9H903.9c-6,0-10.9,4.9-10.9,10.9v207.2c0,6,4.9,10.9,10.9,10.9h89.9
	c6,0,13.8,3.9,17.4,8.7l35,46.8c3.6,4.8,9.5,4.8,13.1,0l35-46.8c3.6-4.8,11.4-8.7,17.4-8.7h89.9c6,0,10.9-4.9,10.9-10.9
	L1212.5,348.7L1212.5,348.7z"/>
<path class="st9" d="M936.2,555.9V348.7c0-6,4.9-10.9,10.9-10.9h-43.3c-6,0-10.9,4.9-10.9,10.9v207.2c0,6,4.9,10.9,10.9,10.9h43.3
	C941.1,566.8,936.2,561.9,936.2,555.9z"/>
<g>
	<path class="st10" d="M1146.2,418.7H959.2c-9,0-16.4-7.3-16.4-16.4c0-9,7.3-16.4,16.4-16.4h186.9c9,0,16.4,7.3,16.4,16.4
		C1162.5,411.4,1155.2,418.7,1146.2,418.7z"/>
	<path class="st10" d="M1146.2,469.5H959.2c-9,0-16.4-7.3-16.4-16.4c0-9,7.3-16.4,16.4-16.4h186.9c9,0,16.4,7.3,16.4,16.4
		C1162.5,462.1,1155.2,469.5,1146.2,469.5z"/>
	<path class="st10" d="M1053.1,520.2h-93.8c-9,0-16.4-7.3-16.4-16.4s7.3-16.4,16.4-16.4h93.8c9,0,16.4,7.3,16.4,16.4
		S1062.1,520.2,1053.1,520.2z"/>
</g>
<circle class="st5" cx="740.1" cy="294.1" r="121.3"/>
<path class="st6" d="M662,294.1c0-59.6,43-109.1,99.7-119.4c-7-1.3-14.3-2-21.6-2c-67,0-121.3,54.3-121.3,121.3
	s54.3,121.3,121.3,121.3c7.4,0,14.6-0.7,21.6-2C705.1,403.2,662,353.7,662,294.1z"/>
<path class="st10" d="M739.9,360.9c-2,0-3.8-0.8-5.2-2.2l-57.3-57.8c-6.9-7-10.7-16.2-10.7-26.1c0-9.9,3.8-19.1,10.7-26.1
	c6.9-7,16.1-10.8,25.9-10.8c9.8,0,19,3.8,25.9,10.8l10.9,11l10.9-11c6.9-7,16.1-10.8,25.9-10.8c9.8,0,19,3.8,25.9,10.8
	c6.9,7,10.7,16.3,10.7,26.1s-3.8,19.1-10.7,26.1l-57.8,57.8C743.7,360.1,741.8,360.9,739.9,360.9z"/>
<path class="st5" d="M323.7,966.8c-1.7,0-3.2-0.7-4.4-1.8l-48.4-48.8c-5.8-5.9-9-13.7-9-22c0-8.3,3.2-16.2,9-22
	c5.8-5.9,13.6-9.1,21.9-9.1c8.3,0,16,3.2,21.9,9.1l9.2,9.3l9.2-9.3c5.8-5.9,13.6-9.1,21.9-9.1c8.3,0,16,3.2,21.9,9.1
	c5.8,5.9,9.1,13.7,9.1,22c0,8.3-3.2,16.2-9.1,22l-48.8,48.8C326.9,966.1,325.4,966.8,323.7,966.8z"/>
<path class="st6" d="M295.3,906c-5.8-5.9-9-13.7-9-22.1c0-7.8,2.9-15.2,8-20.9c-0.5,0-1-0.1-1.5-0.1c-8.3,0-16,3.2-21.9,9.1
	c-5.8,5.9-9,13.7-9,22c0,8.3,3.2,16.2,9,22l48.4,48.8c1.2,1.2,2.7,1.8,4.4,1.8c1.7,0,3.2-0.6,4.4-1.8L341,952L295.3,906z"/>
<path class="st11" d="M561.5,778.7v-30.1c0-16.8,13.7-30.5,30.5-30.5h7.1c1.2,0,2.2-1,2.2-2.2s-1-2.2-2.2-2.2
	c-16.8,0-30.5-13.7-30.5-30.5V653c0-16.8,13.7-30.5,30.5-30.5c1.2,0,2.2-1,2.2-2.2s-1-2.2-2.2-2.2c-16.8,0-30.5-13.7-30.5-30.5
	v-30.1c0-16.8,13.7-30.5,30.5-30.5c1.2,0,2.2-1,2.2-2.2s-1-2.2-2.2-2.2h-13.5c-16.8,0-30.5-13.7-30.5-30.5v-30.1
	c0-15,10.8-27.4,25-30V314.6c0-18-14.7-32.7-32.7-32.7l-50.9,0c-18,0-34.7,14.6-37.1,32.4l-20.5,150.4
	c-2.4,17.8-15.3,32.3-28.6,32.4v283.6h151.3C561.6,780.1,561.5,779.4,561.5,778.7z"/>
<path class="st12" d="M547.4,281.9l-50.9,0c-18,0-34.7,14.6-37.1,32.4l-20.5,150.4c-2.4,17.8-15.3,32.3-28.6,32.4v43.3
	c23.4,0,42.9,0,43.1,0c13.4,0,26.3-14.6,28.7-32.4l20.5-150.4c2.4-17.8,19.1-32.4,37.1-32.4l40.3,0v-10.6
	C580.2,296.6,565.4,281.9,547.4,281.9z"/>
<path class="st11" d="M592.1,811.4c-18,0-32.7-14.7-32.7-32.7v-30.1c0-18,14.7-32.7,32.7-32.7h177.5c18,0,32.7,14.7,32.7,32.7v30.1
	c0,18-14.7,32.7-32.7,32.7H592.1z"/>
<path class="st3" d="M288.4,816.3c-6,0-10.9-4.9-10.9-10.9V470.2c0-6,4.9-10.9,10.9-10.9h113.1c6,0,10.9,4.9,10.9,10.9v335.2
	c0,6-4.9,10.9-10.9,10.9L288.4,816.3L288.4,816.3z"/>
<path class="st13" d="M320.8,805.4V470.2c0-6,4.9-10.9,10.9-10.9h-43.3c-6,0-10.9,4.9-10.9,10.9v335.2c0,6,4.9,10.9,10.9,10.9h43.3
	C325.7,816.3,320.8,811.4,320.8,805.4z"/>
<circle class="st14" cx="345" cy="512.7" r="29.2"/>
<g>
	<path class="st11" d="M585.7,524.7c-18,0-32.7-14.7-32.7-32.7v-30.1c0-18,14.7-32.7,32.7-32.7h183.9c18,0,32.7,14.7,32.7,32.7V492
		c0,18-14.7,32.7-32.7,32.7L585.7,524.7L585.7,524.7z"/>
	<path class="st11" d="M599.1,620.3c-18,0-32.7-14.7-32.7-32.7v-30.1c0-18,14.7-32.7,32.7-32.7h178.4c18,0,32.7,14.7,32.7,32.7v30.1
		c0,18-14.7,32.7-32.7,32.7H599.1L599.1,620.3z"/>
	<path class="st11" d="M599.1,715.9c-18,0-32.7-14.7-32.7-32.7V653c0-18,14.7-32.7,32.7-32.7h178.4c18,0,32.7,14.7,32.7,32.7v30.1
		c0,18-14.7,32.7-32.7,32.7H599.1z"/>
</g>
<g>
	<path class="st12" d="M625.8,777.7c-18,0-32.7-14.7-32.7-32.7v-29.1h-1c-18,0-32.7,14.7-32.7,32.7v30.1c0,18,14.7,32.7,32.7,32.7
		h177.5c18,0,32.7-14.7,32.7-32.7v-1L625.8,777.7L625.8,777.7z"/>
	<path class="st12" d="M619.3,491c-18,0-32.7-14.7-32.7-32.7v-29.2h-1c-18,0-32.7,14.7-32.7,32.7V492c0,18,14.7,32.7,32.7,32.7
		h183.9c18,0,32.7-14.7,32.7-32.7v-1L619.3,491L619.3,491z"/>
	<path class="st12" d="M632.8,586.6c-18,0-32.7-14.7-32.7-32.7v-29.2h-1c-18,0-32.7,14.7-32.7,32.7v30.1c0,18,14.7,32.7,32.7,32.7
		h178.4c18,0,32.7-14.7,32.7-32.7v-1L632.8,586.6L632.8,586.6z"/>
	<path class="st12" d="M632.8,682.2c-18,0-32.7-14.7-32.7-32.7v-29.1h-1c-18,0-32.7,14.7-32.7,32.7v30.1c0,18,14.7,32.7,32.7,32.7
		h178.4c18,0,32.7-14.7,32.7-32.7v-1L632.8,682.2L632.8,682.2z"/>
</g>
<path class="st15" d="M421.5,1013H226.3c-2.4,0-4.3,2-4.3,4.4v125.2c0,2.4,2,4.4,4.3,4.4h195.2c2.4,0,4.3-2,4.3-4.4v-125.2
	C425.8,1015,423.9,1013,421.5,1013z"/>
<path class="st16" d="M265.3,1142.6v-95.4l-42.2-32.6c0.2-0.2,0.4-0.4,0.7-0.6c-1,0.8-1.7,2-1.7,3.4v125.2c0,2.4,2,4.4,4.3,4.4h43.3
	C267.2,1147,265.3,1145,265.3,1142.6z"/>
<path class="st17" d="M421.5,1013H226.3c-1.3,0-2.5,0.6-3.3,1.6l97.4,75.3c1.9,1.5,5,1.5,6.9,0l97.4-75.3
	C424,1013.7,422.8,1013,421.5,1013z"/>
<path class="st15" d="M1268.1,669.4h-195.2c-2.4,0-4.3,2-4.3,4.4V799c0,2.4,2,4.4,4.3,4.4h195.2c2.4,0,4.3-2,4.3-4.4V673.8
	C1272.4,671.4,1270.4,669.4,1268.1,669.4z"/>
<path class="st16" d="M1111.8,799v-95.4l-42.2-32.6c0.2-0.2,0.4-0.4,0.7-0.6c-1,0.8-1.7,2-1.7,3.4V799c0,2.4,2,4.4,4.3,4.4h43.3
	C1113.8,803.4,1111.8,801.4,1111.8,799z"/>
<path class="st17" d="M1268.1,669.4h-195.2c-1.3,0-2.5,0.6-3.3,1.6l97.4,75.3c1.9,1.5,5,1.5,6.9,0l97.4-75.3
	C1270.6,670.1,1269.4,669.4,1268.1,669.4z"/>
</svg>
