<?xml version="1.0" encoding="utf-8"?>
<!-- Generator: Adobe Illustrator 22.0.0, SVG Export Plug-In . SVG Version: 6.00 Build 0)  -->
<svg version="1.1" id="Layer_1" xmlns="http://www.w3.org/2000/svg" xmlns:xlink="http://www.w3.org/1999/xlink" x="0px" y="0px"
	 viewBox="0 0 1417.3 1417.3" style="enable-background:new 0 0 1417.3 1417.3;" xml:space="preserve">
<style type="text/css">
	.st0{display:none;}
	.st1{fill:#445EA0;}
	.st2{fill:#FFAF10;}
	.st3{fill:#EF9614;}
	.st4{fill:#FF9518;}
	.st5{fill:#EF8318;}
	.st6{fill:#D9EAFC;}
	.st7{fill:#C3DDF4;}
	.st8{fill:#DB722C;}
	.st9{fill:#52BBEF;}
	.st10{fill:#FE3745;}
	.st11{fill:#91E0E8;}
	.st12{fill:#37C47A;}
</style>
<g id="Layer_1_1_" class="st0">
	
		<image style="display:inline;overflow:visible;enable-background:new    ;" width="1300" height="1300" xlink:href="../coding.jpg"  transform="matrix(0.7015 0 0 0.5292 286.6635 415.1634)">
	</image>
</g>
<circle class="st1" cx="724.2" cy="763.2" r="491.3"/>
<path class="st2" d="M412.8,1073.3c-5.5,0-10-4.5-10-10V370.7h-66.3c-5.5,0-10,4.5-10,10v670.9c26.8,36.9,58.6,70,94.4,98.1h554.3
	c5.5,0,10-4.5,10-10v-66.3L412.8,1073.3L412.8,1073.3z"/>
<path class="st3" d="M364.5,380.7c0-5.5,4.5-10,10-10h-38.1c-5.5,0-10,4.5-10,10v670.9c11.8,16.2,24.5,31.7,38.1,46.3V380.7z"/>
<path class="st4" d="M479,1001.2c-5.5,0-10-4.5-10-10V300h-61.8c-5.5,0-10,4.5-10,10v759c0,5.5,4.5,10,10,10h638.7
	c5.5,0,10-4.5,10-10v-67.8L479,1001.2L479,1001.2z"/>
<path class="st5" d="M433.2,1069V310c0-5.5,4.5-10,10-10h-36.1c-5.5,0-10,4.5-10,10v759c0,5.5,4.5,10,10,10h36.1
	C437.7,1079,433.2,1074.5,433.2,1069z"/>
<path class="st6" d="M1122,996.8c0,5.5-4.5,10-10,10H473.3c-5.5,0-10-4.5-10-10v-759c0-5.5,4.5-10,10-10H1112c5.5,0,10,4.5,10,10
	V996.8z"/>
<path class="st7" d="M503,996.8v-759c0-5.5,4.5-10,10-10h-39.8c-5.5,0-10,4.5-10,10v759c0,5.5,4.5,10,10,10h39.8
	C507.5,1006.8,503,1002.3,503,996.8z"/>
<g>
	<path class="st8" d="M1043.2,329.6H903.7c-8.3,0-15-6.7-15-15c0-8.3,6.7-15,15-15h139.5c8.3,0,15,6.7,15,15
		C1058.3,322.9,1051.5,329.6,1043.2,329.6z"/>
	<path class="st8" d="M1043.2,380.8H903.7c-8.3,0-15-6.7-15-15c0-8.3,6.7-15,15-15h139.5c8.3,0,15,6.7,15,15
		C1058.3,374,1051.5,380.8,1043.2,380.8z"/>
	<path class="st8" d="M1043.2,431.9H903.7c-8.3,0-15-6.7-15-15s6.7-15,15-15h139.5c8.3,0,15,6.7,15,15
		C1058.3,425.2,1051.5,431.9,1043.2,431.9z"/>
	<path class="st8" d="M1043.2,483H903.7c-8.3,0-15-6.7-15-15c0-8.3,6.7-15,15-15h139.5c8.3,0,15,6.7,15,15
		C1058.3,476.3,1051.5,483,1043.2,483z"/>
</g>
<g>
	<path class="st9" d="M783.1,840h-235c-8.3,0-15-6.7-15-15s6.7-15,15-15h235c8.3,0,15,6.7,15,15C798.2,833.3,791.4,840,783.1,840z"
		/>
	<path class="st9" d="M783.1,891.1h-235c-8.3,0-15-6.7-15-15c0-8.3,6.7-15,15-15h235c8.3,0,15,6.7,15,15
		C798.2,884.4,791.4,891.1,783.1,891.1z"/>
	<path class="st9" d="M783.1,942.3h-235c-8.3,0-15-6.7-15-15c0-8.3,6.7-15,15-15h235c8.3,0,15,6.7,15,15
		C798.2,935.5,791.4,942.3,783.1,942.3z"/>
</g>
<g>
	<path class="st10" d="M1043.2,572.3h-214c-8.3,0-15-6.7-15-15s6.7-15,15-15h214c8.3,0,15,6.7,15,15S1051.5,572.3,1043.2,572.3z"/>
	<path class="st10" d="M1043.2,623.4h-214c-8.3,0-15-6.7-15-15s6.7-15,15-15h214c8.3,0,15,6.7,15,15S1051.5,623.4,1043.2,623.4z"/>
	<path class="st10" d="M1043.2,674.5h-214c-8.3,0-15-6.7-15-15c0-8.3,6.7-15,15-15h214c8.3,0,15,6.7,15,15
		C1058.3,667.8,1051.5,674.5,1043.2,674.5z"/>
	<path class="st10" d="M1043.2,725.7h-214c-8.3,0-15-6.7-15-15s6.7-15,15-15h214c8.3,0,15,6.7,15,15S1051.5,725.7,1043.2,725.7z"/>
	<path class="st10" d="M521.2,660.5h58.6c0-32.4,26.3-58.6,58.6-58.6v-58.6C573.7,543.2,521.2,595.7,521.2,660.5z"/>
</g>
<path class="st11" d="M668.2,513.4v58.6c32.4,0,58.6,26.3,58.6,58.6h58.6C785.5,565.9,733,513.4,668.2,513.4z"/>
<g>
	<path class="st2" d="M697.1,660.5c0,32.4-26.3,58.6-58.6,58.6c-32.4,0-58.6-26.3-58.6-58.6h-58.6c0,64.8,52.5,117.3,117.3,117.3
		c64.8,0,117.3-52.5,117.3-117.3H697.1z"/>
	<path class="st2" d="M588.5,458.6v-140c0-3.3-2.7-6-6-6h-36.5c-3.3,0-6,2.7-6,6v140H588.5z"/>
</g>
<path class="st10" d="M667,458.6V356.7c0-3.3-2.7-6-6-6h-36.5c-3.3,0-6,2.7-6,6v101.9H667z"/>
<path class="st12" d="M745.4,458.6v-55.8c0-3.3-2.7-6-6-6h-36.5c-3.3,0-6,2.7-6,6v55.8H745.4z"/>
<path class="st11" d="M823.9,458.6v-140c0-3.3-2.7-6-6-6h-36.5c-3.3,0-6,2.7-6,6v140H823.9z"/>
<path class="st10" d="M972,868.9c0-3.3,2.7-6,6-6h27.2v-67.3c0-5.5-4.5-10-10-10h-90.5c-5.5,0-10,4.5-10,10v90.5c0,5.5,4.5,10,10,10
	H972V868.9z"/>
<path class="st12" d="M1043.2,924.1c0,5.5-4.5,10-10,10h-55.1c-5.5,0-10-4.5-10-10v-55.1c0-5.5,4.5-10,10-10h55.1
	c5.5,0,10,4.5,10,10V924.1z"/>
<path class="st9" d="M834.2,483H529.7c-8.3,0-15-6.7-15-15c0-8.3,6.7-15,15-15h304.6c8.3,0,15,6.7,15,15
	C849.3,476.3,842.5,483,834.2,483z"/>
</svg>
