<?xml version="1.0" encoding="utf-8"?>
<!-- Generator: Adobe Illustrator 22.0.0, SVG Export Plug-In . SVG Version: 6.00 Build 0)  -->
<svg version="1.1" id="Layer_1" xmlns="http://www.w3.org/2000/svg" xmlns:xlink="http://www.w3.org/1999/xlink" x="0px" y="0px"
	 viewBox="0 0 200 200" style="enable-background:new 0 0 200 200;" xml:space="preserve">
<style type="text/css">
	.st0{fill:#6D6D6D;}
	.st1{fill:#020210;}
	.st2{fill:#C5ECEB;}
	.st3{fill:#CC4E46;}
	.st4{fill:#FFFFFF;}
	.st5{fill:#B5B5B5;}
	.st6{fill:#F9FFA4;}
	.st7{fill:#50BA94;}
</style>
<g>
	<rect x="124" y="80.1" class="st0" width="16" height="12"/>
</g>
<g>
	<path class="st1" d="M100,161.1c-33.6,0-61-27.4-61-61s27.4-61,61-61s61,27.4,61,61C161,133.8,133.6,161.1,100,161.1z M100,41.1
		c-32.5,0-59,26.5-59,59s26.5,59,59,59s59-26.5,59-59S132.5,41.1,100,41.1z"/>
</g>
<g>
	<rect x="84" y="12.1" transform="matrix(0.6465 -0.7629 0.7629 0.6465 -41.0179 111.6737)" class="st2" width="32" height="176"/>
</g>
<g>
	<path class="st1" d="M178.1,144.1L43.9,30.2c-0.5-0.4-1-0.3-1.4,0.1L21.8,54.7c-0.4,0.5-0.3,1,0.1,1.4L156.1,170
		c0.5,0.4,1,0.3,1.4-0.1l20.7-24.4C178.5,145.1,178.5,144.5,178.1,144.1z M156.6,167.9l-1.5-1.3l1.9-2.3c0.4-0.5,0.3-1-0.1-1.4
		c-0.5-0.4-1-0.3-1.4,0.1l-1.9,2.3L152,164l1.9-2.3c0.4-0.5,0.3-1-0.1-1.4c-0.5-0.4-1-0.3-1.4,0.1l-1.9,2.3l-1.5-1.3l1.9-2.3
		c0.4-0.5,0.3-1-0.1-1.4c-0.5-0.4-1-0.3-1.4,0.1l-1.9,2.3l-1.5-1.3l1.9-2.3c0.4-0.5,0.3-1-0.1-1.4c-0.5-0.4-1-0.3-1.4,0.1l-1.9,2.3
		l-1.5-1.3l1.9-2.3c0.4-0.5,0.3-1-0.1-1.4c-0.5-0.4-1-0.3-1.4,0.1l-1.9,2.3l-1.5-1.3l1.9-2.3c0.4-0.5,0.3-1-0.1-1.4
		c-0.5-0.4-1-0.3-1.4,0.1l-1.9,2.3l-1.5-1.3l1.9-2.3c0.4-0.5,0.3-1-0.1-1.4c-0.5-0.4-1-0.3-1.4,0.1l-1.9,2.3l-1.5-1.3l1.9-2.3
		c0.4-0.5,0.3-1-0.1-1.4c-0.5-0.4-1-0.3-1.4,0.1l-1.9,2.3L48.4,75.9l1.9-2.3c0.4-0.5,0.3-1-0.1-1.4c-0.5-0.4-1-0.3-1.4,0.1l-1.9,2.3
		l-1.5-1.3l1.9-2.3c0.4-0.5,0.3-1-0.1-1.4s-1-0.3-1.4,0.1L43.8,72l-1.5-1.3l1.9-2.3c0.4-0.5,0.3-1-0.1-1.4s-1-0.3-1.4,0.1l-1.9,2.3
		l-1.5-1.3l1.9-2.3c0.4-0.5,0.3-1-0.1-1.4s-1-0.3-1.4,0.1l-1.9,2.3l-1.5-1.3l1.9-2.3c0.4-0.5,0.3-1-0.1-1.4c-0.5-0.4-1-0.3-1.4,0.1
		l-1.9,2.3L33.1,63l1.9-2.3c0.4-0.5,0.3-1-0.1-1.4c-0.5-0.4-1-0.3-1.4,0.1l-1.9,2.3l-1.5-1.3l1.9-2.3c0.4-0.5,0.3-1-0.1-1.4
		c-0.5-0.4-1-0.3-1.4,0.1l-1.9,2.3L27,57.8l1.9-2.3c0.4-0.5,0.3-1-0.1-1.4c-0.5-0.4-1-0.3-1.4,0.1l-1.9,2.3L24,55.2l16.8-19.8
		L173.4,148L156.6,167.9z M174.7,146.5L42.1,33.9l1.3-1.5L176,145L174.7,146.5z"/>
	<path class="st1" d="M32.7,49.5c0.5,0.4,1,0.3,1.4-0.1l5.2-6.1c0.4-0.5,0.3-1-0.1-1.4c-0.5-0.4-1-0.3-1.4,0.1l-5.2,6.1
		C32.2,48.6,32.3,49.1,32.7,49.5z"/>
</g>
<g>
	
		<rect x="22.8" y="91.3" transform="matrix(0.7071 -0.7071 0.7071 0.7071 -38.7066 101.1975)" class="st3" width="160" height="12"/>
</g>
<g>
	<path class="st4" d="M158,33.7l2.8-2.8c1.6-1.6,4.1-1.6,5.7,0l2.8,2.8c1.6,1.6,1.6,4.1,0,5.7l-2.8,2.8"/>
	<path class="st1" d="M166.5,43.2c-0.3,0-0.5-0.1-0.7-0.3c-0.4-0.4-0.4-1,0-1.4l2.8-2.8c1.2-1.2,1.2-3.1,0-4.2l-2.8-2.8
		c-1.2-1.2-3.1-1.2-4.2,0l-2.8,2.8c-0.4,0.4-1,0.4-1.4,0s-0.4-1,0-1.4l2.8-2.8c1.9-1.9,5.1-1.9,7.1,0L170,33c1.9,2,1.9,5.1,0,7.1
		l-2.8,2.8C167,43.1,166.7,43.2,166.5,43.2z"/>
</g>
<g>
	<path class="st1" d="M50.5,159.1c-0.3,0-0.5-0.1-0.7-0.3l-8.5-8.5c-0.2-0.2-0.3-0.4-0.3-0.7s0.1-0.5,0.3-0.7L154.4,35.8
		c0.4-0.4,1-0.4,1.4,0l8.5,8.5c0.2,0.2,0.3,0.4,0.3,0.7s-0.1,0.5-0.3,0.7L51.2,158.8C51,159,50.8,159.1,50.5,159.1z M43.4,149.6
		l7.1,7.1L162.2,45l-7.1-7.1L43.4,149.6z"/>
</g>
<g>
	<polyline class="st4" points="166.5,42.2 163.6,45 155.2,36.5 158,33.7 	"/>
	<path class="st1" d="M163.6,46c-0.3,0-0.5-0.1-0.7-0.3l-8.5-8.5c-0.4-0.4-0.4-1,0-1.4l2.8-2.8c0.4-0.4,1-0.4,1.4,0s0.4,1,0,1.4
		l-2.1,2.1l7.1,7.1l2.1-2.1c0.4-0.4,1-0.4,1.4,0s0.4,1,0,1.4l-2.8,2.8C164.2,45.9,163.9,46,163.6,46z"/>
</g>
<g>
	<polygon class="st4" points="32.1,168 50.5,158.1 42,149.6 	"/>
	<path class="st1" d="M32.1,169c-0.3,0-0.5-0.1-0.7-0.3c-0.3-0.3-0.4-0.8-0.2-1.2l9.9-18.4c0.1-0.3,0.4-0.5,0.7-0.5s0.6,0.1,0.9,0.3
		l8.5,8.5c0.2,0.2,0.3,0.5,0.3,0.9c0,0.3-0.2,0.6-0.5,0.7l-18.4,9.9C32.4,169,32.3,169,32.1,169z M42.3,151.3l-7.7,14.3l14.3-7.7
		L42.3,151.3z"/>
</g>
<g>
	<path class="st1" d="M161.2,41.8c-0.4-0.4-1-0.4-1.4,0L47.3,154.2c-0.4,0.4-0.4,1,0,1.4c0.2,0.2,0.5,0.3,0.7,0.3s0.5-0.1,0.7-0.3
		L161.2,43.2C161.6,42.8,161.6,42.2,161.2,41.8z"/>
	<path class="st1" d="M158.3,39c-0.4-0.4-1-0.4-1.4,0L44.5,151.4c-0.4,0.4-0.4,1,0,1.4c0.2,0.2,0.5,0.3,0.7,0.3s0.5-0.1,0.7-0.3
		L158.3,40.4C158.7,40,158.7,39.4,158.3,39z"/>
</g>
<g>
	<g>
		<path class="st4" d="M152,136.1c0,2.2-1.8,4-4,4H52c-2.2,0-4-1.8-4-4v-72c0-2.2,1.8-4,4-4h96c2.2,0,4,1.8,4,4V136.1z"/>
	</g>
	<g>
		<g>
			<path class="st0" d="M148,60.1H52c-2.2,0-4,1.8-4,4v64h104v-64C152,61.9,150.2,60.1,148,60.1z"/>
		</g>
	</g>
	<g>
		<rect x="56" y="68.1" class="st4" width="92" height="56"/>
	</g>
</g>
<g>
	<rect x="52" y="68.1" class="st5" width="4" height="56"/>
</g>
<g>
	<rect x="56" y="64.1" class="st5" width="92" height="4"/>
</g>
<g>
	<rect x="52" y="64.1" class="st6" width="4" height="4"/>
</g>
<g>
	<rect x="73" y="72.1" class="st6" width="16" height="4"/>
</g>
<g>
	<rect x="60" y="104.1" class="st6" width="8" height="4"/>
</g>
<g>
	<rect x="60" y="72.1" class="st7" width="8" height="4"/>
</g>
<g>
	<rect x="123.5" y="73.1" class="st2" width="16" height="4"/>
</g>
<g>
	<rect x="76.2" y="81.1" class="st2" width="36.1" height="40"/>
</g>
<g>
	<rect x="60" y="72.1" class="st2" width="8" height="4"/>
	<path class="st1" d="M68,77.1h-8c-0.6,0-1-0.4-1-1v-4c0-0.6,0.4-1,1-1h8c0.6,0,1,0.4,1,1v4C69,76.7,68.6,77.1,68,77.1z M61,75.1h6
		v-2h-6V75.1z"/>
</g>
<g>
	<path class="st1" d="M68,101.1h-8c-0.6,0-1-0.4-1-1v-20c0-0.6,0.4-1,1-1h8c0.6,0,1,0.4,1,1v20C69,100.7,68.6,101.1,68,101.1z
		 M61,99.1h6v-18h-6V99.1z"/>
</g>
<g>
	<path class="st1" d="M64,101.1c-0.6,0-1-0.4-1-1v-20c0-0.6,0.4-1,1-1s1,0.4,1,1v20C65,100.7,64.6,101.1,64,101.1z"/>
</g>
<g>
	<g>
		<g>
			<path class="st1" d="M68,97.1h-8c-0.6,0-1-0.4-1-1s0.4-1,1-1h8c0.6,0,1,0.4,1,1S68.6,97.1,68,97.1z"/>
		</g>
	</g>
	<g>
		<g>
			<path class="st1" d="M68,93.1h-8c-0.6,0-1-0.4-1-1s0.4-1,1-1h8c0.6,0,1,0.4,1,1S68.6,93.1,68,93.1z"/>
		</g>
	</g>
	<g>
		<g>
			<path class="st1" d="M68,89.1h-8c-0.6,0-1-0.4-1-1s0.4-1,1-1h8c0.6,0,1,0.4,1,1S68.6,89.1,68,89.1z"/>
		</g>
	</g>
	<g>
		<g>
			<path class="st1" d="M68,85.1h-8c-0.6,0-1-0.4-1-1s0.4-1,1-1h8c0.6,0,1,0.4,1,1S68.6,85.1,68,85.1z"/>
		</g>
	</g>
</g>
<g>
	<path class="st1" d="M111.1,122.1H76.2c-1.3,0-2.2-0.9-2.2-2.3V83.4c0-1.4,0.9-2.3,2.2-2.3h34.9c1.3,0,2.2,0.9,2.2,2.3v36.4
		C113.3,121.2,112.4,122.1,111.1,122.1z M78.4,117.5h30.5V85.7H78.4V117.5z"/>
</g>
<g>
	<path class="st1" d="M68,109.1h-8c-0.6,0-1-0.4-1-1v-4c0-0.6,0.4-1,1-1h8c0.6,0,1,0.4,1,1v4C69,108.7,68.6,109.1,68,109.1z
		 M61,107.1h6v-2h-6V107.1z"/>
</g>
<g>
	<path class="st1" d="M68,117.1h-8c-0.6,0-1-0.4-1-1v-4c0-0.6,0.4-1,1-1h8c0.6,0,1,0.4,1,1v4C69,116.7,68.6,117.1,68,117.1z
		 M61,115.1h6v-2h-6V115.1z"/>
</g>
<g>
	<path class="st1" d="M89,77.1H73c-0.6,0-1-0.4-1-1v-4c0-0.6,0.4-1,1-1h16c0.6,0,1,0.4,1,1v4C90,76.7,89.6,77.1,89,77.1z M74,75.1
		h14v-2H74V75.1z"/>
</g>
<g>
	<path class="st1" d="M140,93.1h-16c-0.6,0-1-0.4-1-1v-12c0-0.6,0.4-1,1-1h16c0.6,0,1,0.4,1,1v12C141,92.7,140.6,93.1,140,93.1z
		 M125,91.1h14v-10h-14V91.1z"/>
</g>
<g>
	<path class="st1" d="M107,102.1H91c-0.6,0-1-0.4-1-1v-12c0-0.6,0.4-1,1-1h16c0.6,0,1,0.4,1,1v12C108,101.7,107.6,102.1,107,102.1z
		 M92,100.1h14v-10H92V100.1z"/>
</g>
<g>
	<path class="st1" d="M139.5,78.1h-16c-0.6,0-1-0.4-1-1v-4c0-0.6,0.4-1,1-1h16c0.6,0,1,0.4,1,1v4C140.5,77.7,140.1,78.1,139.5,78.1z
		 M124.5,76.1h14v-2h-14V76.1z"/>
</g>
<g>
	<path class="st1" d="M103,97.1h-8c-0.6,0-1-0.4-1-1v-4c0-0.6,0.4-1,1-1h8c0.6,0,1,0.4,1,1v4C104,96.7,103.6,97.1,103,97.1z
		 M96,95.1h6v-2h-6V95.1z"/>
</g>
<g>
	<path class="st1" d="M136.1,84.9h-7.3c-0.6,0-0.9-0.4-0.9-0.9c0-0.5,0.4-0.9,0.9-0.9h7.3c0.6,0,0.9,0.4,0.9,0.9
		C137,84.6,136.6,84.9,136.1,84.9z"/>
</g>
<g>
	<g>
		<path class="st1" d="M128.8,88.6c-0.1,0-0.3,0-0.4-0.1c-0.1-0.1-0.2-0.1-0.3-0.2c-0.2-0.2-0.3-0.4-0.3-0.6c0-0.3,0.1-0.5,0.3-0.6
			c0.1-0.1,0.2-0.2,0.3-0.2c0.4-0.1,0.7-0.1,1,0.2c0.2,0.2,0.3,0.4,0.3,0.6c0,0.1,0,0.1,0,0.2s0,0.1-0.1,0.2c0,0.1,0,0.1-0.1,0.2
			l-0.1,0.1C129.2,88.5,129,88.6,128.8,88.6z"/>
	</g>
	<g>
		<path class="st1" d="M131.5,87.7c0-0.6,0.5-0.9,0.9-0.9l0,0c0.5,0,0.9,0.4,0.9,0.9l0,0c0,0.5-0.5,0.9-0.9,0.9l0,0
			C132,88.6,131.5,88.2,131.5,87.7z"/>
	</g>
	<g>
		<path class="st1" d="M136.1,88.6c-0.3,0-0.5-0.1-0.6-0.3s-0.3-0.4-0.3-0.6c0-0.3,0.1-0.5,0.3-0.6c0.4-0.4,0.9-0.4,1.3,0
			c0.2,0.2,0.3,0.4,0.3,0.6s-0.1,0.5-0.3,0.6C136.5,88.5,136.4,88.6,136.1,88.6z"/>
	</g>
</g>
<g>
	<path class="st1" d="M56,125.1c-0.6,0-1-0.4-1-1v-60c0-0.6,0.4-1,1-1s1,0.4,1,1v60C57,124.7,56.6,125.1,56,125.1z"/>
</g>
<g>
	<path class="st1" d="M52,125.1c-0.6,0-1-0.4-1-1v-60c0-0.6,0.4-1,1-1s1,0.4,1,1v60C53,124.7,52.6,125.1,52,125.1z"/>
</g>
<g>
	<path class="st1" d="M148,69.1H52c-0.6,0-1-0.4-1-1s0.4-1,1-1h96c0.6,0,1,0.4,1,1S148.6,69.1,148,69.1z"/>
</g>
<g>
	<path class="st1" d="M148,65.1H52c-0.6,0-1-0.4-1-1s0.4-1,1-1h96c0.6,0,1,0.4,1,1S148.6,65.1,148,65.1z"/>
</g>
<g>
	<path class="st1" d="M148,125.1c-0.6,0-1-0.4-1-1v-60c0-0.6,0.4-1,1-1s1,0.4,1,1v60C149,124.7,148.6,125.1,148,125.1z"/>
</g>
<g>
	<path class="st1" d="M148,125.1H52c-0.6,0-1-0.4-1-1s0.4-1,1-1h96c0.6,0,1,0.4,1,1S148.6,125.1,148,125.1z"/>
</g>
<g>
	<path class="st1" d="M152,129.1c-0.6,0-1-0.4-1-1v-64c0-0.6,0.4-1,1-1s1,0.4,1,1v64C153,128.7,152.6,129.1,152,129.1z"/>
</g>
<g>
	<path class="st1" d="M48,129.1c-0.6,0-1-0.4-1-1v-64c0-0.6,0.4-1,1-1s1,0.4,1,1v64C49,128.7,48.6,129.1,48,129.1z"/>
</g>
<g>
	<path class="st1" d="M148,61.1H52c-0.6,0-1-0.4-1-1s0.4-1,1-1h96c0.6,0,1,0.4,1,1S148.6,61.1,148,61.1z"/>
</g>
<g>
	<path class="st1" d="M48,65.1c-0.6,0-1-0.4-1-1c0-2.8,2.2-5,5-5c0.6,0,1,0.4,1,1s-0.4,1-1,1c-1.7,0-3,1.3-3,3
		C49,64.7,48.6,65.1,48,65.1z"/>
</g>
<g>
	<path class="st1" d="M152,65.1c-0.6,0-1-0.4-1-1c0-1.7-1.3-3-3-3c-0.6,0-1-0.4-1-1s0.4-1,1-1c2.8,0,5,2.2,5,5
		C153,64.7,152.6,65.1,152,65.1z"/>
</g>
<g>
	<path class="st1" d="M148,141.1c-0.6,0-1-0.4-1-1s0.4-1,1-1c1.7,0,3-1.3,3-3c0-0.6,0.4-1,1-1s1,0.4,1,1
		C153,138.9,150.8,141.1,148,141.1z"/>
</g>
<g>
	<path class="st1" d="M52,141.1c-2.8,0-5-2.2-5-5c0-0.6,0.4-1,1-1s1,0.4,1,1c0,1.7,1.3,3,3,3c0.6,0,1,0.4,1,1S52.6,141.1,52,141.1z"
		/>
</g>
<g>
	<path class="st1" d="M152,129.1H48c-0.6,0-1-0.4-1-1s0.4-1,1-1h104c0.6,0,1,0.4,1,1C153,128.7,152.6,129.1,152,129.1z"/>
</g>
<g>
	<path class="st1" d="M152,137.1c-0.6,0-1-0.4-1-1v-8c0-0.6,0.4-1,1-1s1,0.4,1,1v8C153,136.7,152.6,137.1,152,137.1z"/>
</g>
<g>
	<path class="st1" d="M148,141.1H52c-0.6,0-1-0.4-1-1s0.4-1,1-1h96c0.6,0,1,0.4,1,1S148.6,141.1,148,141.1z"/>
</g>
<g>
	<path class="st1" d="M48,137.1c-0.6,0-1-0.4-1-1v-8c0-0.6,0.4-1,1-1s1,0.4,1,1v8C49,136.7,48.6,137.1,48,137.1z"/>
</g>
<g>
	<path class="st1" d="M100,137.1c-1.7,0-3-1.3-3-3s1.3-3,3-3s3,1.3,3,3S101.7,137.1,100,137.1z M100,133.1c-0.6,0-1,0.4-1,1
		s0.4,1,1,1s1-0.4,1-1S100.6,133.1,100,133.1z"/>
</g>
<g>
	<path class="st1" d="M88,149.1c-0.6,0-1-0.4-1-1v-8c0-0.6,0.4-1,1-1s1,0.4,1,1v8C89,148.7,88.6,149.1,88,149.1z"/>
</g>
<g>
	<path class="st1" d="M112,149.1c-0.6,0-1-0.4-1-1v-8c0-0.6,0.4-1,1-1s1,0.4,1,1v8C113,148.7,112.6,149.1,112,149.1z"/>
</g>
<g>
	<path class="st1" d="M120,153.1H80c-0.6,0-1-0.4-1-1v-4c0-0.6,0.4-1,1-1h40c0.6,0,1,0.4,1,1v4C121,152.7,120.6,153.1,120,153.1z
		 M81,151.1h38v-2H81V151.1z"/>
</g>
<g>
	<circle class="st4" cx="157.1" cy="149.6" r="2"/>
	<path class="st1" d="M157.1,152.6c-1.7,0-3-1.3-3-3s1.3-3,3-3c1.7,0,3,1.3,3,3C160.1,151.3,158.8,152.6,157.1,152.6z M157.1,148.6
		c-0.6,0-1,0.4-1,1s0.4,1,1,1s1-0.4,1-1C158.1,149.1,157.7,148.6,157.1,148.6z"/>
</g>
<g>
	<path class="st1" d="M106.5,111.1h-24c-0.9,0-1.5-0.4-1.5-1v-4c0-0.6,0.6-1,1.5-1h24c0.9,0,1.5,0.4,1.5,1v4
		C108,110.7,107.4,111.1,106.5,111.1z M84,109.1h21v-2H84V109.1z"/>
</g>
</svg>
